<?xml version="1.0" encoding="iso-8859-1"?>
<!-- Generator: Adobe Illustrator 19.0.0, SVG Export Plug-In . SVG Version: 6.00 Build 0)  -->
<svg version="1.1" id="Capa_1" xmlns="http://www.w3.org/2000/svg" xmlns:xlink="http://www.w3.org/1999/xlink" x="0px" y="0px" height="512" width="512"
	 viewBox="0 0 512 512" style="enable-background:new 0 0 512 512;" xml:space="preserve">
<circle style="fill:#FDD365;" cx="256.03" cy="93.12" r="38.666"/>
<path d="M256.026,141.788c-26.835,0-48.666-21.831-48.666-48.666s21.831-48.666,48.666-48.666s48.667,21.831,48.667,48.666
	S282.861,141.788,256.026,141.788z M256.026,64.456c-15.807,0-28.666,12.859-28.666,28.666s12.859,28.666,28.666,28.666
	s28.667-12.859,28.667-28.666S271.833,64.456,256.026,64.456z"/>
<path d="M256.026,32.178c-5.522,0-10-4.478-10-10V10c0-5.522,4.478-10,10-10s10,4.478,10,10v12.178
	C266.026,27.7,261.549,32.178,256.026,32.178z"/>
<path d="M339.148,103.122H326.97c-5.522,0-10-4.478-10-10s4.478-10,10-10h12.178c5.522,0,10,4.478,10,10
	S344.671,103.122,339.148,103.122z"/>
<path d="M185.082,103.122h-12.178c-5.522,0-10-4.478-10-10s4.478-10,10-10h12.178c5.523,0,10,4.478,10,10
	S190.605,103.122,185.082,103.122z"/>
<path d="M312.818,46.331c-2.56,0-5.118-0.976-7.07-2.929c-3.906-3.905-3.906-10.236-0.001-14.142l9.748-9.749
	c3.904-3.906,10.237-3.907,14.142-0.001c3.906,3.905,3.906,10.236,0.001,14.142l-9.748,9.749
	C317.938,45.354,315.378,46.331,312.818,46.331z"/>
<path d="M189.486,169.662c-2.559,0-5.119-0.977-7.071-2.93c-3.905-3.905-3.905-10.236,0.001-14.142l9.749-9.748
	c3.906-3.904,10.239-3.904,14.142,0.001c3.905,3.905,3.905,10.236-0.001,14.142l-9.749,9.748
	C194.605,168.686,192.045,169.662,189.486,169.662z"/>
<path d="M322.566,169.662c-2.56,0-5.118-0.977-7.071-2.929l-9.748-9.748c-3.905-3.905-3.905-10.237,0-14.143
	c3.906-3.904,10.236-3.904,14.142,0l9.748,9.748c3.905,3.905,3.905,10.237,0,14.143
	C327.685,168.686,325.126,169.662,322.566,169.662z"/>
<path d="M199.235,46.331c-2.56,0-5.118-0.977-7.071-2.929l-9.749-9.749c-3.905-3.905-3.905-10.237,0-14.143
	c3.906-3.904,10.236-3.904,14.143,0l9.749,9.749c3.905,3.905,3.905,10.237,0,14.143C204.354,45.354,201.795,46.331,199.235,46.331z"
	/>
<rect x="10" y="393.76" style="fill:#B3FFF9;" width="492" height="108.24"/>
<path style="fill:#FCC595;" d="M10,502h175.992l0,0c0-59.801-48.479-108.28-108.28-108.236H10V502z"/>
<path d="M128.41,473.002c-0.65,0-1.311-0.069-1.95-0.199c-0.641-0.131-1.271-0.32-1.88-0.57c-0.601-0.25-1.181-0.56-1.721-0.92
	c-0.55-0.36-1.06-0.78-1.52-1.24c-1.86-1.87-2.93-4.439-2.93-7.07c0-0.659,0.069-1.31,0.189-1.96c0.13-0.64,0.33-1.26,0.57-1.87
	c0.25-0.6,0.56-1.18,0.92-1.72c0.37-0.55,0.79-1.06,1.25-1.52s0.97-0.88,1.52-1.25c0.54-0.36,1.12-0.67,1.721-0.92
	c0.609-0.25,1.239-0.44,1.88-0.57c3.24-0.65,6.7,0.41,9.02,2.74c0.46,0.46,0.88,0.97,1.24,1.52c0.36,0.54,0.67,1.12,0.92,1.72
	c0.25,0.61,0.45,1.23,0.57,1.87c0.13,0.65,0.2,1.301,0.2,1.96c0,2.631-1.07,5.2-2.931,7.07
	C133.62,471.933,131.04,473.002,128.41,473.002z"/>
<path style="fill:#FF8951;" d="M502,502H326.008l0,0c0-59.801,48.479-108.28,108.28-108.28H502V502z"/>
<path d="M383.59,473.002c-0.65,0-1.31-0.069-1.95-0.199c-0.64-0.131-1.27-0.32-1.87-0.57c-0.609-0.25-1.189-0.56-1.729-0.92
	c-0.55-0.36-1.061-0.78-1.521-1.24s-0.88-0.97-1.239-1.52c-0.36-0.54-0.671-1.131-0.921-1.73s-0.449-1.229-0.569-1.87
	c-0.13-0.64-0.2-1.3-0.2-1.95c0-0.659,0.07-1.31,0.2-1.96c0.12-0.64,0.319-1.26,0.569-1.87c0.25-0.6,0.56-1.18,0.921-1.72
	c0.359-0.55,0.779-1.06,1.239-1.52c0.46-0.46,0.971-0.88,1.521-1.25c0.54-0.36,1.12-0.67,1.729-0.92c0.601-0.25,1.23-0.44,1.87-0.57
	c1.29-0.26,2.61-0.26,3.91,0c0.63,0.13,1.26,0.32,1.86,0.57c0.609,0.25,1.189,0.56,1.729,0.92c0.55,0.37,1.061,0.79,1.521,1.25
	s0.88,0.97,1.239,1.52c0.37,0.54,0.67,1.12,0.92,1.72c0.25,0.61,0.45,1.23,0.58,1.87c0.12,0.65,0.19,1.301,0.19,1.96
	c0,2.631-1.07,5.2-2.93,7.07c-0.46,0.46-0.971,0.88-1.521,1.24c-0.54,0.359-1.12,0.67-1.729,0.92c-0.601,0.25-1.23,0.44-1.86,0.57
	C384.899,472.933,384.24,473.002,383.59,473.002z"/>
<path d="M305.651,437.666h-73.618c-5.523,0-10-4.477-10-10c0-5.522,4.477-10,10-10h73.618c5.522,0,10,4.478,10,10
	C315.651,433.189,311.174,437.666,305.651,437.666z"/>
<rect x="416.48" y="160.17" style="fill:#FFFFFF;" width="53.784" height="182.93"/>
<path style="fill:#CCCCCC;" d="M403.936,127.437c0-5.485,4.487-9.973,9.972-9.973h58.876c5.484,0,9.972,4.488,9.972,9.973v22.766
	c0,5.485-4.487,9.971-9.972,9.971h-58.876c-5.484,0-9.972-4.486-9.972-9.971L403.936,127.437L403.936,127.437z"/>
<rect x="41.732" y="160.17" style="fill:#FFFFFF;" width="53.842" height="182.93"/>
<path style="fill:#CCCCCC;" d="M29.246,127.437c0-5.485,4.487-9.973,9.972-9.973h58.876c5.485,0,9.972,4.488,9.972,9.973v22.766
	c0,5.485-4.487,9.971-9.972,9.971H39.218c-5.485,0-9.972-4.486-9.972-9.971C29.246,150.203,29.246,127.437,29.246,127.437z"/>
<polygon style="fill:#FDD365;" points="416.479,343.106 95.574,343.106 95.574,305.609 416.479,305.544 "/>
<rect x="14.779" y="343.11" style="fill:#D38A5A;" width="107.75" height="50.657"/>
<rect x="389.47" y="343.11" style="fill:#DB9970;" width="107.75" height="50.657"/>
<path d="M256.026,186.244c5.522,0,10-4.478,10-10v-12.178c0-5.522-4.478-10-10-10s-10,4.478-10,10v12.178
	C246.026,181.767,250.504,186.244,256.026,186.244z"/>
<path d="M507.223,385.191v-42.084c0-5.522-4.478-10-10-10h-16.959V168.72c7.317-2.966,12.491-10.149,12.491-18.517v-22.766
	c0-11.013-8.959-19.973-19.972-19.973h-58.876c-11.013,0-19.972,8.96-19.972,19.973v22.766c0,8.388,5.199,15.585,12.544,18.538
	v4.371c-36.15,32.36-93.331,52.324-150.478,52.324c-57.12,0-114.273-19.944-150.427-52.276v-4.44
	c7.317-2.966,12.491-10.149,12.491-18.517v-22.766c0-11.013-8.959-19.973-19.972-19.973H39.218c-11.013,0-19.972,8.96-19.972,19.973
	v22.766c0,8.366,5.171,15.547,12.485,18.515v164.389H14.778c-5.522,0-10,4.478-10,10v42.128C1.912,386.993,0,390.155,0,393.764V502
	c0,5.522,4.477,10,10,10h492c5.522,0,10-4.478,10-10V393.72C512,390.112,510.088,386.949,507.223,385.191z M487.223,383.72
	l-87.754,0.044v-30.657h87.754V383.72z M193.329,476.853h62.512c5.523,0,10-4.477,10-10c0-5.522-4.477-10-10-10h-68.734
	c-5.869-14.222-14.551-27.281-25.759-38.486c-5.487-5.485-11.417-10.364-17.71-14.603h224.839
	c-29.016,19.502-48.96,51.508-52.05,88.236H195.578C195.152,486.876,194.399,481.819,193.329,476.853z M105.574,315.607
	l300.905-0.061v17.561H105.574V315.607z M322.001,295.563v-58.284c12.538-3.12,24.721-7.09,36.333-11.83v70.107L322.001,295.563z
	 M302.001,295.567l-36.334,0.007v-50.315c12.202-0.446,24.372-1.727,36.334-3.781L302.001,295.567L302.001,295.567z
	 M245.667,295.579l-36.334,0.007v-54.224c11.959,2.083,24.129,3.395,36.334,3.872V295.579z M189.333,295.59l-36.334,0.007v-70.422
	c11.606,4.777,23.791,8.782,36.334,11.937V295.59z M379.469,353.107v30.657H132.532v-30.657H379.469z M426.479,333.107V170.174
	h33.784v162.933H426.479z M413.935,127.465l58.819-0.027l0.028,22.736l-2.425,0.001c-0.031,0-0.063-0.001-0.094-0.001h-53.784
	c-0.255,0-0.507,0.01-0.757,0.028l-1.787,0.001L413.935,127.465L413.935,127.465z M406.479,295.546l-28.145,0.006v-79.328
	c10.039-5.202,19.478-11.024,28.145-17.402V295.546z M132.999,215.876v79.726l-27.425,0.006v-96.746
	C114.035,205.082,123.23,210.773,132.999,215.876z M39.246,127.465l58.819-0.027l0.028,22.736l-2.425,0.001
	c-0.032,0-0.063-0.001-0.094-0.001H41.731c-0.255,0-0.507,0.01-0.758,0.028l-1.727,0.001V127.465z M51.731,170.174h33.843v6.287
	c-0.071,0.688-0.071,1.381,0,2.069v154.576H51.731V170.174z M24.778,353.107h87.754v30.657H24.778V353.107z M20,492v-19h68.408
	c5.522,0,10-4.478,10-10s-4.478-10-10-10H20v-49.236h57.794c26.218,0,50.869,10.208,69.414,28.748
	c16.185,16.181,26.029,37.014,28.285,59.488H20z M336.513,492c4.927-48.55,45.337-86.765,94.815-88.236H492V453h-68.408
	c-5.522,0-10,4.478-10,10s4.478,10,10,10H492v19H336.513z"/>
<g>
</g>
<g>
</g>
<g>
</g>
<g>
</g>
<g>
</g>
<g>
</g>
<g>
</g>
<g>
</g>
<g>
</g>
<g>
</g>
<g>
</g>
<g>
</g>
<g>
</g>
<g>
</g>
<g>
</g>
</svg>
