<?xml version="1.0" encoding="iso-8859-1"?>
<!-- Generator: Adobe Illustrator 19.0.0, SVG Export Plug-In . SVG Version: 6.00 Build 0)  -->
<svg xmlns="http://www.w3.org/2000/svg" xmlns:xlink="http://www.w3.org/1999/xlink" version="1.1" id="Capa_1" x="0px" y="0px" viewBox="0 0 511.949 511.949" style="enable-background:new 0 0 511.949 511.949;" xml:space="preserve" width="512" height="512">
<g>
	<g>
		<path style="fill:#B67F5F;" d="M286.897,10.204C180.311-8.755,87.637,72.694,87.637,175.788    c0,96.53,75.66,165.547,150.524,270.764c8.738,12.281,26.892,12.279,35.631-0.001c74.155-104.219,149.089-172.922,150.502-268.026    C425.506,96.897,367.272,24.501,286.897,10.204z M255.975,288.013c-61.981,0-112.226-50.245-112.226-112.226    S193.995,63.562,255.975,63.562s112.226,50.245,112.226,112.226S317.956,288.013,255.975,288.013z"/>
		<path style="fill:#EDEBED;" d="M274.773,235.909h-49.62c-4.118,0-7.567-3.121-7.976-7.218l-7.294-72.943h80.161l-7.294,72.943    C282.34,232.788,278.892,235.909,274.773,235.909z"/>
		<g>
			<polygon style="fill:#A06E50;" points="255.924,7.483 255.921,7.483 255.923,7.483    "/>
			<path style="fill:#A06E50;" d="M391.384,160.219c-6.855-61.72-56.544-112.035-118.152-119.639     c-5.737-0.708-11.543-1.067-17.256-1.067c-22.374,0-44.566,5.563-64.178,16.089c-0.387,0.208-0.75,0.314-1.076,0.314     c-0.801,0-1.545-0.634-1.839-1.23c-0.214-0.434-0.208-0.773,0.261-1.436c35.243-49.777,93.527-47.831,52.971-44.05     C154.569,17.361,86.07,91.222,87.667,179.132c1.723,94.789,76.497,163.421,150.493,267.419c4.628,6.505,11.891,9.46,19.005,9.073     l-2.361-5.064c-12.619-27.061-25.167-51.382-37.303-74.902c-11.815-22.899-23.018-44.794-32.714-66.219     c-1.705-3.768-0.416-8.198,2.991-10.542h0c2.557-1.759,5.836-1.92,8.625-0.557c27.121,13.254,58.166,17.187,89.184,10.571     c22.518-4.803,43.542-15.623,60.684-30.994C380.227,247.469,396.34,204.853,391.384,160.219z M255.975,288.013     c-61.98,0-112.226-50.245-112.226-112.226S193.995,63.562,255.975,63.562s112.226,50.245,112.226,112.226     S317.956,288.013,255.975,288.013z"/>
		</g>
		<path style="fill:#DBD9DC;" d="M254.452,215.868c-8.237,0-15.133-6.241-15.953-14.437l-4.568-45.684h-24.048l7.294,72.942    c0.41,4.098,3.858,7.219,7.977,7.219h49.619c4.119,0,7.567-3.121,7.977-7.219l1.282-12.821H254.452z"/>
	</g>
	<g>
		<path d="M392.011,64.385C365.605,31.894,328.741,10.03,288.21,2.82c-52.211-9.288-105.094,4.608-145.096,38.123    c-40.023,33.532-62.978,82.681-62.978,134.845c0,76.974,47,137.673,101.421,207.958c16.432,21.222,33.424,43.167,50.492,67.154    c5.59,7.856,14.31,12.362,23.925,12.362c9.616,0,18.337-4.507,23.927-12.364c17.067-23.987,34.059-45.931,50.491-67.153    c53.807-69.491,100.276-129.506,101.4-205.11C432.408,137.282,418.279,96.707,392.011,64.385z M416.795,178.413    c-1.049,70.6-43.949,126.004-98.262,196.149c-16.523,21.339-33.609,43.405-50.852,67.64c-2.74,3.851-7.007,6.06-11.706,6.06    c-4.698,0-8.963-2.208-11.703-6.058c-17.244-24.235-34.33-46.301-50.853-67.641c-54.91-70.916-98.282-126.93-98.282-198.775    c0-47.714,20.999-92.672,57.611-123.347c29.138-24.413,65.767-37.438,103.635-37.438c9.685,0,19.459,0.854,29.201,2.586    c36.988,6.579,70.65,26.558,94.787,56.257C404.421,103.439,417.357,140.575,416.795,178.413z"/>
		<path d="M304.072,496.949h-96.193c-4.142,0-7.5,3.358-7.5,7.5s3.358,7.5,7.5,7.5h96.193c4.142,0,7.5-3.358,7.5-7.5    S308.214,496.949,304.072,496.949z"/>
		<path d="M151.55,168.668c1.67-25.247,12.457-49.017,30.373-66.933c17.916-17.916,41.686-28.702,66.933-30.373    c25.005-1.651,49.768,5.676,69.741,20.637c3.315,2.483,8.016,1.808,10.499-1.506c2.483-3.315,1.809-8.016-1.506-10.499    c-22.839-17.109-51.158-25.492-79.724-23.6c-28.876,1.911-56.062,14.246-76.549,34.733    c-20.488,20.487-32.823,47.673-34.734,76.549c-1.89,28.572,6.491,56.885,23.6,79.724c1.473,1.967,3.727,3.004,6.008,3.004    c1.564,0,3.142-0.488,4.491-1.498c3.315-2.483,3.989-7.184,1.506-10.499C157.226,218.435,149.896,193.667,151.55,168.668z"/>
		<path d="M341.269,102.668c-3.315,2.483-3.989,7.184-1.506,10.499c14.962,19.973,22.291,44.741,20.637,69.741    c-1.67,25.246-12.457,49.017-30.373,66.933c-17.916,17.916-41.686,28.702-66.933,30.373c-25.003,1.66-49.767-5.675-69.741-20.637    c-3.316-2.484-8.016-1.809-10.499,1.506c-2.483,3.315-1.809,8.016,1.506,10.499c20.723,15.524,45.951,23.861,71.791,23.861    c2.639,0,5.286-0.087,7.933-0.262c28.876-1.911,56.062-14.246,76.549-34.733c20.488-20.487,32.823-47.673,34.733-76.549    c1.891-28.572-6.49-56.885-23.599-79.724C349.285,100.858,344.585,100.184,341.269,102.668z"/>
		<path d="M204.322,150.714c-1.422,1.571-2.113,3.67-1.902,5.779l7.294,72.943c0.796,7.965,7.434,13.972,15.439,13.972h49.62    c8.004,0,14.642-6.006,15.439-13.972l2.245-22.451c3.847,2.74,8.546,4.359,13.618,4.359c12.976,0,23.532-10.557,23.532-23.532    s-10.557-23.532-23.532-23.532c-3.4,0-6.63,0.73-9.551,2.033l0.982-9.82c0.211-2.108-0.48-4.208-1.902-5.779    c-1.422-1.571-3.442-2.467-5.561-2.467h-80.161C207.764,148.247,205.744,149.144,204.322,150.714z M306.076,179.279    c4.705,0,8.532,3.828,8.532,8.532s-3.828,8.532-8.532,8.532s-8.532-3.828-8.532-8.532S301.371,179.279,306.076,179.279z     M281.756,163.247l-6.469,64.696c-0.026,0.265-0.247,0.465-0.514,0.465h-49.62c-0.266,0-0.487-0.2-0.513-0.464l-6.47-64.697    H281.756z"/>
		<path d="M265.996,139.201c3.14,0,6.066-1.988,7.114-5.13l8.016-24.048c1.31-3.929-0.814-8.177-4.744-9.487    c-3.928-1.311-8.177,0.814-9.487,4.744l-8.016,24.048c-1.31,3.93,0.814,8.177,4.744,9.487    C264.411,139.076,265.21,139.201,265.996,139.201z"/>
		<path d="M233.932,139.201c3.14,0,6.066-1.987,7.114-5.13l5.344-16.032c1.31-3.929-0.814-8.177-4.744-9.487    c-3.928-1.311-8.177,0.813-9.487,4.744l-5.344,16.032c-1.31,3.929,0.814,8.177,4.744,9.487    C232.346,139.076,233.146,139.201,233.932,139.201z"/>
	</g>
</g>















</svg>
