<?xml version="1.0" encoding="iso-8859-1"?>
<!-- Generator: Adobe Illustrator 19.0.0, SVG Export Plug-In . SVG Version: 6.00 Build 0)  -->
<svg version="1.1" id="Capa_1" xmlns="http://www.w3.org/2000/svg" xmlns:xlink="http://www.w3.org/1999/xlink" x="0px" y="0px" height="512" width="512"
	 viewBox="0 0 512 512" style="enable-background:new 0 0 512 512;" xml:space="preserve">
<path style="fill:#716499;" d="M481.352,61.625v225.958c0,9.317-12.711,12.055-16.54,3.551l-4.875-10.786l-6.534-14.481
	l-50.111-3.696l-12.645-0.935c-2.905-0.212-5.376-2.182-6.234-4.954l-5.153-16.641c-2.015-6.49-11.153-6.667-13.413-0.256
	l-27.17,77.003c-3.028,8.593-15.561,7.28-16.741-1.748l-13.78-105.221c-0.924-7.046-10.496-8.482-13.435-2.004l-22.284,49.076
	c-1.959,4.308-7.013,6.256-11.343,4.352l-6.055-2.649l-25.411-11.098l-40.127,9.328c-3.518,0.812-6.155,3.718-6.623,7.302
	l-0.3,2.282L159.68,439.908c-1.236,9.339-14.381,10.274-16.919,1.202l-25.022-89.414L84.758,233.853l-38.502,57.97l-2.193,3.295
	c-4.575,6.89-15.282,4.052-15.84-4.197L20.22,173.869L12.54,61.625L481.352,61.625L481.352,61.625z"/>
<path style="fill:#503D7F;" d="M481.352,61.625v124.989l-21.416,93.733l-6.534-14.481l-50.111-3.696l-5.131-117.431l-3.84-2.516
	l-13.624,44.936c-3.184,10.496-12.689,17.553-23.642,17.553c-11.676,0-21.605-7.947-24.154-19.334l-0.256-1.147l-21.316-7.914
	l-6.344-50.412l-5.188,17.954c-3.083,10.685-12.623,17.865-23.742,17.865c-8.761,0-16.597-4.541-21.015-11.654v108.125
	l-25.411-11.098l-40.127,9.328c-3.518,0.812-6.155,3.718-6.623,7.302l-0.3,2.282l-9.807-152.193l-10.374,3.996v141.34
	c0,11.965-8.538,22.206-20.325,24.332l-7.792,1.414l-16.54,66.797L84.758,233.853l-38.502,57.97L20.221,173.868l-7.68-112.244
	h468.811V61.625z"/>
<path style="fill:#A19CAD;" d="M7.73,39.818l72.744,329.554c1.83,8.292,13.599,8.441,15.64,0.2l24.56-99.177l18.43-3.337
	c3.822-0.692,6.601-4.02,6.601-7.903V113.606c0-4.366,2.686-8.282,6.759-9.854l22.086-8.525c6.652-2.568,13.886,2.059,14.344,9.175
	l14.324,222.397c0.521,8.092,11.341,10.402,15.121,3.229l19.08-36.207c0.608-1.155,0.927-2.44,0.927-3.745V128.554
	c0-4.532,2.89-8.559,7.184-10.008l5.528-1.865c5.878-1.984,12.193,1.502,13.646,7.534l3.532,14.659
	c1.931,8.014,13.237,8.267,15.525,0.347l6.575-22.766c0.798-2.763,2.688-5.081,5.234-6.419l9.251-4.862
	c6.528-3.431,14.472,0.714,15.394,8.031l6.419,50.984l20.323,7.542l2.238,10.004c1.802,8.058,13.129,8.479,15.524,0.577
	l16.001-52.78c2.046-6.748,10.001-9.635,15.899-5.77l13.323,8.733c2.841,1.862,4.613,4.979,4.762,8.373l7.029,160.948
	c0.409,9.353,13.77,10.565,15.855,1.438l48.533-212.479l18.353-11.482V38.026c0-4.59-3.722-8.312-8.312-8.312H15.846
	C10.534,29.715,6.584,34.631,7.73,39.818z"/>
<g>
	<path style="fill:#50B8FF;" d="M445.463,386.501c0,9.005-7.3,16.303-16.303,16.303c-9.005,0-16.303-7.3-16.303-16.303
		c0-9.005,16.303-40.319,16.303-40.319S445.463,377.497,445.463,386.501z"/>
	<path style="fill:#50B8FF;" d="M235.431,408.281c0,9.005-7.3,16.303-16.303,16.303s-16.303-7.3-16.303-16.303
		c0-9.005,16.303-40.319,16.303-40.319S235.431,399.277,235.431,408.281z"/>
</g>
<path d="M314.976,261.498c4.123-0.54,7.029-4.321,6.489-8.443l-5.843-44.617c-0.856-6.527-5.805-11.567-12.317-12.54
	c-6.505-0.968-12.72,2.399-15.449,8.398l-22.277,49.081c-0.255,0.559-0.917,0.816-1.477,0.572l-18.227-7.958v-44.915
	c0-4.159-3.37-7.53-7.53-7.53s-7.53,3.37-7.53,7.53v89c0,0.081-0.02,0.161-0.058,0.234l-19.08,36.206
	c-0.122,0.232-0.179,0.335-0.55,0.258c-0.371-0.079-0.38-0.198-0.397-0.459l-14.324-222.396c-0.373-5.81-3.401-10.941-8.305-14.079
	c-4.904-3.138-10.834-3.734-16.263-1.638l-22.087,8.526c-6.924,2.674-11.577,9.456-11.577,16.879v145.547
	c0,0.243-0.174,0.452-0.412,0.495l-18.43,3.336c-2.919,0.528-5.255,2.721-5.968,5.599l-24.56,99.177
	c-0.071,0.288-0.089,0.396-0.494,0.382c-0.398-0.005-0.42-0.103-0.484-0.394l-21.354-96.741c0-0.001-0.001-0.003-0.001-0.004
	L15.082,38.194c-0.02-0.09-0.08-0.365,0.154-0.658c0.235-0.292,0.517-0.292,0.609-0.292H75.65c4.159,0,7.53-3.37,7.53-7.53
	s-3.37-7.53-7.53-7.53H15.846c-4.826,0-9.328,2.158-12.35,5.919c-3.023,3.763-4.16,8.624-3.118,13.336L5.06,62.655l15.647,228.777
	c0.48,7.027,5.186,12.734,11.992,14.539c1.429,0.379,2.861,0.563,4.27,0.563c5.31,0,10.28-2.613,13.365-7.253l5.224-7.861
	l17.565,79.575c1.59,7.206,7.618,12.111,14.997,12.205c0.072,0.001,0.145,0.001,0.216,0.001c7.284,0,13.332-4.727,15.089-11.821
	l5.637-22.763l26.451,94.525c1.988,7.098,8.278,11.821,15.535,11.821c0.396,0,0.794-0.015,1.194-0.043
	c7.756-0.55,13.883-6.318,14.904-14.031l23.201-176.181c0.062-0.473,0.397-0.846,0.85-0.951l0.411-0.095l4.097,63.621
	c0.453,7.033,5.388,12.746,12.281,14.218c6.893,1.47,13.73-1.73,17.015-7.965l19.079-36.204c1.175-2.228,1.796-4.738,1.796-7.258
	v-27.653l12.196,5.325c2.084,0.912,4.266,1.343,6.419,1.343c6.169,0,12.099-3.544,14.799-9.486l21.608-47.606l5.633,43.012
	C307.074,259.135,310.867,262.036,314.976,261.498z M37.791,290.946c-0.147,0.219-0.445,0.679-1.231,0.469
	c-0.774-0.205-0.812-0.748-0.829-1.01l-8.8-128.667l24.116,109.257L37.791,290.946z M187.797,249.086
	c-6.527,1.512-11.502,6.997-12.382,13.652l-23.201,176.181c-0.051,0.387-0.12,0.916-1.039,0.981
	c-0.907,0.07-1.058-0.446-1.162-0.817L116.403,318.97l10.409-42.034l13.635-2.469c7.41-1.342,12.788-7.783,12.788-15.314V113.607
	c0-1.244,0.78-2.381,1.941-2.829l22.086-8.525c1.247-0.484,2.244-0.034,2.727,0.274c0.483,0.309,1.306,1.026,1.393,2.361
	l9.245,143.543L187.797,249.086z"/>
<path d="M496.159,22.185H107.025c-4.159,0-7.53,3.37-7.53,7.53s3.37,7.53,7.53,7.53h389.134c0.432,0,0.782,0.351,0.782,0.782v37.096
	l-14.817,9.269c-1.697,1.062-2.902,2.755-3.347,4.707l-48.533,212.48c-0.053,0.232-0.112,0.33-0.107,0.333
	c-0.18,0.108-0.691,0.06-0.822-0.054c0-0.001-0.049-0.104-0.061-0.369l-1.671-38.254c-0.001-0.049-0.004-0.098-0.006-0.148
	l-5.352-122.546c-0.253-5.798-3.302-11.159-8.156-14.342l-13.323-8.733c-4.815-3.155-10.679-3.837-16.089-1.875
	c-5.411,1.964-9.473,6.25-11.144,11.758l-16.001,52.779c-0.079,0.262-0.099,0.372-0.499,0.355c-0.387-0.014-0.411-0.124-0.471-0.392
	l-2.238-10.004c-0.557-2.49-2.336-4.529-4.729-5.416l-16.042-5.955l-5.849-46.455c-0.741-5.885-4.325-11.038-9.585-13.781
	c-5.259-2.743-11.533-2.733-16.783,0.026l-9.252,4.862c-4.337,2.28-7.604,6.288-8.964,10.994l-6.574,22.767
	c-0.075,0.263-0.142,0.359-0.494,0.362c-0.387-0.009-0.413-0.118-0.478-0.385l-3.532-14.661c-1.188-4.924-4.411-9.153-8.847-11.601
	c-4.436-2.448-9.731-2.923-14.528-1.303l-5.528,1.865c-7.361,2.485-12.307,9.373-12.307,17.142v41.147c0,4.159,3.37,7.53,7.53,7.53
	s7.53-3.37,7.53-7.53v-41.147c0-1.302,0.828-2.457,2.063-2.872l5.528-1.865c1.103-0.374,1.999-0.022,2.436,0.218
	c0.437,0.241,1.211,0.815,1.484,1.946l3.532,14.66c1.678,6.965,7.617,11.751,14.78,11.912c7.2,0.171,13.312-4.357,15.298-11.239
	l6.575-22.767c0.229-0.789,0.776-1.461,1.503-1.842l9.252-4.862c1.222-0.643,2.286-0.278,2.812-0.005
	c0.526,0.274,1.435,0.94,1.607,2.31l6.42,50.984c0.351,2.783,2.221,5.141,4.851,6.118l16.487,6.119l1.344,6.011
	c1.567,7.004,7.436,11.888,14.609,12.154c7.191,0.25,13.389-4.168,15.47-11.037l16.001-52.778c0.384-1.265,1.334-1.778,1.867-1.972
	c0.532-0.195,1.591-0.41,2.698,0.314l13.323,8.732c0.814,0.533,1.324,1.432,1.366,2.405l4.982,114.072l-20.648-1.522l-5.066-16.335
	c-1.901-6.113-7.262-10.143-13.66-10.267c-6.431-0.143-11.909,3.697-14.045,9.734l-27.166,77.003c-0.118,0.336-0.314,0.84-1.18,0.75
	c-0.885-0.093-0.955-0.626-1.001-0.979l-3.825-29.225c-0.539-4.122-4.305-7.023-8.443-6.489c-4.122,0.539-7.028,4.32-6.489,8.443
	l3.825,29.227c0.994,7.577,6.766,13.202,14.364,13.998c0.603,0.063,1.2,0.094,1.791,0.094c6.858,0,12.819-4.176,15.159-10.811
	l26.702-75.684l4.742,15.287c1.78,5.784,6.835,9.805,12.867,10.242l22.735,1.677l1.385,31.728c0.35,8.003,6.165,14.096,14.142,14.82
	c0.518,0.047,1.029,0.069,1.535,0.069c7.303,0,13.373-4.8,15.04-12.103l6-26.266l7.023,15.566c2.701,5.999,8.293,9.559,14.551,9.559
	c1.179,0,2.381-0.125,3.593-0.387c7.647-1.642,12.785-8.004,12.785-15.828V112.503l3.883-17.002l15.702-9.823
	c2.2-1.376,3.536-3.788,3.536-6.383V38.026C512,29.291,504.894,22.185,496.159,22.185z M473.819,287.575
	c0,0.363,0,0.913-0.889,1.104c-0.888,0.187-1.103-0.306-1.254-0.637l-11.404-25.28c-0.918-2.033-2.681-3.514-4.774-4.12l18.32-80.21
	L473.819,287.575L473.819,287.575z"/>
<path d="M456.746,324.652c-4.159,0-7.53,3.37-7.53,7.53v0.919c0,4.159,3.37,7.53,7.53,7.53c4.159,0,7.53-3.37,7.53-7.53v-0.919
	C464.276,328.022,460.905,324.652,456.746,324.652z"/>
<path d="M394.017,365.408c-4.159,0-7.53,3.37-7.53,7.53v0.918c0,4.159,3.37,7.53,7.53,7.53c4.159,0,7.53-3.37,7.53-7.53v-0.918
	C401.547,368.779,398.176,365.408,394.017,365.408z"/>
<path d="M164.767,473.837c-4.159,0-7.53,3.37-7.53,7.53v0.919c0,4.159,3.37,7.53,7.53,7.53s7.53-3.37,7.53-7.53v-0.919
	C172.297,477.209,168.927,473.837,164.767,473.837z"/>
<path d="M101.118,404.554c-4.159,0-7.53,3.37-7.53,7.53v0.918c0,4.159,3.37,7.53,7.53,7.53s7.53-3.37,7.53-7.53v-0.918
	C108.648,407.924,105.276,404.554,101.118,404.554z"/>
<path d="M54.478,380.496c-4.159,0-7.53,3.37-7.53,7.53v0.918c0,4.159,3.37,7.53,7.53,7.53s7.53-3.37,7.53-7.53v-0.918
	C62.007,383.866,58.636,380.496,54.478,380.496z"/>
<path d="M103.308,233.395v0.918c0,4.159,3.37,7.53,7.53,7.53s7.53-3.37,7.53-7.53v-0.918c0-4.159-3.37-7.53-7.53-7.53
	S103.308,229.237,103.308,233.395z"/>
<path d="M348.669,224.212v-0.919c0-4.159-3.37-7.53-7.53-7.53c-4.159,0-7.53,3.37-7.53,7.53v0.919c0,4.159,3.37,7.53,7.53,7.53
	C345.299,231.742,348.669,228.37,348.669,224.212z"/>
<path d="M452.595,106.82v-0.918c0-4.159-3.37-7.53-7.53-7.53c-4.159,0-7.53,3.37-7.53,7.53v0.918c0,4.159,3.37,7.53,7.53,7.53
	C449.224,114.35,452.595,110.979,452.595,106.82z"/>
<path d="M431.858,79.752v-0.918c0-4.159-3.37-7.53-7.53-7.53c-4.159,0-7.53,3.37-7.53,7.53v0.918c0,4.159,3.37,7.53,7.53,7.53
	C428.487,87.282,431.858,83.912,431.858,79.752z"/>
<path d="M79.794,190.595l-7.627-42.037c-0.742-4.092-4.668-6.809-8.754-6.065c-4.091,0.743-6.807,4.662-6.065,8.754l7.627,42.037
	c1.682,9.264,9.126,15.845,18.525,16.378c0.406,0.022,0.809,0.034,1.21,0.034c8.883,0,16.449-5.59,19.047-14.215l11.659-38.695
	c1.2-3.982-1.055-8.182-5.037-9.382c-3.983-1.204-8.182,1.055-9.382,5.037l-11.658,38.695c-1.009,3.348-3.83,3.558-4.987,3.491
	C83.19,194.56,80.417,194.036,79.794,190.595z"/>
<path d="M358.881,92.63c0.917,0,1.843-0.057,2.773-0.172c8.532-1.053,15.503-6.779,18.195-14.944l3.768-11.43
	c1.302-3.95-0.844-8.206-4.794-9.509c-3.949-1.301-8.206,0.845-9.509,4.794l-3.768,11.43c-1.276,3.872-4.714,4.585-5.738,4.712
	c-1.023,0.128-4.532,0.27-6.712-3.176l-5.595-8.844c-2.225-3.516-6.875-4.56-10.389-2.337c-3.515,2.224-4.561,6.875-2.337,10.389
	l5.595,8.844C344.465,88.861,351.386,92.63,358.881,92.63z"/>
<path d="M429.16,338.652c-2.808,0-5.382,1.562-6.678,4.052c-4.025,7.73-17.155,33.732-17.155,43.797
	c0,13.142,10.691,23.833,23.833,23.833c13.143,0,23.834-10.691,23.834-23.833c0-10.065-13.131-36.068-17.156-43.797
	C434.541,340.214,431.968,338.652,429.16,338.652z M429.16,395.275c-4.838,0-8.774-3.937-8.774-8.774
	c0.006-2.995,3.893-12.765,8.775-23.263c4.88,10.494,8.768,20.264,8.774,23.263C437.935,391.338,433.998,395.275,429.16,395.275z"/>
<path d="M219.127,360.431c-2.808,0-5.382,1.562-6.678,4.052c-4.025,7.73-17.155,33.732-17.155,43.797
	c0,13.142,10.691,23.833,23.833,23.833s23.833-10.691,23.833-23.833c0-10.065-13.13-36.067-17.155-43.797
	C224.509,361.993,221.934,360.431,219.127,360.431z M219.127,417.055c-4.838,0-8.774-3.937-8.774-8.774
	c0.006-2.995,3.893-12.765,8.775-23.263c4.88,10.495,8.767,20.264,8.773,23.263C227.901,413.118,223.965,417.055,219.127,417.055z"
	/>
<g>
</g>
<g>
</g>
<g>
</g>
<g>
</g>
<g>
</g>
<g>
</g>
<g>
</g>
<g>
</g>
<g>
</g>
<g>
</g>
<g>
</g>
<g>
</g>
<g>
</g>
<g>
</g>
<g>
</g>
</svg>
