<?xml version="1.0" encoding="iso-8859-1"?>
<!-- Generator: Adobe Illustrator 19.0.0, SVG Export Plug-In . SVG Version: 6.00 Build 0)  -->
<svg version="1.1" id="Capa_1" xmlns="http://www.w3.org/2000/svg" xmlns:xlink="http://www.w3.org/1999/xlink" x="0px" y="0px" height="512" width="512"
	 viewBox="0 0 512 512" style="enable-background:new 0 0 512 512;" xml:space="preserve">
<g>
	<path style="fill:#FF9F3D;" d="M409.804,428.04c8.322,0,15.512,4.853,18.897,11.884c3.791-3.787,9.024-6.127,14.805-6.127
		c11.576,0,20.961,9.389,20.961,20.97v1.445c0.532-0.408,1.089-0.782,1.659-1.138V369.87c0-2.75-2.109-5.783-4.687-6.741
		l-59.015-21.917v88.191C404.723,428.536,407.203,428.04,409.804,428.04z"/>
	<path style="fill:#FF9F3D;" d="M55.837,456.376v-1.44c0-11.537,9.35-20.891,20.882-20.891c5.758,0,10.972,2.332,14.749,6.104
		c3.274-6.801,10.125-11.542,18.108-11.813V341.21l-59.014,21.918c-2.578,0.957-4.687,3.991-4.687,6.741v82.396
		C49.59,452.753,53.002,454.202,55.837,456.376z"/>
</g>
<path style="opacity:0.1;fill:#231F20;enable-background:new    ;" d="M55.837,456.376v-1.44c0-11.537,9.35-20.891,20.882-20.891
	c0.685,0,1.361,0.038,2.03,0.103v-81.187L50.562,363.43c-2.578,0.957-4.687,3.991-4.687,6.741v82.095
	C49.59,452.753,53.002,454.202,55.837,456.376z"/>
<path style="fill:#C73627;" d="M194.015,494.587V196.416l-79.979,40.521c-2.453,1.243-4.46,4.51-4.46,7.26v184.14
	c0.239-0.008,0.477-0.026,0.718-0.026c11.533,0,20.881,9.353,20.881,20.892v0.301v9.221c1.942-0.597,4.004-0.92,6.142-0.92
	c9.974,0,18.31,7,20.382,16.355c3.464-2.554,7.742-4.065,12.374-4.065c11.533,0,20.882,9.354,20.882,20.892v0.301v8.301h8.061
	C196.265,499.587,194.015,497.337,194.015,494.587z"/>
<path style="fill:#289E48;" d="M22.262,499.587v-26.626c0-11.538,9.349-20.892,20.881-20.892c4.776,0,9.175,1.608,12.693,4.307
	v-1.44c0-11.537,9.35-20.891,20.882-20.891c5.758,0,10.972,2.332,14.749,6.104c3.372-7.005,10.535-11.839,18.826-11.839
	c11.533,0,20.881,9.353,20.881,20.892v9.522c1.942-0.597,4.004-0.92,6.142-0.92c9.974,0,18.31,7,20.382,16.355
	c3.464-2.554,7.742-4.065,12.374-4.065c11.533,0,20.882,9.354,20.882,20.892v8.602H22.262V499.587z"/>
<path style="opacity:0.1;fill:#231F20;enable-background:new    ;" d="M110.294,428.311c11.533,0,20.881,9.353,20.881,20.892v0.301
	v9.221c1.942-0.597,4.004-0.92,6.142-0.92c1.972,0,3.875,0.283,5.683,0.794V222.262l-28.964,14.675
	c-2.453,1.243-4.46,4.51-4.46,7.26v184.14C109.815,428.329,110.052,428.311,110.294,428.311z"/>
<path style="fill:#C73627;" d="M328.837,490.953c0-11.582,9.385-20.971,20.961-20.971c4.65,0,8.944,1.516,12.421,4.08
	c2.08-9.391,10.447-16.417,20.459-16.417c2.146,0,4.216,0.325,6.165,0.924v-9.257v-0.301c0-0.355,0.036-0.701,0.053-1.052
	c0.008-0.122,0.008-0.246,0.019-0.367c0.56-8.359,6.003-15.36,13.51-18.191V244.197c0-2.75-2.007-6.017-4.46-7.26l-79.978-40.52
	v298.171c0,2.75-2.25,5-5,5h15.851v-8.333v-0.302H328.837z"/>
<g>
	<path style="fill:#FF9F3D;" d="M317.986,494.587c0,2.75-2.25,5-5,5H199.015c-2.75,0-5-2.25-5-5V145.65
		c0-2.75,1.601-6.581,3.558-8.513l54.87-54.181c1.957-1.932,5.159-1.932,7.115,0l54.871,54.181c1.957,1.932,3.558,5.763,3.558,8.513
		v348.937H317.986z"/>
	<path style="fill:#FF9F3D;" d="M317.986,494.587c0,2.75-2.25,5-5,5H199.015c-2.75,0-5-2.25-5-5V145.65
		c0-2.75,1.601-6.581,3.558-8.513l54.87-54.181c1.957-1.932,5.159-1.932,7.115,0l54.871,54.181c1.957,1.932,3.558,5.763,3.558,8.513
		v348.937H317.986z"/>
</g>
<g>
	<path style="fill:#FEDC34;" d="M374.845,357.624c0,1.65-1.35,3-3,3h-23.766c-1.65,0-3-1.35-3-3V306.26
		c0-1.65,0.997-3.91,2.216-5.023l10.451-9.538c1.219-1.112,3.213-1.112,4.432,0l10.452,9.538c1.219,1.112,2.216,3.373,2.216,5.023
		v51.364H374.845z"/>
	<path style="fill:#FEDC34;" d="M348.079,467.411h16.891c2.333-3.685,5.786-6.579,9.875-8.231v-46.133
		c0-1.65-0.997-3.91-2.216-5.022l-10.452-9.538c-1.219-1.112-3.213-1.112-4.432,0l-10.451,9.538
		c-1.219,1.112-2.216,3.373-2.216,5.022v51.364C345.079,466.061,346.429,467.411,348.079,467.411z"/>
	<path style="fill:#FEDC34;" d="M167.428,357.624c0,1.65-1.35,3-3,3h-23.766c-1.65,0-3-1.35-3-3V306.26
		c0-1.65,0.997-3.91,2.216-5.023l10.451-9.538c1.219-1.112,3.213-1.112,4.432,0l10.452,9.538c1.219,1.112,2.216,3.373,2.216,5.023
		v51.364H167.428z"/>
	<path style="fill:#FEDC34;" d="M154.875,467.411h9.553c1.65,0,3-1.35,3-3v-51.364c0-1.65-0.997-3.91-2.216-5.022l-10.452-9.538
		c-1.219-1.112-3.213-1.112-4.432,0l-10.451,9.538c-1.219,1.112-2.216,3.373-2.216,5.022v44.772
		C144.892,457.938,151.22,461.727,154.875,467.411z"/>
</g>
<path style="fill:#AB5436;" d="M256,371.336c-15.977,0-28.932,13.093-28.932,29.243v99.008h57.863V400.58
	C284.932,384.43,271.978,371.336,256,371.336z"/>
<g style="opacity:0.1;">
	<path style="fill:#231F20;" d="M266.966,373.517c-3.383-1.402-7.083-2.181-10.966-2.181c-15.977,0-28.932,13.093-28.932,29.243
		v99.008H249V400.58C249,388.354,256.427,377.885,266.966,373.517z"/>
</g>
<path style="fill:#FEDC34;" d="M284.932,337.458c0,1.65-1.35,3-3,3h-51.863c-1.65,0-3-1.35-3-3V226.662c0-1.65,1.35-3,3-3h51.863
	c1.65,0,3,1.35,3,3V337.458z"/>
<path style="opacity:0.1;fill:#231F20;enable-background:new    ;" d="M243.068,337.458V226.662c0-1.65,1.35-3,3-3h-16
	c-1.65,0-3,1.35-3,3v110.796c0,1.65,1.35,3,3,3h16C244.419,340.458,243.068,339.108,243.068,337.458z"/>
<path style="fill:#FEDC34;" d="M232.144,195.51c-2.803,0-5.076-2.274-5.076-5.078V158.47c0-16.292,12.979-29.545,28.932-29.545
	s28.932,13.254,28.932,29.545v31.962c0,2.804-2.272,5.078-5.076,5.078H232.144z"/>
<g style="opacity:0.1;">
	<path style="fill:#231F20;" d="M249,190.432V158.47c0-12.329,7.435-22.913,17.966-27.335c-3.384-1.421-7.086-2.211-10.966-2.211
		c-15.953,0-28.932,13.254-28.932,29.545v31.962c0,2.804,2.272,5.078,5.076,5.078h21.932C251.273,195.51,249,193.236,249,190.432z"
		/>
</g>
<g style="opacity:0.1;">
	<path style="fill:#231F20;" d="M55.677,456.264c-3.492-2.628-7.828-4.194-12.534-4.194c-11.532,0-20.881,9.354-20.881,20.892
		v26.626h27.046v-27.889C49.308,465.675,51.742,460.221,55.677,456.264z"/>
</g>
<path style="fill:#289E48;" d="M498.169,499.587V472.86c0-11.582-9.384-20.971-20.96-20.971c-4.793,0-9.21,1.614-12.742,4.323
	v-1.445c0-11.581-9.385-20.97-20.961-20.97c-5.78,0-11.014,2.341-14.805,6.127c-3.385-7.032-10.575-11.884-18.897-11.884
	c-11.576,0-20.961,9.389-20.961,20.972v9.558c-1.949-0.599-4.019-0.924-6.165-0.924c-10.012,0-18.379,7.026-20.459,16.417
	c-3.477-2.564-7.771-4.08-12.421-4.08c-11.576,0-20.961,9.389-20.961,20.971v8.634L498.169,499.587L498.169,499.587z"/>
<path d="M348.079,368.124h23.766c5.79,0,10.5-4.71,10.5-10.5V306.26c0-3.774-1.873-8.019-4.66-10.563l-10.452-9.537
	c-1.974-1.802-4.557-2.794-7.271-2.794s-5.297,0.992-7.271,2.794l-10.451,9.538c-2.788,2.543-4.66,6.788-4.66,10.562v51.364
	C337.579,363.414,342.29,368.124,348.079,368.124z M352.579,306.604c0.008-0.02,0.017-0.039,0.026-0.059l7.357-6.714l7.357,6.714
	c0.009,0.02,0.018,0.039,0.026,0.059v46.52h-14.766V306.604z"/>
<path d="M159.816,286.16c-1.974-1.802-4.557-2.794-7.271-2.794c-2.715,0-5.297,0.992-7.271,2.794l-10.451,9.538
	c-2.788,2.543-4.66,6.788-4.66,10.562v51.364c0,5.79,4.71,10.5,10.5,10.5h23.766c5.79,0,10.5-4.71,10.5-10.5V306.26
	c0-3.774-1.873-8.019-4.66-10.563L159.816,286.16z M159.928,353.124h-14.766v-46.52c0.008-0.02,0.017-0.04,0.026-0.059l7.356-6.714
	l7.357,6.714c0.009,0.02,0.018,0.039,0.026,0.059v46.52H159.928z"/>
<path d="M281.932,216.162h-51.863c-5.79,0-10.5,4.71-10.5,10.5v110.796c0,5.79,4.71,10.5,10.5,10.5h51.863
	c5.79,0,10.5-4.71,10.5-10.5V226.662C292.432,220.872,287.721,216.162,281.932,216.162z M277.432,254.158H263.5v-22.996h13.932
	V254.158z M263.5,269.158h13.932v24.609H263.5V269.158z M248.5,293.767h-13.932v-24.609H248.5V293.767z M248.5,231.162v22.996
	h-13.932v-22.996H248.5z M234.568,308.767H248.5v24.191h-13.932V308.767z M263.5,332.958v-24.191h13.932v24.191H263.5z"/>
<path d="M256,121.424c-20.088,0-36.432,16.619-36.432,37.045v31.962c0,6.936,5.642,12.578,12.576,12.578h47.712
	c6.934,0,12.576-5.643,12.576-12.578v-31.962C292.432,138.043,276.088,121.424,256,121.424z M277.432,188.01h-42.863v-29.541
	c0-12.156,9.614-22.045,21.432-22.045c11.817,0,21.432,9.89,21.432,22.045v29.541H277.432z"/>
<path d="M505.669,492.188V472.86c0-15.699-12.767-28.471-28.46-28.471c-1.208,0-2.403,0.077-3.582,0.224V422
	c0-4.142-3.358-7.5-7.5-7.5s-7.5,3.358-7.5,7.5v8.671c-4.385-2.764-9.566-4.374-15.12-4.374c-4.408,0-8.66,1.007-12.506,2.893
	v-13.666c0-4.142-3.358-7.5-7.5-7.5s-7.5,3.358-7.5,7.5v5.716c-1.976-0.446-4.01-0.688-6.076-0.697v-68.245l6.076,2.256v18.858
	c0,4.142,3.358,7.5,7.5,7.5s7.5-3.358,7.5-7.5v-13.288l27.554,10.233c0.025,0.032,0.051,0.069,0.072,0.105V389
	c0,4.142,3.358,7.5,7.5,7.5s7.5-3.358,7.5-7.5v-18.83c0-5.918-4.027-11.71-9.576-13.771l-54.126-20.102v-85.193l9.595,4.861
	c3.694,1.871,8.208,0.394,10.08-3.301c1.872-3.695,0.394-8.208-3.301-10.08l-100.813-51.077v-33.878l5.75,5.604
	c2.966,2.89,7.714,2.829,10.606-0.137c2.891-2.966,2.829-7.715-0.137-10.606l-76.89-74.928c-0.415-0.404-0.859-0.761-1.315-1.097
	V42.51h17.566c4.142,0,7.5-3.358,7.5-7.5s-3.358-7.5-7.5-7.5H263.5V12.413c0-4.142-3.358-7.5-7.5-7.5s-7.5,3.358-7.5,7.5V27.51
	h-16.465c-4.142,0-7.5,3.358-7.5,7.5s3.358,7.5,7.5,7.5H248.5v33.96c-0.457,0.337-0.902,0.696-1.318,1.102l-76.7,74.924
	c-2.963,2.895-3.019,7.643-0.125,10.606c1.47,1.504,3.417,2.259,5.366,2.259c1.89,0,3.782-0.71,5.24-2.135l5.551-5.422v33.703
	L85.701,242.584c-3.695,1.872-5.173,6.385-3.301,10.08c1.322,2.608,3.96,4.112,6.696,4.112c1.14,0,2.297-0.261,3.384-0.811
	l9.595-4.861v85.193L47.95,356.399c-5.548,2.061-9.575,7.853-9.575,13.771v73.853c-13.386,2.276-23.612,13.955-23.612,27.983v20.081
	H7.5c-4.142,0-7.5,3.358-7.5,7.5s3.358,7.5,7.5,7.5h497c4.142,0,7.5-3.358,7.5-7.5C512,495.844,509.254,492.75,505.669,492.188z
	 M53.447,370.358L61,367.553v5.859c0,4.142,3.358,7.5,7.5,7.5s7.5-3.358,7.5-7.5v-11.43l26.076-9.685v68.797
	c-4.701,1.438-8.977,4.071-12.368,7.628c-3.968-2.048-8.396-3.133-12.989-3.133c-0.242,0-0.479,0.023-0.719,0.029v-10.095
	c0-4.142-3.358-7.5-7.5-7.5s-7.5,3.358-7.5,7.5v14.853c-2.992,2-5.58,4.549-7.625,7.508v-67.422
	C53.396,370.428,53.421,370.391,53.447,370.358z M183.454,491.132H29.762v-19.126c0-7.384,6.003-13.392,13.381-13.392
	c2.966,0,5.776,0.954,8.128,2.758c2.266,1.739,5.322,2.04,7.882,0.775c2.561-1.263,4.183-3.871,4.183-6.726v-1.44
	c0-7.384,6.003-13.391,13.382-13.391c3.568,0,6.924,1.389,9.449,3.911c1.719,1.717,4.163,2.494,6.559,2.087
	c2.396-0.408,4.444-1.951,5.499-4.141c2.22-4.612,6.957-7.592,12.068-7.592c7.378,0,13.381,6.007,13.381,13.392v9.522
	c0,2.38,1.129,4.618,3.044,6.032c1.914,1.414,4.385,1.834,6.661,1.137c1.272-0.391,2.597-0.589,3.938-0.589
	c6.223,0,11.715,4.406,13.059,10.477c0.549,2.478,2.313,4.51,4.689,5.401c2.376,0.891,5.042,0.52,7.085-0.986
	c2.308-1.702,5.047-2.601,7.922-2.601c7.379,0,13.382,6.007,13.382,13.392V491.132z M159.928,459.911h-0.58
	c-3.643-4.471-8.599-7.794-14.186-9.428v-37.092c0.008-0.02,0.017-0.04,0.026-0.059l7.356-6.714l7.357,6.714
	c0.009,0.02,0.018,0.039,0.026,0.059v46.52H159.928z M277.432,492.087h-42.863V400.58c0-11.989,9.614-21.743,21.432-21.743
	c11.817,0,21.432,9.754,21.432,21.743v91.507H277.432z M325.486,476.166V289c0-4.142-3.358-7.5-7.5-7.5s-7.5,3.358-7.5,7.5v203.087
	h-18.054V400.58c0-20.26-16.343-36.743-36.432-36.743s-36.432,16.483-36.432,36.743v91.508h-18.054V405c0-4.142-3.358-7.5-7.5-7.5
	s-7.5,3.358-7.5,7.5v61.911c-3.387-2.417-7.327-4.102-11.586-4.843v-49.022c0-3.774-1.873-8.019-4.66-10.563l-10.452-9.537
	c-1.974-1.802-4.557-2.794-7.271-2.794c-2.715,0-5.297,0.992-7.271,2.794l-10.451,9.538c-2.788,2.543-4.66,6.788-4.66,10.562V428
	c-3.574-3.511-8.07-6.083-13.087-7.318V243.896c0-0.129-0.013-0.255-0.02-0.383l69.458-35.192V370c0,4.142,3.358,7.5,7.5,7.5
	s7.5-3.358,7.5-7.5V143.151l54.491-53.229l54.48,53.09V252c0,4.142,3.358,7.5,7.5,7.5s7.5-3.358,7.5-7.5v-43.677l69.438,35.181
	v181.249c-6.085,3.75-10.657,9.725-12.579,16.783v-28.489c0-3.774-1.873-8.019-4.66-10.563l-10.452-9.537
	c-1.974-1.802-4.557-2.794-7.271-2.794s-5.297,0.992-7.271,2.794l-10.451,9.538c-2.788,2.543-4.66,6.788-4.66,10.562v51.364
	c0,0.277,0.022,0.549,0.043,0.821C332.594,467.625,328.369,471.44,325.486,476.166z M367.345,454.7
	c-2.248,1.448-4.292,3.2-6.06,5.211h-8.707v-46.52c0.008-0.02,0.017-0.039,0.026-0.059l7.357-6.714l7.357,6.714
	c0.009,0.02,0.018,0.039,0.026,0.059V454.7H367.345z M490.669,492.087H336.337v-1.134c0-7.428,6.039-13.471,13.461-13.471
	c2.893,0,5.648,0.905,7.97,2.616c2.042,1.506,4.708,1.879,7.084,0.986c2.376-0.891,4.141-2.923,4.69-5.4
	c1.353-6.107,6.877-10.539,13.136-10.539c1.349,0,2.682,0.2,3.961,0.593c2.274,0.7,4.746,0.277,6.66-1.137s3.044-3.652,3.044-6.032
	v-9.558c0-7.428,6.038-13.472,13.461-13.472c5.141,0,9.906,2.998,12.14,7.638c1.054,2.19,3.104,3.733,5.499,4.14
	c2.392,0.406,4.839-0.37,6.559-2.087c2.539-2.537,5.915-3.934,9.504-3.934c7.422,0,13.461,6.043,13.461,13.47v1.445
	c0,2.855,1.622,5.463,4.182,6.726s5.617,0.962,7.883-0.775c2.366-1.815,5.193-2.774,8.177-2.774c7.422,0,13.46,6.043,13.46,13.471
	V492.087z"/>
<path d="M90.5,405.913c4.142,0,7.5-3.358,7.5-7.5v-12c0-4.142-3.358-7.5-7.5-7.5s-7.5,3.358-7.5,7.5v12
	C83,402.555,86.358,405.913,90.5,405.913z"/>
<path d="M438,386.413v12c0,4.142,3.358,7.5,7.5,7.5s7.5-3.358,7.5-7.5v-12c0-4.142-3.358-7.5-7.5-7.5S438,382.271,438,386.413z"/>
<g>
</g>
<g>
</g>
<g>
</g>
<g>
</g>
<g>
</g>
<g>
</g>
<g>
</g>
<g>
</g>
<g>
</g>
<g>
</g>
<g>
</g>
<g>
</g>
<g>
</g>
<g>
</g>
<g>
</g>
</svg>
