<svg id="Capa_1" enable-background="new 0 0 512 512" height="512" viewBox="0 0 512 512" width="512" xmlns="http://www.w3.org/2000/svg"><g clip-rule="evenodd" fill-rule="evenodd"><path d="m226 132.003h60l-30-102.003z" fill="#ffcd69"/><path d="m226 132.003h60v60h-60z" fill="#ffcd69"/><path d="m286 192.003h-60-19.999v89.996h10 79.996 10.001v-89.996zm-30 24.999c11.046 0 20 8.954 20 20s-8.954 20-20 20-20-8.954-20-20 8.954-20 20-20z" fill="#ffcd69"/><circle cx="256" cy="237.001" fill="#d1a184" r="20"/><path d="m216.001 281.999h79.996v59.999h-79.996z" fill="#d1a184"/><path d="m216.001 341.998v-59.999h-10-30.001v59.999z" fill="#c68a65"/><path d="m295.998 281.999v59.999h40.002v-59.999h-30.001z" fill="#c68a65"/><path d="m336 341.998h-40.002-79.997-40.001v20.001 20.001h160v-20.001z" fill="#d1a184"/><path d="m336 382h-160v20 100h50v-60c0-16.5 13.5-30 30-30s30 13.5 30 30v60h50v-100z" fill="#d1a184"/><path d="m286 442c0-16.5-13.5-30-30-30s-30 13.5-30 30v60h60z" fill="#ffcd69"/><path d="m336 402h166v-40.001h-166v20.001z" fill="#c68a65"/><path d="m502 402h-166v100h75.999v-46.667c0-11 9-20 20-20s20 9 20 20v46.667h50.001z" fill="#d1a184"/><path d="m451.998 455.333c0-11-9-20-20-20s-20 9-20 20v46.667h40z" fill="#ffcd69"/><path d="m176 402v-20-20.001h-166v40.001z" fill="#c68a65"/><path d="m176 402h-166v100h50.002v-46.667c0-11 9-20 20-20s20 9 20 20v46.667h75.998z" fill="#d1a184"/><path d="m100.002 455.333c0-11-9-20-20-20s-20 9-20 20v46.667h40z" fill="#ffcd69"/></g><path d="m502 351.999h-156v-80c0-5.523-4.478-10-10-10s-10 4.477-10 10h-10.001v-79.996c0-5.523-4.478-10-10-10h-9.999v-49.817c0-.024 0-.047 0-.071v-.112c0-.081-.01-.158-.012-.239-.006-.235-.013-.469-.036-.705-.015-.159-.042-.314-.064-.471-.024-.164-.043-.329-.075-.493-.044-.225-.101-.445-.159-.664-.022-.083-.036-.167-.06-.25l-.034-.115c-.006-.019-.011-.037-.016-.056l-29.544-100.45v-18.56c0-5.523-4.477-10-10-10s-10 4.477-10 10v18.56l-29.543 100.451c-.006.018-.011.037-.016.056l-.034.115c-.024.083-.038.166-.06.25-.059.22-.116.44-.16.666-.032.162-.051.324-.074.486-.023.159-.05.317-.065.479-.022.231-.029.461-.035.691-.002.084-.013.166-.013.25v.117.063 49.82h-9.999c-5.523 0-10 4.477-10 10v79.995h-10.001c0-5.523-4.477-10-10-10s-10 4.477-10 10v80h-45.999c-5.523 0-10 4.477-10 10s4.477 10 10 10h45.999v20.001h-146v-20.001h10.001c5.523 0 10-4.477 10-10s-4.477-10-10-10h-20.001c-5.523 0-10 4.477-10 10v140c0 5.523 4.477 10 10 10h492c5.522 0 10-4.477 10-10v-140c0-5.523-4.478-10-10-10zm-10 20v20.001h-146v-20.001zm-216 120.001h-40v-50c0-11.028 8.972-20 20-20s20 8.972 20 20zm-20-90c-22.056 0-40 17.944-40 40v50h-30v-100h140v100h-30v-50c0-22.056-17.944-40-40-40zm-70-50.001h140v20.001h-140zm99.998-60v40h-59.996v-40zm40.002 40h-20.002v-40h20.002zm-70-266.558 16.635 56.562h-33.27zm-20 76.562h40v40h-40zm-19.999 60h79.998v69.995h-79.998zm-10 89.996v40h-20.001v-40zm-186.001 120.001h146v80h-55.998v-36.667c0-16.542-13.458-30-30-30s-30 13.458-30 30v36.667h-30.002zm70.002 80h-20v-36.667c0-5.514 4.486-10 10-10s10 4.486 10 10zm351.997 0h-20v-36.667c0-5.514 4.486-10 10-10s10 4.486 10 10zm20 0v-36.667c0-16.542-13.458-30-30-30s-30 13.458-30 30v36.667h-55.999v-80h146v80z"/><path d="m256 207.001c-16.542 0-30 13.458-30 30s13.458 30 30 30 30-13.458 30-30-13.458-30-30-30zm0 40c-5.514 0-10-4.486-10-10s4.486-10 10-10 10 4.486 10 10-4.486 10-10 10z"/><path d="m75.004 371.999c5.523 0 10-4.477 10-10s-4.477-10-10-10h-.007c-5.523 0-9.996 4.477-9.996 10s4.48 10 10.003 10z"/></svg>