<?xml version="1.0" encoding="iso-8859-1"?>
<!-- Generator: Adobe Illustrator 19.0.0, SVG Export Plug-In . SVG Version: 6.00 Build 0)  -->
<svg version="1.1" id="Capa_1" xmlns="http://www.w3.org/2000/svg" xmlns:xlink="http://www.w3.org/1999/xlink" x="0px" y="0px"
	 viewBox="0 0 330.947 330.947" style="enable-background:new 0 0 330.947 330.947;" xml:space="preserve">
<g transform="translate(1 1)">
	<path style="fill:#FFE100;" d="M4.495,208.605c0,63.981,51.866,115.846,115.846,115.846s115.846-51.866,115.846-115.846
		S184.322,92.759,120.342,92.759S4.495,144.625,4.495,208.605"/>
	<path style="fill:#FFFFFF;" d="M120.342,92.759c2.797,0,5.533,0.226,8.275,0.42C68.514,97.437,21.045,147.417,21.045,208.605
		c0,61.183,47.464,111.169,107.572,115.427c-2.742,0.193-5.478,0.42-8.275,0.42c-63.981,0-115.846-51.866-115.846-115.846
		S56.361,92.759,120.342,92.759"/>
	<path style="fill:#FFE100;" d="M324.452,120.341c0,63.981-51.866,115.846-115.846,115.846S92.759,184.322,92.759,120.341
		S144.625,4.495,208.606,4.495S324.452,56.361,324.452,120.341"/>
	<path style="fill:#FFA800;" d="M208.605,4.495c-2.797,0-5.533,0.226-8.275,0.42c60.102,4.259,107.572,54.238,107.572,115.427
		S260.433,231.51,200.331,235.768c2.742,0.193,5.478,0.42,8.275,0.42c63.981,0,115.846-51.866,115.846-115.846
		S272.586,4.495,208.605,4.495"/>
	<path d="M208.605,241.683c-66.908,0-121.341-54.434-121.341-121.341S141.698-1,208.605-1s121.341,54.434,121.341,121.341
		S275.513,241.683,208.605,241.683z M208.605,9.99c-60.848,0-110.352,49.504-110.352,110.352s49.504,110.352,110.352,110.352
		s110.352-49.504,110.352-110.352C318.958,59.494,269.453,9.99,208.605,9.99z"/>
	<path d="M208.613,219.617c-0.49,0-0.942-0.003-1.394-0.01c-0.607-0.008-1.191-0.114-1.735-0.303
		c-0.553,0.155-1.142,0.225-1.746,0.195c-0.462-0.023-0.924-0.048-1.385-0.077c-0.606-0.038-1.182-0.172-1.714-0.387
		c-0.56,0.127-1.151,0.169-1.756,0.109c-0.462-0.045-0.921-0.094-1.381-0.145c-0.603-0.067-1.171-0.23-1.693-0.471
		c-0.564,0.1-1.153,0.112-1.753,0.024c-0.462-0.068-0.923-0.139-1.381-0.213c-0.599-0.097-1.158-0.287-1.667-0.553
		c-0.569,0.072-1.16,0.054-1.754-0.063c-0.458-0.091-0.915-0.184-1.37-0.282c-0.592-0.127-1.14-0.344-1.634-0.634
		c-0.576,0.045-1.164-0.003-1.754-0.15c-0.449-0.113-0.899-0.229-1.346-0.347c-0.586-0.155-1.126-0.401-1.607-0.716
		c-0.57,0.016-1.16-0.061-1.741-0.237c-0.447-0.136-0.893-0.275-1.336-0.416c-0.579-0.185-1.105-0.457-1.57-0.796
		c-0.576-0.013-1.159-0.117-1.731-0.322c-0.439-0.157-0.875-0.317-1.312-0.48c-0.57-0.213-1.085-0.512-1.533-0.875
		c-0.575-0.041-1.151-0.175-1.712-0.407c-0.43-0.178-0.859-0.361-1.285-0.546c-0.559-0.241-1.058-0.564-1.488-0.949
		c-0.572-0.07-1.142-0.232-1.691-0.493c-0.418-0.199-0.835-0.4-1.25-0.605c-0.547-0.268-1.029-0.615-1.44-1.021
		c-0.567-0.098-1.128-0.287-1.663-0.575c-0.411-0.22-0.82-0.444-1.228-0.67c-0.529-0.295-0.991-0.663-1.38-1.087
		c-0.562-0.125-1.114-0.343-1.634-0.657c-0.396-0.239-0.791-0.48-1.183-0.723c-0.517-0.321-0.963-0.713-1.332-1.157
		c-0.553-0.153-1.093-0.396-1.596-0.733c-0.389-0.261-0.774-0.524-1.158-0.79c-0.497-0.344-0.919-0.756-1.264-1.214
		c-0.546-0.18-1.073-0.449-1.56-0.812c-0.37-0.275-0.738-0.553-1.104-0.832c-0.484-0.37-0.89-0.804-1.214-1.283
		c-0.536-0.206-1.048-0.5-1.515-0.884c-0.36-0.295-0.717-0.594-1.072-0.895c-0.462-0.39-0.842-0.842-1.141-1.331
		c-0.526-0.232-1.025-0.552-1.475-0.961c-0.344-0.312-0.686-0.627-1.025-0.944c-0.442-0.413-0.8-0.881-1.074-1.384
		c-0.514-0.257-0.996-0.601-1.424-1.03c-0.327-0.328-0.652-0.658-0.976-0.99c-0.422-0.434-0.758-0.921-1.008-1.437
		c-0.5-0.283-0.964-0.648-1.371-1.097c-0.312-0.343-0.621-0.689-0.928-1.038c-0.4-0.454-0.711-0.955-0.935-1.483
		c-0.486-0.306-0.932-0.695-1.317-1.164c-0.292-0.356-0.582-0.714-0.869-1.073c-0.379-0.474-0.668-0.992-0.867-1.533
		c-0.47-0.329-0.895-0.738-1.256-1.223c-0.277-0.372-0.552-0.747-0.824-1.124c-0.353-0.49-0.614-1.019-0.786-1.565
		c-0.453-0.352-0.858-0.78-1.195-1.283c-0.257-0.383-0.511-0.768-0.763-1.155c-0.332-0.509-0.568-1.052-0.714-1.609
		c-0.434-0.373-0.818-0.821-1.129-1.338c-0.24-0.398-0.476-0.797-0.71-1.199c-0.303-0.522-0.511-1.072-0.629-1.632
		c-0.417-0.394-0.779-0.861-1.065-1.395c-0.219-0.407-0.434-0.816-0.647-1.226c-0.279-0.537-0.46-1.098-0.55-1.664
		c-0.397-0.415-0.735-0.899-0.995-1.445c-0.197-0.416-0.392-0.834-0.584-1.253c-0.253-0.551-0.407-1.121-0.469-1.692
		c-0.376-0.433-0.689-0.932-0.921-1.491c-0.177-0.425-0.351-0.853-0.523-1.281c-0.226-0.564-0.351-1.143-0.385-1.718
		c-0.356-0.452-0.646-0.968-0.851-1.539c-0.156-0.436-0.31-0.873-0.46-1.31c-0.198-0.574-0.295-1.158-0.3-1.734
		c-0.332-0.469-0.596-0.998-0.773-1.579c-0.135-0.443-0.267-0.888-0.396-1.334c-0.169-0.582-0.236-1.17-0.213-1.745
		c-0.309-0.485-0.546-1.027-0.694-1.614c-0.113-0.451-0.224-0.902-0.33-1.356c-0.139-0.59-0.177-1.179-0.126-1.751
		c-0.284-0.499-0.495-1.052-0.613-1.647c-0.091-0.455-0.178-0.912-0.262-1.369c-0.11-0.596-0.12-1.188-0.04-1.756
		c-0.259-0.513-0.442-1.076-0.531-1.676c-0.068-0.458-0.133-0.915-0.194-1.374c-0.081-0.601-0.061-1.193,0.046-1.758
		c-0.233-0.525-0.389-1.096-0.448-1.699c-0.045-0.461-0.087-0.923-0.127-1.386c-0.051-0.604-0.002-1.194,0.133-1.753
		c-0.208-0.536-0.334-1.113-0.364-1.718c-0.023-0.464-0.043-0.928-0.059-1.393c-0.021-0.604,0.056-1.188,0.218-1.738
		c-0.182-0.546-0.281-1.13-0.281-1.737h1.149c0.003-0.003,0.005-0.007,0.008-0.01l-1.157-0.003c0-0.493,0.003-0.933,0.008-1.372
		c0.008-0.606,0.114-1.188,0.302-1.731c-0.155-0.553-0.225-1.139-0.196-1.744c0.022-0.465,0.047-0.93,0.076-1.393
		c0.037-0.604,0.171-1.179,0.386-1.711c-0.128-0.56-0.169-1.149-0.111-1.753c0.045-0.462,0.093-0.924,0.144-1.385
		c0.067-0.603,0.229-1.171,0.469-1.694c-0.1-0.566-0.112-1.158-0.025-1.757c0.067-0.46,0.138-0.918,0.212-1.376
		c0.096-0.599,0.286-1.159,0.552-1.669c-0.072-0.571-0.055-1.162,0.063-1.758c0.09-0.454,0.183-0.908,0.279-1.361
		c0.126-0.593,0.343-1.144,0.634-1.64c-0.044-0.574,0.002-1.164,0.149-1.753c0.112-0.45,0.228-0.899,0.347-1.347
		c0.155-0.586,0.4-1.125,0.714-1.605c-0.016-0.574,0.059-1.16,0.235-1.74c0.135-0.447,0.274-0.892,0.416-1.337
		c0.185-0.579,0.456-1.107,0.796-1.572c0.013-0.577,0.117-1.161,0.322-1.734c0.158-0.439,0.317-0.877,0.481-1.313
		c0.213-0.57,0.511-1.082,0.873-1.53c0.041-0.575,0.175-1.153,0.407-1.714c0.178-0.43,0.359-0.858,0.543-1.284
		c0.241-0.559,0.564-1.057,0.948-1.487c0.07-0.572,0.231-1.143,0.492-1.692c0.199-0.42,0.401-0.837,0.606-1.254
		c0.268-0.546,0.614-1.027,1.019-1.437c0.098-0.566,0.286-1.127,0.573-1.662c0.219-0.411,0.442-0.818,0.667-1.226
		c0.295-0.531,0.664-0.996,1.089-1.385c0.125-0.562,0.343-1.114,0.656-1.634c0.239-0.396,0.48-0.792,0.723-1.185
		c0.32-0.517,0.712-0.962,1.155-1.331c0.153-0.555,0.396-1.095,0.734-1.6c0.257-0.384,0.518-0.767,0.78-1.147
		c0.345-0.5,0.758-0.926,1.218-1.273c0.18-0.546,0.449-1.072,0.81-1.559c0.277-0.373,0.557-0.744,0.839-1.113
		c0.368-0.481,0.8-0.884,1.275-1.207c0.206-0.537,0.501-1.051,0.886-1.519c0.294-0.357,0.59-0.713,0.889-1.067
		c0.392-0.464,0.844-0.847,1.335-1.146c0.232-0.526,0.551-1.023,0.958-1.472c0.311-0.343,0.625-0.685,0.941-1.023
		c0.413-0.443,0.882-0.803,1.387-1.078c0.257-0.513,0.6-0.996,1.028-1.424c0.328-0.328,0.657-0.654,0.989-0.976
		c0.434-0.423,0.921-0.76,1.438-1.01c0.281-0.5,0.646-0.963,1.094-1.371c0.345-0.312,0.691-0.623,1.04-0.93
		c0.453-0.4,0.954-0.711,1.481-0.936c0.306-0.486,0.694-0.932,1.162-1.317c0.358-0.295,0.719-0.587,1.081-0.877
		c0.472-0.377,0.987-0.664,1.524-0.862c0.328-0.47,0.738-0.897,1.222-1.257c0.372-0.277,0.747-0.552,1.123-0.824
		c0.49-0.354,1.019-0.615,1.565-0.788c0.351-0.453,0.78-0.859,1.282-1.196c0.384-0.258,0.77-0.513,1.158-0.766
		c0.507-0.33,1.049-0.566,1.605-0.712c0.373-0.435,0.82-0.82,1.338-1.131c0.398-0.24,0.796-0.476,1.197-0.71
		c0.522-0.304,1.074-0.513,1.634-0.632c0.394-0.418,0.861-0.779,1.394-1.065c0.407-0.219,0.815-0.434,1.226-0.647
		c0.537-0.279,1.098-0.461,1.664-0.552c0.414-0.397,0.897-0.735,1.443-0.995c0.417-0.198,0.835-0.394,1.254-0.586
		c0.551-0.253,1.121-0.407,1.692-0.471c0.433-0.376,0.932-0.69,1.491-0.923c0.425-0.178,0.852-0.352,1.281-0.524
		c0.563-0.226,1.142-0.352,1.716-0.387c0.452-0.356,0.968-0.646,1.539-0.851c0.436-0.157,0.873-0.31,1.31-0.462
		c0.573-0.197,1.157-0.295,1.732-0.301c0.469-0.333,0.998-0.597,1.577-0.774c0.445-0.135,0.89-0.268,1.336-0.398
		c0.582-0.169,1.172-0.237,1.745-0.214c0.484-0.309,1.026-0.547,1.614-0.695c0.451-0.114,0.904-0.224,1.358-0.332
		c0.588-0.138,1.178-0.177,1.747-0.127c0.499-0.284,1.052-0.495,1.647-0.614c0.455-0.091,0.911-0.179,1.368-0.264
		c0.597-0.11,1.188-0.12,1.757-0.041c0.513-0.26,1.076-0.443,1.677-0.533c0.457-0.068,0.915-0.133,1.375-0.195
		c0.602-0.081,1.193-0.062,1.759,0.045c0.524-0.233,1.094-0.389,1.696-0.449c0.462-0.046,0.923-0.088,1.387-0.127
		c0.604-0.052,1.193-0.003,1.751,0.131c0.536-0.208,1.114-0.336,1.719-0.365c0.464-0.023,0.928-0.043,1.393-0.059
		c0.605-0.023,1.188,0.056,1.738,0.216c0.547-0.182,1.132-0.281,1.74-0.281h0.132c0.418,0,0.834,0.003,1.25,0.008
		c0.606,0.007,1.189,0.112,1.733,0.301c0.552-0.155,1.137-0.226,1.742-0.197c0.465,0.022,0.93,0.047,1.392,0.076
		c0.604,0.037,1.179,0.171,1.711,0.384c0.559-0.128,1.146-0.171,1.753-0.112c0.464,0.045,0.927,0.092,1.389,0.144
		c0.601,0.067,1.168,0.228,1.689,0.467c0.566-0.101,1.157-0.114,1.757-0.026c0.46,0.067,0.92,0.138,1.378,0.211
		c0.599,0.096,1.158,0.285,1.667,0.551c0.57-0.073,1.162-0.056,1.758,0.061c0.456,0.09,0.91,0.183,1.362,0.279
		c0.593,0.125,1.144,0.343,1.64,0.633c0.573-0.045,1.164,0.001,1.753,0.148c0.449,0.112,0.897,0.227,1.345,0.345
		c0.587,0.155,1.127,0.399,1.609,0.714c0.568-0.014,1.161,0.059,1.742,0.235c0.447,0.135,0.893,0.273,1.337,0.415
		c0.579,0.184,1.105,0.455,1.57,0.794c0.578,0.012,1.163,0.116,1.737,0.321c0.438,0.156,0.874,0.316,1.309,0.478
		c0.57,0.213,1.084,0.51,1.533,0.872c0.575,0.041,1.152,0.173,1.713,0.405c0.431,0.178,0.859,0.359,1.286,0.543
		c0.559,0.24,1.058,0.563,1.488,0.946c0.573,0.069,1.144,0.23,1.693,0.491c0.419,0.199,0.837,0.4,1.253,0.604
		c0.546,0.268,1.027,0.613,1.438,1.018c0.568,0.097,1.129,0.286,1.665,0.573c0.411,0.22,0.82,0.442,1.226,0.667
		c0.531,0.294,0.994,0.663,1.383,1.086c0.563,0.125,1.115,0.341,1.636,0.655c0.396,0.239,0.792,0.479,1.185,0.723
		c0.517,0.32,0.963,0.711,1.332,1.154c0.555,0.153,1.094,0.395,1.599,0.732c0.387,0.259,0.771,0.52,1.155,0.784
		c0.498,0.344,0.922,0.755,1.268,1.213c0.546,0.179,1.074,0.448,1.561,0.809c0.372,0.276,0.743,0.555,1.112,0.837
		c0.482,0.368,0.886,0.8,1.21,1.275c0.537,0.206,1.05,0.5,1.519,0.884c0.359,0.294,0.715,0.591,1.07,0.89
		c0.464,0.391,0.846,0.842,1.146,1.333c0.526,0.231,1.023,0.549,1.471,0.956c0.345,0.312,0.687,0.626,1.026,0.943
		c0.444,0.413,0.804,0.882,1.079,1.386c0.513,0.257,0.995,0.599,1.424,1.027c0.328,0.326,0.653,0.656,0.976,0.987
		c0.423,0.434,0.762,0.921,1.012,1.438c0.5,0.282,0.965,0.646,1.372,1.094c0.313,0.344,0.624,0.69,0.931,1.039
		c0.4,0.453,0.712,0.953,0.936,1.48c0.486,0.305,0.932,0.692,1.316,1.159c0.295,0.357,0.586,0.717,0.876,1.078
		c0.379,0.473,0.667,0.988,0.866,1.527c0.471,0.329,0.898,0.738,1.26,1.224c0.275,0.369,0.548,0.74,0.819,1.114
		c0.357,0.492,0.621,1.023,0.794,1.573c0.454,0.351,0.86,0.781,1.199,1.283c0.257,0.385,0.514,0.771,0.767,1.158
		c0.33,0.506,0.564,1.045,0.71,1.599c0.436,0.373,0.822,0.821,1.134,1.339c0.24,0.398,0.478,0.797,0.712,1.198
		c0.304,0.522,0.513,1.072,0.632,1.632c0.417,0.394,0.778,0.86,1.065,1.392c0.219,0.407,0.436,0.816,0.65,1.226
		c0.28,0.537,0.462,1.098,0.553,1.665c0.396,0.413,0.734,0.895,0.994,1.44c0.2,0.418,0.396,0.838,0.59,1.261
		c0.253,0.549,0.407,1.118,0.47,1.687c0.377,0.433,0.691,0.933,0.925,1.492c0.176,0.424,0.351,0.85,0.523,1.277
		c0.228,0.564,0.354,1.144,0.389,1.718c0.356,0.451,0.645,0.965,0.851,1.534c0.158,0.437,0.312,0.875,0.465,1.314
		c0.198,0.574,0.296,1.158,0.303,1.734c0.334,0.469,0.598,0.997,0.775,1.578c0.136,0.443,0.268,0.888,0.398,1.334
		c0.169,0.582,0.238,1.169,0.216,1.744c0.31,0.485,0.548,1.026,0.696,1.614c0.113,0.449,0.224,0.899,0.331,1.35
		c0.141,0.592,0.18,1.183,0.13,1.757c0.284,0.5,0.496,1.053,0.615,1.648c0.091,0.454,0.178,0.909,0.264,1.365
		c0.111,0.595,0.121,1.186,0.042,1.755c0.259,0.512,0.443,1.074,0.533,1.672c0.069,0.46,0.135,0.921,0.198,1.383
		c0.081,0.6,0.062,1.191-0.045,1.755c0.234,0.524,0.39,1.094,0.45,1.697c0.046,0.46,0.089,0.92,0.129,1.381
		c0.052,0.606,0.005,1.197-0.13,1.756c0.209,0.536,0.336,1.113,0.367,1.718c0.023,0.461,0.043,0.923,0.061,1.385
		c0.023,0.606-0.054,1.195-0.215,1.747c0.183,0.548,0.283,1.134,0.283,1.744v0.197c0,0.395-0.002,0.789-0.007,1.183
		c-0.007,0.606-0.112,1.187-0.299,1.73c0.155,0.552,0.226,1.138,0.198,1.742c-0.021,0.465-0.046,0.93-0.074,1.393
		c-0.037,0.604-0.17,1.179-0.383,1.712c0.129,0.56,0.171,1.149,0.114,1.752c-0.044,0.461-0.092,0.921-0.142,1.38
		c-0.066,0.605-0.228,1.176-0.468,1.7c0.101,0.566,0.114,1.157,0.027,1.756c-0.067,0.458-0.137,0.916-0.209,1.373
		c-0.095,0.6-0.284,1.162-0.551,1.672c0.072,0.57,0.057,1.162-0.06,1.757c-0.09,0.456-0.182,0.91-0.277,1.363
		c-0.125,0.593-0.342,1.144-0.632,1.64c0.045,0.572-0.001,1.161-0.146,1.749c-0.112,0.453-0.228,0.905-0.347,1.356
		c-0.155,0.585-0.398,1.123-0.712,1.603c0.016,0.573-0.058,1.16-0.232,1.74c-0.135,0.449-0.273,0.896-0.416,1.342
		c-0.183,0.578-0.453,1.104-0.791,1.568c-0.012,0.577-0.115,1.162-0.319,1.736c-0.156,0.436-0.314,0.871-0.475,1.305
		c-0.213,0.573-0.511,1.09-0.875,1.541c-0.041,0.574-0.173,1.151-0.404,1.712c-0.178,0.431-0.359,0.861-0.544,1.289
		c-0.24,0.558-0.561,1.056-0.944,1.485c-0.069,0.571-0.229,1.14-0.487,1.689c-0.199,0.421-0.401,0.841-0.606,1.259
		c-0.267,0.546-0.612,1.027-1.016,1.438c-0.096,0.568-0.284,1.129-0.571,1.665c-0.22,0.412-0.443,0.823-0.67,1.232
		c-0.293,0.528-0.66,0.988-1.081,1.377c-0.124,0.56-0.339,1.111-0.65,1.631c-0.24,0.401-0.482,0.8-0.729,1.199
		c-0.319,0.515-0.709,0.958-1.149,1.326c-0.152,0.555-0.394,1.094-0.732,1.599c-0.258,0.387-0.519,0.771-0.783,1.154
		c-0.343,0.498-0.755,0.923-1.213,1.27c-0.179,0.548-0.449,1.076-0.811,1.565c-0.275,0.37-0.552,0.74-0.831,1.106
		c-0.368,0.484-0.8,0.89-1.277,1.214c-0.206,0.537-0.499,1.05-0.883,1.519c-0.293,0.359-0.59,0.714-0.888,1.069
		c-0.39,0.464-0.842,0.847-1.332,1.147c-0.231,0.526-0.551,1.026-0.957,1.476c-0.312,0.345-0.626,0.687-0.942,1.027
		c-0.412,0.443-0.879,0.802-1.382,1.077c-0.256,0.513-0.598,0.996-1.025,1.424c-0.328,0.329-0.657,0.656-0.99,0.98
		c-0.433,0.423-0.919,0.76-1.435,1.01c-0.281,0.5-0.646,0.966-1.094,1.373c-0.343,0.312-0.688,0.623-1.036,0.93
		c-0.453,0.401-0.954,0.714-1.48,0.939c-0.306,0.487-0.693,0.934-1.162,1.319c-0.355,0.293-0.712,0.584-1.071,0.872
		c-0.473,0.381-0.991,0.67-1.531,0.871c-0.328,0.469-0.734,0.895-1.218,1.256c-0.372,0.279-0.747,0.554-1.125,0.828
		c-0.489,0.354-1.018,0.616-1.564,0.789c-0.351,0.454-0.78,0.86-1.281,1.199c-0.385,0.259-0.771,0.515-1.16,0.769
		c-0.506,0.33-1.045,0.566-1.599,0.712c-0.373,0.437-0.822,0.822-1.341,1.136c-0.395,0.239-0.793,0.475-1.191,0.709
		c-0.522,0.306-1.073,0.515-1.634,0.634c-0.394,0.418-0.861,0.782-1.395,1.069c-0.404,0.218-0.811,0.433-1.218,0.646
		c-0.538,0.282-1.101,0.465-1.669,0.557c-0.414,0.397-0.897,0.736-1.442,0.996c-0.418,0.2-0.838,0.397-1.26,0.591
		c-0.548,0.252-1.115,0.405-1.683,0.469c-0.431,0.376-0.93,0.69-1.487,0.924c-0.429,0.18-0.861,0.357-1.294,0.531
		c-0.56,0.224-1.135,0.349-1.706,0.385c-0.451,0.356-0.966,0.647-1.536,0.853c-0.436,0.158-0.875,0.314-1.315,0.466
		c-0.573,0.198-1.156,0.295-1.73,0.303c-0.469,0.334-0.999,0.599-1.58,0.777c-0.443,0.136-0.888,0.268-1.334,0.398
		c-0.581,0.169-1.172,0.235-1.74,0.216c-0.486,0.31-1.028,0.549-1.616,0.698c-0.449,0.114-0.9,0.225-1.351,0.332
		c-0.59,0.141-1.179,0.181-1.752,0.13c-0.498,0.286-1.051,0.498-1.646,0.617c-0.453,0.091-0.908,0.179-1.363,0.264
		c-0.597,0.112-1.19,0.122-1.762,0.044c-0.512,0.261-1.075,0.445-1.675,0.535c-0.457,0.068-0.915,0.134-1.374,0.197
		c-0.603,0.083-1.193,0.063-1.758-0.042c-0.526,0.235-1.096,0.39-1.7,0.451c-0.46,0.046-0.92,0.089-1.381,0.129
		c-0.605,0.054-1.195,0.006-1.755-0.129c-0.534,0.208-1.109,0.336-1.713,0.367c-0.464,0.024-0.928,0.045-1.394,0.063
		c-0.601,0.023-1.192-0.053-1.744-0.214c-0.548,0.183-1.135,0.283-1.745,0.283l-0.223,0.001
		C208.635,219.617,208.624,219.617,208.613,219.617z M208.869,208.626c0.534,0,1.05,0.076,1.539,0.219
		c0.485-0.163,1.003-0.259,1.541-0.28c0.412-0.015,0.823-0.034,1.233-0.055c0.54-0.028,1.065,0.023,1.565,0.142
		c0.476-0.186,0.988-0.308,1.524-0.354c0.413-0.036,0.825-0.075,1.237-0.116c0.535-0.053,1.06-0.028,1.562,0.066
		c0.467-0.208,0.972-0.356,1.504-0.428c0.411-0.056,0.82-0.114,1.229-0.176c0.531-0.079,1.058-0.08,1.565-0.011
		c0.455-0.231,0.951-0.402,1.478-0.501c0.407-0.076,0.812-0.155,1.217-0.237c0.528-0.105,1.054-0.134,1.564-0.089
		c0.445-0.255,0.934-0.451,1.458-0.576c0.402-0.096,0.803-0.195,1.202-0.295c0.522-0.131,1.045-0.184,1.553-0.165
		c0.432-0.277,0.912-0.497,1.429-0.648c0.396-0.115,0.792-0.233,1.186-0.354c0.514-0.157,1.033-0.235,1.545-0.242
		c0.418-0.297,0.884-0.54,1.394-0.716c0.389-0.134,0.776-0.272,1.164-0.412c0.506-0.184,1.022-0.288,1.533-0.319
		c0.405-0.319,0.861-0.586,1.363-0.788c0.378-0.151,0.754-0.306,1.129-0.463c0.496-0.208,1.005-0.337,1.513-0.394
		c0.387-0.337,0.827-0.625,1.317-0.849c0.372-0.171,0.743-0.345,1.113-0.522c0.485-0.231,0.986-0.386,1.491-0.468
		c0.367-0.352,0.791-0.66,1.264-0.907c0.368-0.193,0.734-0.387,1.099-0.582c0.471-0.255,0.965-0.432,1.464-0.539
		c0.351-0.372,0.761-0.702,1.225-0.974c0.356-0.208,0.71-0.419,1.064-0.632c0.459-0.278,0.943-0.48,1.437-0.61
		c0.333-0.39,0.727-0.74,1.178-1.034c0.345-0.225,0.687-0.452,1.028-0.682c0.446-0.301,0.921-0.526,1.409-0.681
		c0.314-0.406,0.69-0.774,1.127-1.091c0.332-0.24,0.661-0.483,0.99-0.729c0.432-0.323,0.897-0.573,1.379-0.752
		c0.292-0.418,0.648-0.802,1.065-1.138c0.323-0.26,0.645-0.522,0.966-0.786c0.414-0.342,0.864-0.613,1.334-0.815
		c0.273-0.434,0.612-0.838,1.016-1.195c0.309-0.273,0.615-0.548,0.92-0.825c0.398-0.363,0.835-0.656,1.296-0.88
		c0.251-0.447,0.57-0.866,0.955-1.243c0.295-0.288,0.588-0.578,0.879-0.87c0.381-0.382,0.804-0.697,1.254-0.944
		c0.229-0.46,0.528-0.896,0.897-1.291c0.281-0.302,0.559-0.606,0.836-0.912c0.361-0.399,0.767-0.732,1.203-1
		c0.206-0.469,0.482-0.917,0.829-1.329c0.267-0.317,0.531-0.635,0.794-0.955c0.341-0.418,0.732-0.771,1.155-1.06
		c0.183-0.477,0.436-0.937,0.762-1.364c0.252-0.332,0.501-0.663,0.749-0.997c0.32-0.432,0.692-0.804,1.1-1.113
		c0.16-0.489,0.392-0.963,0.699-1.408c0.233-0.339,0.465-0.681,0.694-1.024c0.299-0.448,0.654-0.838,1.047-1.168
		c0.136-0.496,0.345-0.981,0.63-1.441c0.216-0.348,0.429-0.699,0.64-1.052c0.277-0.464,0.612-0.872,0.99-1.221
		c0.112-0.504,0.297-1.001,0.56-1.475c0.199-0.359,0.395-0.72,0.589-1.083c0.254-0.476,0.568-0.899,0.928-1.265
		c0.087-0.506,0.246-1.008,0.483-1.493c0.181-0.37,0.361-0.743,0.537-1.116c0.231-0.489,0.525-0.928,0.867-1.312
		c0.061-0.511,0.197-1.021,0.41-1.517c0.163-0.379,0.323-0.759,0.48-1.141c0.206-0.5,0.478-0.953,0.801-1.354
		c0.036-0.509,0.145-1.022,0.331-1.525c0.145-0.39,0.288-0.781,0.427-1.174c0.181-0.507,0.429-0.972,0.73-1.387
		c0.011-0.516,0.094-1.039,0.259-1.555c0.124-0.392,0.246-0.785,0.365-1.18c0.155-0.517,0.38-0.993,0.66-1.423
		c-0.014-0.513,0.043-1.037,0.181-1.559c0.105-0.396,0.206-0.794,0.305-1.192c0.129-0.524,0.33-1.01,0.589-1.454
		c-0.04-0.511-0.008-1.036,0.103-1.563c0.085-0.403,0.167-0.808,0.247-1.213c0.104-0.528,0.28-1.023,0.516-1.477
		c-0.065-0.507-0.059-1.031,0.025-1.562c0.065-0.408,0.127-0.816,0.188-1.226c0.077-0.533,0.229-1.037,0.443-1.504
		c-0.09-0.502-0.11-1.026-0.052-1.559c0.045-0.411,0.087-0.823,0.126-1.236c0.051-0.537,0.178-1.047,0.368-1.523
		c-0.115-0.5-0.161-1.025-0.128-1.563c0.025-0.41,0.047-0.822,0.066-1.233c0.025-0.539,0.127-1.056,0.294-1.542
		c-0.139-0.494-0.21-1.015-0.203-1.554c0.004-0.35,0.006-0.701,0.006-1.052v-0.197c0-0.535,0.076-1.052,0.219-1.542
		c-0.162-0.485-0.258-1.001-0.279-1.538c-0.016-0.414-0.034-0.828-0.054-1.241c-0.027-0.538,0.024-1.061,0.144-1.56
		c-0.186-0.476-0.307-0.987-0.354-1.522c-0.036-0.413-0.074-0.825-0.115-1.237c-0.054-0.537-0.028-1.062,0.067-1.566
		c-0.209-0.469-0.356-0.974-0.428-1.508c-0.055-0.408-0.113-0.815-0.174-1.22c-0.08-0.533-0.081-1.06-0.012-1.568
		c-0.231-0.458-0.403-0.955-0.502-1.485c-0.075-0.407-0.154-0.813-0.235-1.217c-0.105-0.527-0.131-1.052-0.087-1.562
		c-0.253-0.444-0.448-0.93-0.573-1.453c-0.096-0.402-0.194-0.803-0.295-1.203c-0.132-0.522-0.184-1.045-0.165-1.557
		c-0.276-0.432-0.495-0.91-0.645-1.427c-0.116-0.396-0.233-0.792-0.354-1.186c-0.158-0.515-0.235-1.034-0.242-1.546
		c-0.296-0.418-0.539-0.883-0.714-1.391c-0.134-0.39-0.272-0.778-0.412-1.166c-0.184-0.507-0.288-1.024-0.319-1.537
		c-0.316-0.401-0.581-0.854-0.782-1.352c-0.154-0.383-0.31-0.765-0.47-1.146c-0.206-0.495-0.335-1.002-0.391-1.509
		c-0.336-0.386-0.623-0.826-0.847-1.314c-0.171-0.372-0.345-0.743-0.521-1.113c-0.232-0.485-0.387-0.988-0.469-1.495
		c-0.354-0.369-0.661-0.794-0.91-1.27c-0.19-0.365-0.383-0.729-0.578-1.091c-0.255-0.473-0.434-0.968-0.54-1.468
		c-0.372-0.352-0.702-0.762-0.973-1.227c-0.207-0.354-0.417-0.707-0.628-1.058c-0.279-0.46-0.48-0.945-0.611-1.44
		c-0.39-0.334-0.741-0.728-1.035-1.18c-0.225-0.345-0.452-0.688-0.682-1.03c-0.299-0.446-0.525-0.921-0.679-1.408
		c-0.403-0.312-0.768-0.685-1.083-1.118c-0.244-0.336-0.489-0.67-0.737-1.003c-0.321-0.431-0.57-0.894-0.748-1.374
		c-0.42-0.294-0.806-0.651-1.142-1.071c-0.258-0.323-0.518-0.643-0.78-0.961c-0.343-0.416-0.614-0.867-0.816-1.339
		c-0.435-0.273-0.839-0.613-1.196-1.018c-0.272-0.308-0.546-0.613-0.822-0.918c-0.363-0.398-0.656-0.836-0.88-1.297
		c-0.445-0.251-0.864-0.569-1.239-0.954c-0.29-0.296-0.581-0.591-0.873-0.883c-0.382-0.381-0.696-0.804-0.942-1.253
		c-0.458-0.229-0.893-0.528-1.286-0.895c-0.302-0.281-0.606-0.559-0.911-0.836c-0.4-0.362-0.734-0.769-1.003-1.208
		c-0.469-0.207-0.917-0.484-1.328-0.831c-0.315-0.266-0.633-0.531-0.953-0.793c-0.417-0.342-0.77-0.732-1.06-1.157
		c-0.478-0.184-0.94-0.438-1.368-0.765c-0.329-0.251-0.659-0.499-0.99-0.746c-0.433-0.321-0.805-0.694-1.115-1.104
		c-0.488-0.16-0.962-0.392-1.407-0.699c-0.339-0.234-0.681-0.465-1.023-0.695c-0.448-0.3-0.838-0.654-1.168-1.049
		c-0.495-0.136-0.977-0.343-1.434-0.626c-0.353-0.218-0.708-0.434-1.064-0.648c-0.462-0.277-0.868-0.612-1.215-0.988
		c-0.501-0.112-0.996-0.296-1.468-0.557c-0.361-0.2-0.723-0.398-1.089-0.593c-0.475-0.255-0.899-0.568-1.264-0.929
		c-0.506-0.087-1.008-0.246-1.492-0.484c-0.372-0.183-0.746-0.363-1.121-0.54c-0.487-0.231-0.924-0.524-1.307-0.865
		c-0.509-0.062-1.018-0.197-1.513-0.409c-0.379-0.164-0.761-0.325-1.144-0.483c-0.499-0.206-0.952-0.478-1.352-0.801
		c-0.512-0.036-1.027-0.145-1.532-0.334c-0.389-0.145-0.778-0.287-1.169-0.427c-0.507-0.182-0.972-0.43-1.387-0.732
		c-0.515-0.011-1.037-0.095-1.553-0.259c-0.393-0.125-0.789-0.248-1.184-0.367c-0.515-0.156-0.99-0.38-1.418-0.66
		c-0.513,0.012-1.033-0.044-1.552-0.18c-0.401-0.105-0.801-0.208-1.203-0.309c-0.522-0.13-1.007-0.33-1.449-0.589
		c-0.511,0.037-1.037,0.006-1.562-0.104c-0.403-0.085-0.808-0.168-1.213-0.248c-0.528-0.104-1.023-0.281-1.477-0.517
		c-0.511,0.065-1.037,0.058-1.568-0.027c-0.406-0.065-0.813-0.127-1.221-0.187c-0.532-0.078-1.036-0.229-1.501-0.443
		c-0.507,0.091-1.033,0.109-1.57,0.05c-0.408-0.045-0.817-0.088-1.227-0.127c-0.536-0.052-1.047-0.178-1.522-0.369
		c-0.501,0.114-1.026,0.16-1.564,0.127c-0.41-0.025-0.821-0.047-1.232-0.067c-0.539-0.025-1.056-0.127-1.542-0.295
		c-0.493,0.138-1.019,0.211-1.552,0.203c-0.371-0.005-0.743-0.007-1.117-0.007h-0.132c-0.536,0-1.054-0.077-1.544-0.22
		c-0.488,0.163-1.007,0.259-1.547,0.278c-0.412,0.014-0.824,0.032-1.234,0.053c-0.537,0.027-1.061-0.025-1.559-0.144
		c-0.478,0.186-0.99,0.307-1.526,0.352c-0.412,0.035-0.822,0.073-1.232,0.114c-0.537,0.053-1.063,0.027-1.567-0.068
		c-0.467,0.208-0.972,0.354-1.504,0.426c-0.411,0.055-0.82,0.113-1.228,0.175c-0.532,0.079-1.058,0.079-1.564,0.009
		c-0.457,0.231-0.955,0.402-1.484,0.5c-0.405,0.075-0.811,0.153-1.214,0.234c-0.528,0.105-1.054,0.133-1.563,0.087
		c-0.446,0.255-0.936,0.451-1.462,0.575c-0.4,0.094-0.798,0.192-1.197,0.292c-0.522,0.132-1.043,0.185-1.558,0.164
		c-0.432,0.275-0.91,0.495-1.427,0.645c-0.396,0.114-0.791,0.232-1.184,0.352c-0.515,0.157-1.036,0.235-1.548,0.241
		c-0.418,0.296-0.884,0.539-1.393,0.714c-0.39,0.134-0.78,0.272-1.169,0.412c-0.506,0.182-1.021,0.285-1.531,0.316
		c-0.402,0.316-0.855,0.581-1.354,0.781c-0.382,0.153-0.763,0.309-1.144,0.467c-0.496,0.207-1.004,0.336-1.512,0.392
		c-0.385,0.334-0.824,0.62-1.31,0.844c-0.374,0.172-0.748,0.347-1.119,0.524c-0.485,0.231-0.987,0.385-1.491,0.465
		c-0.368,0.354-0.794,0.661-1.27,0.909c-0.365,0.19-0.73,0.383-1.093,0.578c-0.473,0.254-0.967,0.432-1.468,0.538
		c-0.352,0.372-0.762,0.701-1.226,0.972c-0.355,0.207-0.708,0.416-1.059,0.628c-0.461,0.278-0.946,0.48-1.442,0.611
		c-0.333,0.388-0.726,0.736-1.176,1.029c-0.346,0.225-0.689,0.453-1.031,0.682c-0.447,0.3-0.922,0.526-1.411,0.68
		c-0.314,0.405-0.69,0.773-1.127,1.088c-0.334,0.241-0.665,0.484-0.995,0.729c-0.432,0.322-0.896,0.57-1.376,0.749
		c-0.294,0.421-0.653,0.807-1.074,1.144c-0.322,0.257-0.641,0.517-0.959,0.778c-0.416,0.342-0.866,0.612-1.338,0.813
		c-0.273,0.434-0.613,0.838-1.018,1.195c-0.308,0.272-0.615,0.546-0.919,0.822c-0.4,0.363-0.837,0.656-1.299,0.879
		c-0.251,0.446-0.57,0.864-0.955,1.239c-0.296,0.288-0.59,0.579-0.881,0.87c-0.381,0.381-0.804,0.695-1.254,0.941
		c-0.229,0.458-0.528,0.893-0.895,1.287c-0.282,0.302-0.561,0.606-0.839,0.912c-0.362,0.4-0.769,0.733-1.208,1.001
		c-0.207,0.469-0.484,0.916-0.831,1.327c-0.267,0.316-0.532,0.634-0.795,0.954c-0.342,0.416-0.732,0.769-1.157,1.057
		c-0.184,0.479-0.439,0.941-0.767,1.369c-0.251,0.327-0.498,0.657-0.745,0.988c-0.322,0.432-0.695,0.805-1.105,1.114
		c-0.16,0.485-0.391,0.957-0.696,1.4c-0.235,0.342-0.469,0.685-0.7,1.03c-0.3,0.447-0.654,0.837-1.048,1.165
		c-0.136,0.494-0.345,0.977-0.628,1.434c-0.219,0.353-0.435,0.707-0.649,1.063c-0.278,0.462-0.612,0.868-0.99,1.215
		c-0.112,0.5-0.296,0.993-0.557,1.464c-0.2,0.361-0.398,0.724-0.593,1.089c-0.255,0.476-0.57,0.9-0.93,1.266
		c-0.087,0.506-0.247,1.007-0.485,1.491c-0.183,0.372-0.363,0.745-0.541,1.12c-0.231,0.487-0.525,0.924-0.866,1.307
		c-0.062,0.509-0.197,1.018-0.41,1.512c-0.164,0.38-0.326,0.762-0.485,1.145c-0.207,0.498-0.479,0.951-0.802,1.35
		c-0.037,0.513-0.147,1.029-0.336,1.535c-0.145,0.387-0.287,0.775-0.427,1.165c-0.182,0.508-0.431,0.973-0.734,1.388
		c-0.012,0.514-0.096,1.035-0.259,1.55c-0.125,0.394-0.248,0.789-0.368,1.185c-0.156,0.515-0.381,0.991-0.661,1.42
		c0.014,0.512-0.045,1.035-0.182,1.555c-0.105,0.399-0.208,0.799-0.309,1.2c-0.131,0.522-0.331,1.007-0.59,1.448
		c0.039,0.511,0.006,1.035-0.105,1.561c-0.086,0.404-0.169,0.809-0.25,1.215c-0.105,0.528-0.281,1.022-0.518,1.476
		c0.064,0.509,0.058,1.034-0.028,1.565c-0.066,0.407-0.129,0.815-0.189,1.223c-0.078,0.533-0.23,1.036-0.445,1.501
		c0.089,0.505,0.109,1.03,0.049,1.565c-0.045,0.409-0.089,0.82-0.128,1.231c-0.052,0.536-0.179,1.047-0.37,1.522
		c0.114,0.5,0.159,1.025,0.125,1.564c-0.025,0.41-0.048,0.821-0.067,1.233c-0.026,0.538-0.128,1.056-0.296,1.541
		c0.138,0.494,0.209,1.015,0.202,1.553c-0.005,0.392-0.008,0.785-0.008,1.179v0.065c0,0.538-0.078,1.058-0.221,1.549
		c0.162,0.488,0.258,1.007,0.277,1.548c0.014,0.412,0.032,0.823,0.052,1.233c0.027,0.538-0.026,1.061-0.145,1.56
		c0.185,0.478,0.306,0.989,0.351,1.526c0.035,0.412,0.072,0.822,0.112,1.233c0.053,0.536,0.027,1.061-0.069,1.564
		c0.208,0.468,0.354,0.973,0.426,1.506c0.055,0.41,0.113,0.82,0.174,1.229c0.079,0.532,0.078,1.058,0.008,1.564
		c0.231,0.458,0.401,0.955,0.499,1.484c0.074,0.405,0.153,0.81,0.233,1.213c0.105,0.528,0.131,1.053,0.085,1.564
		c0.254,0.445,0.449,0.935,0.572,1.459c0.094,0.401,0.192,0.801,0.292,1.199c0.131,0.522,0.183,1.045,0.163,1.558
		c0.275,0.432,0.494,0.91,0.643,1.427c0.114,0.396,0.232,0.792,0.352,1.186c0.157,0.515,0.234,1.035,0.24,1.547
		c0.295,0.418,0.538,0.884,0.712,1.392c0.134,0.391,0.272,0.782,0.412,1.171c0.182,0.506,0.284,1.021,0.315,1.533
		c0.316,0.402,0.581,0.856,0.78,1.354c0.153,0.382,0.308,0.763,0.467,1.144c0.206,0.496,0.335,1.004,0.39,1.512
		c0.334,0.385,0.619,0.824,0.843,1.311c0.172,0.375,0.346,0.749,0.524,1.121c0.23,0.485,0.383,0.986,0.464,1.491
		c0.354,0.369,0.661,0.795,0.909,1.272c0.189,0.365,0.381,0.729,0.576,1.091c0.254,0.473,0.431,0.967,0.537,1.467
		c0.372,0.353,0.701,0.764,0.972,1.23c0.206,0.354,0.415,0.707,0.626,1.058c0.278,0.462,0.48,0.948,0.61,1.444
		c0.387,0.332,0.734,0.724,1.026,1.173c0.226,0.347,0.453,0.691,0.683,1.034c0.3,0.447,0.526,0.923,0.679,1.411
		c0.405,0.314,0.773,0.692,1.088,1.129c0.24,0.334,0.483,0.665,0.728,0.994c0.322,0.432,0.57,0.897,0.748,1.378
		c0.418,0.293,0.802,0.65,1.137,1.068c0.259,0.324,0.52,0.646,0.784,0.967c0.341,0.416,0.611,0.866,0.811,1.337
		c0.434,0.274,0.837,0.613,1.193,1.018c0.272,0.31,0.547,0.616,0.824,0.922c0.362,0.399,0.654,0.837,0.877,1.298
		c0.446,0.253,0.865,0.572,1.241,0.958c0.288,0.296,0.578,0.59,0.869,0.882c0.38,0.381,0.693,0.804,0.939,1.253
		c0.46,0.231,0.894,0.53,1.289,0.9c0.301,0.282,0.604,0.56,0.91,0.838c0.398,0.362,0.73,0.768,0.997,1.205
		c0.471,0.208,0.919,0.486,1.331,0.835c0.314,0.266,0.63,0.529,0.947,0.791c0.418,0.343,0.771,0.734,1.06,1.16
		c0.476,0.183,0.934,0.436,1.36,0.762c0.33,0.253,0.663,0.504,0.997,0.752c0.432,0.322,0.804,0.695,1.113,1.105
		c0.489,0.162,0.963,0.394,1.408,0.703c0.337,0.233,0.676,0.465,1.018,0.692c0.449,0.301,0.838,0.656,1.168,1.051
		c0.493,0.136,0.975,0.344,1.432,0.628c0.353,0.219,0.707,0.436,1.064,0.65c0.462,0.278,0.868,0.613,1.214,0.99
		c0.502,0.112,0.996,0.298,1.469,0.561c0.36,0.2,0.721,0.397,1.085,0.592c0.475,0.255,0.899,0.57,1.264,0.931
		c0.504,0.087,1.005,0.247,1.487,0.484c0.374,0.183,0.747,0.364,1.124,0.543c0.487,0.231,0.924,0.526,1.307,0.868
		c0.509,0.063,1.016,0.198,1.511,0.411c0.38,0.164,0.761,0.326,1.143,0.484c0.499,0.208,0.952,0.48,1.352,0.804
		c0.511,0.038,1.027,0.147,1.531,0.336c0.387,0.145,0.776,0.288,1.166,0.427c0.509,0.182,0.975,0.432,1.39,0.736
		c0.515,0.012,1.036,0.096,1.552,0.261c0.393,0.125,0.789,0.248,1.185,0.368c0.515,0.156,0.99,0.382,1.418,0.663
		c0.506-0.015,1.033,0.045,1.552,0.183c0.4,0.106,0.799,0.209,1.2,0.31c0.522,0.131,1.006,0.332,1.447,0.591
		c0.515-0.039,1.04-0.006,1.566,0.107c0.401,0.086,0.803,0.169,1.206,0.249c0.529,0.105,1.025,0.283,1.48,0.52
		c0.511-0.065,1.036-0.057,1.567,0.029c0.405,0.066,0.811,0.129,1.217,0.188c0.534,0.078,1.039,0.231,1.506,0.446
		c0.506-0.089,1.03-0.109,1.566-0.048c0.411,0.046,0.822,0.089,1.234,0.129c0.535,0.052,1.044,0.18,1.519,0.371
		c0.498-0.114,1.02-0.16,1.56-0.125c0.413,0.025,0.826,0.048,1.241,0.068c0.538,0.027,1.053,0.129,1.537,0.297
		c0.492-0.137,0.998-0.217,1.549-0.2c0.414,0.005,0.829,0.008,1.244,0.008L208.869,208.626z"/>
	<path d="M120.342,329.947C53.434,329.947-1,275.513-1,208.605c0-27.835,9.669-55.021,27.225-76.55
		c17.299-21.213,41.482-36.102,68.097-41.923c1.829-0.4,3.735,0.158,5.059,1.482c1.324,1.323,1.883,3.23,1.484,5.059
		c-1.732,7.933-2.61,15.896-2.61,23.669c0,60.848,49.504,110.352,110.352,110.352c7.783,0,15.747-0.879,23.671-2.615
		c1.831-0.4,3.737,0.158,5.061,1.482c1.325,1.324,1.883,3.231,1.483,5.061c-5.825,26.614-20.715,50.799-41.928,68.099
		C175.362,320.277,148.176,329.947,120.342,329.947z M88.549,102.977C42.564,116.833,9.99,159.981,9.99,208.605
		c0,60.848,49.504,110.351,110.352,110.351c48.623,0,91.77-32.571,105.632-78.56c-5.823,0.855-11.636,1.286-17.369,1.286
		c-66.908,0-121.341-54.434-121.341-121.341C87.264,114.615,87.695,108.803,88.549,102.977z"/>
	<path d="M208.605,169.969c-15.198,0-27.561-12.364-27.561-27.561c0-3.035,2.46-5.495,5.495-5.495c3.035,0,5.495,2.46,5.495,5.495
		c0,9.137,7.434,16.571,16.571,16.571c9.137,0,16.571-7.434,16.571-16.571s-7.434-16.571-16.571-16.571
		c-15.198,0-27.561-12.364-27.561-27.561s12.364-27.561,27.561-27.561c15.197,0,27.561,12.364,27.561,27.561
		c0,3.035-2.46,5.495-5.495,5.495c-3.035,0-5.495-2.46-5.495-5.495c0-9.138-7.434-16.571-16.571-16.571
		c-9.138,0-16.571,7.434-16.571,16.571c0,9.137,7.434,16.571,16.571,16.571c15.197,0,27.561,12.364,27.561,27.561
		C236.166,157.604,223.803,169.969,208.605,169.969z"/>
	<path d="M208.605,181.001c-3.035,0-5.495-2.46-5.495-5.495V65.177c0-3.035,2.46-5.495,5.495-5.495s5.495,2.46,5.495,5.495v110.33
		C214.1,178.541,211.641,181.001,208.605,181.001z"/>
	<path d="M120.342,258.232c-15.197,0-27.561-12.364-27.561-27.561c0-3.035,2.46-5.495,5.495-5.495s5.495,2.46,5.495,5.495
		c0,9.138,7.434,16.571,16.571,16.571s16.571-7.434,16.571-16.571c0-9.137-7.434-16.571-16.571-16.571
		c-15.197,0-27.561-12.364-27.561-27.561c0-7.193,2.755-14,7.758-19.168c2.111-2.181,5.59-2.237,7.77-0.125
		c2.181,2.111,2.237,5.589,0.126,7.77c-3.008,3.108-4.664,7.2-4.664,11.525c0,9.138,7.434,16.571,16.571,16.571
		c15.197,0,27.561,12.364,27.561,27.561S135.539,258.232,120.342,258.232z"/>
	<path d="M120.342,269.266c-3.035,0-5.495-2.46-5.495-5.495v-68.393c0-3.035,2.46-5.495,5.495-5.495c3.035,0,5.495,2.46,5.495,5.495
		v68.393C125.837,266.806,123.377,269.266,120.342,269.266z"/>
	<path d="M92.826,129.968c-2.399,0-4.462-1.549-5.201-3.728c-0.014,0-0.027,0-0.041,0c-2.225,0-4.319-1.361-5.146-3.568
		c-1.065-2.842,0.375-6.009,3.217-7.074c1.793-0.672,3.662-1.309,5.556-1.893c1.678-0.518,3.501-0.202,4.908,0.849
		c1.406,1.05,2.226,2.71,2.206,4.465c-0.004,0.343-0.026,0.681-0.051,1.018c-0.008,0.103-0.018,0.206-0.02,0.31
		c0,1.371,0.023,2.658,0.068,3.927c0.109,3.033-2.261,5.58-5.293,5.69C92.96,129.967,92.893,129.968,92.826,129.968z"/>
	<path d="M27.378,201.777c-0.228,0-0.457-0.014-0.688-0.043c-3.011-0.376-5.147-3.123-4.771-6.134l0.031-0.237
		c0.089-0.659,0.292-1.274,0.585-1.829c-0.114-0.621-0.122-1.273-0.008-1.931c0.087-0.501,0.177-1,0.272-1.497
		c0.124-0.655,0.36-1.261,0.684-1.801c-0.08-0.626-0.053-1.277,0.096-1.927c0.114-0.495,0.231-0.987,0.352-1.48
		c0.16-0.648,0.428-1.241,0.781-1.764c-0.046-0.628,0.016-1.275,0.2-1.916c0.14-0.489,0.284-0.976,0.432-1.462
		c0.195-0.639,0.495-1.217,0.875-1.72c-0.012-0.63,0.085-1.274,0.304-1.904c0.167-0.48,0.337-0.959,0.511-1.437
		c0.229-0.627,0.56-1.187,0.967-1.668c0.022-0.632,0.155-1.27,0.408-1.89c0.192-0.469,0.388-0.935,0.586-1.402
		c0.262-0.614,0.623-1.156,1.057-1.615c0.056-0.629,0.223-1.258,0.509-1.862c0.217-0.459,0.438-0.916,0.663-1.371
		c0.295-0.599,0.685-1.12,1.142-1.554c0.09-0.624,0.29-1.242,0.606-1.829c0.242-0.448,0.489-0.895,0.738-1.338
		c0.326-0.581,0.743-1.08,1.222-1.489c0.123-0.618,0.356-1.225,0.704-1.794c0.266-0.434,0.535-0.865,0.807-1.294
		c0.357-0.564,0.8-1.04,1.301-1.423c0.156-0.611,0.421-1.205,0.8-1.755c0.288-0.418,0.58-0.835,0.875-1.249
		c0.387-0.543,0.855-0.996,1.376-1.35c0.189-0.601,0.485-1.179,0.891-1.707c0.311-0.403,0.625-0.804,0.942-1.202
		c0.416-0.522,0.906-0.948,1.445-1.275c0.221-0.591,0.548-1.153,0.983-1.659c0.332-0.385,0.666-0.768,1.003-1.148
		c0.443-0.498,0.955-0.898,1.511-1.196c0.252-0.578,0.608-1.122,1.07-1.605c0.351-0.367,0.705-0.732,1.063-1.093
		c0.469-0.475,1.003-0.847,1.573-1.115c0.283-0.564,0.667-1.089,1.154-1.546c0.37-0.347,0.743-0.692,1.119-1.035
		c0.493-0.449,1.046-0.791,1.63-1.029c0.312-0.548,0.724-1.051,1.234-1.481c0.389-0.328,0.78-0.653,1.173-0.975
		c2.35-1.921,5.811-1.573,7.732,0.776c1.921,2.35,1.573,5.812-0.776,7.732c-0.35,0.286-0.698,0.575-1.043,0.866
		c-0.454,0.383-0.952,0.68-1.474,0.892c-0.279,0.49-0.639,0.944-1.078,1.345c-0.334,0.304-0.667,0.611-0.996,0.921
		c-0.432,0.406-0.914,0.729-1.424,0.968c-0.252,0.504-0.587,0.977-1.004,1.4c-0.317,0.322-0.632,0.646-0.945,0.972
		c-0.411,0.429-0.874,0.777-1.371,1.043c-0.226,0.517-0.535,1.008-0.93,1.453c-0.3,0.337-0.597,0.678-0.891,1.021
		c-0.387,0.45-0.831,0.822-1.312,1.115c-0.198,0.528-0.48,1.034-0.85,1.499c-0.281,0.352-0.559,0.707-0.834,1.064
		c-0.363,0.471-0.787,0.866-1.253,1.185c-0.169,0.537-0.424,1.058-0.769,1.541c-0.262,0.368-0.521,0.738-0.777,1.109
		c-0.337,0.489-0.739,0.906-1.186,1.248c-0.14,0.546-0.367,1.078-0.685,1.579c-0.242,0.381-0.48,0.763-0.716,1.148
		c-0.31,0.506-0.689,0.944-1.118,1.31c-0.111,0.553-0.308,1.097-0.599,1.615c-0.22,0.392-0.438,0.787-0.652,1.182
		c-0.283,0.522-0.637,0.981-1.046,1.369c-0.081,0.557-0.249,1.111-0.511,1.643c-0.2,0.405-0.396,0.811-0.59,1.22
		c-0.254,0.535-0.583,1.011-0.969,1.42c-0.05,0.56-0.188,1.122-0.421,1.667c-0.178,0.416-0.352,0.833-0.524,1.253
		c-0.224,0.548-0.527,1.039-0.889,1.467c-0.02,0.562-0.127,1.131-0.33,1.689c-0.155,0.423-0.305,0.847-0.453,1.273
		c-0.195,0.56-0.471,1.069-0.81,1.519c0.01,0.562-0.066,1.135-0.239,1.703c-0.131,0.43-0.259,0.862-0.383,1.295
		c-0.164,0.571-0.412,1.094-0.727,1.561c0.041,0.56-0.004,1.137-0.146,1.712c-0.107,0.437-0.212,0.875-0.313,1.316
		c-0.133,0.577-0.352,1.113-0.641,1.594c0.071,0.559,0.058,1.137-0.053,1.72c-0.084,0.442-0.164,0.885-0.241,1.33
		c-0.101,0.584-0.292,1.13-0.553,1.627c0.102,0.556,0.119,1.138,0.039,1.729l-0.017,0.126
		C32.477,199.742,30.109,201.777,27.378,201.777z"/>
	<path d="M118.631,307.867c-0.034,0-0.069,0-0.103-0.001c-0.506-0.01-1.012-0.022-1.517-0.039c-0.667-0.022-1.303-0.162-1.886-0.399
		c-0.606,0.175-1.25,0.248-1.917,0.201c-0.509-0.036-1.016-0.076-1.523-0.121c-0.664-0.058-1.29-0.231-1.861-0.5
		c-0.615,0.143-1.264,0.18-1.926,0.098c-0.504-0.063-1.007-0.131-1.509-0.202c-0.662-0.094-1.279-0.301-1.836-0.601
		c-0.62,0.109-1.269,0.112-1.925-0.006c-0.503-0.091-1.005-0.185-1.505-0.284c-0.655-0.129-1.259-0.369-1.797-0.698
		c-0.628,0.074-1.277,0.043-1.927-0.111c-0.495-0.118-0.988-0.239-1.48-0.364c-0.647-0.164-1.239-0.437-1.758-0.795
		c-0.632,0.04-1.279-0.026-1.919-0.216c-0.489-0.145-0.976-0.292-1.46-0.445c-0.636-0.199-1.211-0.503-1.71-0.887
		c-0.635,0.004-1.275-0.094-1.904-0.319c-0.48-0.171-0.958-0.345-1.435-0.523c-0.623-0.233-1.179-0.566-1.655-0.975
		c-0.632-0.027-1.268-0.165-1.885-0.423c-0.466-0.195-0.931-0.393-1.394-0.595c-0.61-0.266-1.146-0.63-1.601-1.064
		c-0.624-0.061-1.25-0.231-1.848-0.519c-0.459-0.221-0.915-0.445-1.37-0.674c-0.595-0.299-1.113-0.69-1.543-1.149
		c-0.62-0.094-1.235-0.297-1.817-0.617c-0.447-0.245-0.891-0.495-1.334-0.747c-0.579-0.331-1.074-0.751-1.48-1.232
		c-0.616-0.128-1.221-0.365-1.786-0.716c-0.431-0.268-0.86-0.54-1.287-0.815c-0.56-0.361-1.032-0.806-1.412-1.308
		c-0.61-0.161-1.201-0.43-1.748-0.812c-0.416-0.291-0.831-0.586-1.242-0.883c-0.539-0.39-0.987-0.86-1.339-1.382
		c-0.603-0.193-1.181-0.495-1.709-0.908c-0.398-0.312-0.793-0.626-1.186-0.943c-0.519-0.418-0.942-0.912-1.265-1.453
		c-0.588-0.225-1.147-0.554-1.649-0.992c-0.384-0.334-0.765-0.672-1.143-1.012c-0.496-0.445-0.891-0.961-1.186-1.519
		c-0.577-0.256-1.118-0.616-1.597-1.082c-0.365-0.354-0.727-0.71-1.086-1.069c-0.471-0.471-0.839-1.008-1.103-1.58
		c-0.56-0.284-1.081-0.672-1.533-1.16c-0.347-0.373-0.69-0.75-1.031-1.129c-0.445-0.496-0.784-1.051-1.018-1.636
		c-0.546-0.315-1.047-0.73-1.473-1.243c-0.325-0.391-0.648-0.785-0.967-1.18c-0.419-0.52-0.728-1.093-0.93-1.69
		c-0.528-0.344-1.007-0.786-1.405-1.321c-0.304-0.408-0.605-0.818-0.902-1.231c-0.391-0.542-0.67-1.131-0.839-1.739
		c-0.509-0.372-0.963-0.838-1.332-1.394c-0.283-0.423-0.56-0.849-0.836-1.277c-0.362-0.562-0.608-1.166-0.745-1.783
		c-0.49-0.399-0.918-0.891-1.258-1.467c-0.258-0.438-0.513-0.877-0.765-1.318c-0.332-0.581-0.545-1.198-0.648-1.821
		c-0.467-0.424-0.868-0.937-1.176-1.529c-0.235-0.452-0.467-0.906-0.696-1.363c-0.299-0.599-0.48-1.225-0.549-1.853
		c-0.445-0.45-0.818-0.985-1.094-1.594c-0.211-0.465-0.418-0.931-0.621-1.4c-0.266-0.613-0.412-1.248-0.447-1.879
		c-0.42-0.473-0.763-1.028-1.007-1.651c-0.185-0.475-0.367-0.952-0.544-1.431c-0.233-0.628-0.345-1.27-0.346-1.903
		c-0.394-0.496-0.708-1.069-0.917-1.707c-0.158-0.484-0.314-0.97-0.465-1.456c-0.198-0.638-0.275-1.285-0.242-1.915
		c-0.365-0.515-0.646-1.103-0.819-1.748c-0.132-0.489-0.26-0.981-0.384-1.473c-0.164-0.648-0.205-1.299-0.138-1.926
		c-0.336-0.533-0.585-1.135-0.723-1.787c-0.105-0.498-0.207-0.996-0.304-1.496c-0.128-0.656-0.134-1.307-0.034-1.928
		c-0.306-0.552-0.523-1.166-0.626-1.825c-0.078-0.502-0.153-1.005-0.223-1.509c-0.092-0.661-0.063-1.311,0.07-1.928
		c-0.277-0.568-0.459-1.193-0.526-1.857c-0.051-0.504-0.098-1.009-0.142-1.515c-0.057-0.665,0.007-1.314,0.175-1.922
		c-0.245-0.58-0.394-1.212-0.425-1.878c-0.025-0.508-0.044-1.017-0.06-1.526c-0.096-3.033,2.286-5.569,5.319-5.666
		c3.044-0.087,5.57,2.286,5.666,5.32c0.014,0.451,0.032,0.902,0.054,1.352c0.028,0.593-0.039,1.169-0.188,1.712
		c0.219,0.518,0.361,1.079,0.411,1.669c0.039,0.452,0.081,0.902,0.126,1.352c0.059,0.59,0.023,1.168-0.096,1.717
		c0.246,0.506,0.418,1.058,0.5,1.646c0.063,0.447,0.129,0.895,0.198,1.34c0.091,0.586,0.086,1.165-0.003,1.72
		c0.273,0.493,0.475,1.035,0.589,1.617c0.087,0.443,0.176,0.885,0.27,1.326c0.123,0.581,0.149,1.16,0.091,1.72
		c0.299,0.475,0.53,1.006,0.675,1.58c0.111,0.44,0.226,0.877,0.343,1.314c0.154,0.573,0.211,1.147,0.183,1.71
		c0.325,0.459,0.584,0.977,0.76,1.542c0.135,0.435,0.273,0.868,0.415,1.299c0.185,0.564,0.273,1.137,0.275,1.7
		c0.35,0.442,0.639,0.946,0.846,1.504c0.158,0.425,0.319,0.849,0.484,1.27c0.216,0.554,0.336,1.121,0.367,1.684
		c0.374,0.423,0.689,0.91,0.926,1.456c0.18,0.416,0.364,0.829,0.551,1.241c0.245,0.541,0.396,1.101,0.458,1.661
		c0.396,0.401,0.736,0.871,1.003,1.402c0.202,0.405,0.408,0.807,0.617,1.208c0.275,0.528,0.456,1.08,0.548,1.637
		c0.417,0.379,0.782,0.829,1.076,1.345c0.225,0.394,0.453,0.787,0.683,1.178c0.301,0.511,0.511,1.051,0.633,1.601
		c0.436,0.356,0.824,0.786,1.146,1.285c0.245,0.38,0.493,0.759,0.743,1.136c0.33,0.495,0.568,1.024,0.72,1.568
		c0.455,0.332,0.866,0.741,1.213,1.222c0.265,0.366,0.532,0.731,0.802,1.093c0.355,0.476,0.622,0.991,0.802,1.525
		c0.472,0.308,0.904,0.694,1.278,1.156c0.283,0.352,0.57,0.702,0.859,1.049c0.379,0.456,0.674,0.956,0.882,1.48
		c0.488,0.282,0.941,0.645,1.338,1.087c0.301,0.336,0.605,0.668,0.911,0.998c0.405,0.436,0.726,0.921,0.963,1.435
		c0.502,0.256,0.974,0.593,1.393,1.014c0.319,0.32,0.641,0.637,0.966,0.952c0.425,0.413,0.77,0.878,1.032,1.375
		c0.515,0.229,1.003,0.541,1.444,0.938c0.336,0.301,0.673,0.6,1.012,0.896c0.448,0.39,0.818,0.837,1.107,1.321
		c0.526,0.202,1.03,0.487,1.492,0.86c0.353,0.284,0.709,0.567,1.066,0.848c0.464,0.364,0.854,0.788,1.167,1.253
		c0.537,0.173,1.055,0.431,1.537,0.779c0.365,0.264,0.732,0.526,1.102,0.784c0.485,0.339,0.899,0.743,1.238,1.192
		c0.544,0.144,1.076,0.374,1.574,0.696c0.379,0.244,0.759,0.485,1.142,0.723c0.504,0.313,0.939,0.695,1.302,1.125
		c0.551,0.115,1.093,0.316,1.607,0.61c0.389,0.222,0.78,0.442,1.172,0.657c0.521,0.286,0.977,0.644,1.363,1.056
		c0.556,0.085,1.108,0.257,1.637,0.523c0.401,0.201,0.803,0.399,1.207,0.593c0.535,0.257,1.009,0.59,1.416,0.979
		c0.56,0.055,1.12,0.197,1.663,0.434c0.414,0.18,0.829,0.358,1.245,0.532c0.542,0.228,1.03,0.531,1.454,0.895
		c0.562,0.025,1.129,0.136,1.683,0.343c0.422,0.158,0.846,0.312,1.272,0.464c0.559,0.199,1.064,0.478,1.51,0.821
		c0.561,0.001,1.137,0.075,1.705,0.253c0.43,0.134,0.862,0.266,1.295,0.394c0.568,0.168,1.089,0.42,1.552,0.738
		c0.562-0.036,1.138,0.013,1.712,0.159c0.438,0.111,0.877,0.219,1.317,0.323c0.577,0.137,1.11,0.361,1.59,0.653
		c0.56-0.067,1.138-0.049,1.72,0.067c0.441,0.087,0.882,0.17,1.325,0.25c0.585,0.105,1.132,0.3,1.629,0.567
		c0.553-0.098,1.131-0.111,1.718-0.028c0.447,0.063,0.896,0.123,1.346,0.18c0.588,0.074,1.144,0.239,1.652,0.478
		c0.549-0.128,1.127-0.173,1.719-0.12c0.448,0.039,0.898,0.074,1.348,0.107c0.593,0.042,1.156,0.176,1.678,0.389
		c0.54-0.156,1.117-0.229,1.708-0.211c0.452,0.014,0.904,0.026,1.357,0.034c0.593,0.012,1.162,0.116,1.694,0.299
		c0.532-0.185,1.102-0.29,1.696-0.302c0.454-0.009,0.907-0.021,1.36-0.038c0.592-0.017,1.165,0.054,1.705,0.209
		c0.52-0.213,1.083-0.348,1.674-0.391c0.453-0.034,0.904-0.07,1.355-0.11c0.591-0.052,1.168-0.009,1.715,0.117
		c0.51-0.241,1.066-0.407,1.656-0.482c0.447-0.057,0.893-0.117,1.338-0.181c0.588-0.083,1.168-0.072,1.722,0.024
		c0.495-0.267,1.038-0.462,1.62-0.569c0.447-0.082,0.893-0.167,1.339-0.256c0.583-0.116,1.163-0.135,1.723-0.069
		c0.481-0.295,1.015-0.52,1.593-0.659c0.442-0.106,0.881-0.215,1.32-0.328c0.576-0.147,1.154-0.199,1.715-0.162
		c0.464-0.32,0.985-0.574,1.553-0.743c0.434-0.129,0.867-0.262,1.298-0.398c0.566-0.178,1.131-0.251,1.703-0.256
		c0.446-0.345,0.954-0.627,1.513-0.827c0.426-0.152,0.85-0.309,1.274-0.467c0.556-0.209,1.124-0.322,1.687-0.348
		c0.426-0.367,0.915-0.676,1.462-0.906c0.418-0.176,0.836-0.356,1.252-0.539c0.543-0.238,1.104-0.381,1.664-0.438
		c0.406-0.39,0.879-0.725,1.414-0.985c0.407-0.198,0.812-0.398,1.215-0.603c0.53-0.268,1.082-0.442,1.639-0.527
		c0.385-0.413,0.839-0.773,1.36-1.061c0.394-0.218,0.787-0.44,1.177-0.664c0.516-0.297,1.06-0.501,1.612-0.617
		c0.362-0.432,0.796-0.816,1.301-1.132c0.382-0.24,0.763-0.482,1.141-0.727c0.498-0.324,1.03-0.556,1.574-0.701
		c0.337-0.451,0.751-0.858,1.237-1.2c0.368-0.259,0.736-0.522,1.1-0.787c0.482-0.351,1.001-0.612,1.538-0.787
		c0.313-0.468,0.704-0.895,1.17-1.263c0.357-0.281,0.71-0.563,1.062-0.849c0.46-0.374,0.962-0.66,1.486-0.863
		c0.288-0.485,0.656-0.933,1.103-1.325c0.339-0.298,0.676-0.598,1.01-0.901c0.441-0.399,0.929-0.714,1.443-0.944
		c0.261-0.5,0.606-0.968,1.031-1.383c0.324-0.315,0.646-0.635,0.965-0.956c0.418-0.42,0.886-0.758,1.385-1.014
		c0.235-0.513,0.554-0.999,0.957-1.438c0.304-0.33,0.606-0.663,0.904-0.999c0.396-0.445,0.849-0.81,1.336-1.094
		c0.206-0.524,0.498-1.023,0.875-1.481c0.288-0.348,0.574-0.699,0.857-1.053c0.37-0.462,0.8-0.849,1.271-1.158
		c0.178-0.534,0.443-1.049,0.795-1.526c0.269-0.364,0.535-0.729,0.798-1.097c0.345-0.482,0.755-0.891,1.208-1.226
		c0.149-0.541,0.385-1.068,0.711-1.563c0.25-0.379,0.497-0.759,0.741-1.141c0.319-0.499,0.705-0.93,1.14-1.286
		c0.121-0.55,0.328-1.091,0.628-1.603c0.127-0.217,0.253-0.433,0.378-0.652c1.508-2.634,4.868-3.545,7.5-2.036
		c2.633,1.509,3.545,4.866,2.036,7.5c-0.143,0.249-0.286,0.497-0.431,0.743c-0.337,0.576-0.763,1.067-1.251,1.468
		c-0.135,0.617-0.379,1.221-0.74,1.784c-0.272,0.426-0.548,0.85-0.826,1.272c-0.368,0.558-0.821,1.028-1.33,1.402
		c-0.168,0.608-0.444,1.197-0.833,1.739c-0.295,0.412-0.594,0.822-0.896,1.23c-0.396,0.537-0.873,0.98-1.4,1.326
		c-0.2,0.599-0.507,1.172-0.924,1.694c-0.317,0.395-0.637,0.789-0.96,1.18c-0.425,0.515-0.925,0.932-1.47,1.25
		c-0.231,0.585-0.567,1.14-1.01,1.637c-0.339,0.381-0.683,0.76-1.029,1.135c-0.451,0.489-0.97,0.878-1.529,1.166
		c-0.263,0.575-0.631,1.115-1.102,1.588c-0.358,0.36-0.718,0.717-1.081,1.072c-0.477,0.465-1.017,0.826-1.592,1.084
		c-0.292,0.559-0.686,1.075-1.18,1.523c-0.377,0.341-0.757,0.68-1.14,1.016c-0.5,0.44-1.06,0.772-1.647,0.999
		c-0.323,0.543-0.745,1.04-1.264,1.461c-0.393,0.319-0.79,0.636-1.188,0.951c-0.526,0.414-1.102,0.716-1.703,0.911
		c-0.35,0.524-0.796,0.995-1.334,1.387c-0.412,0.301-0.827,0.597-1.244,0.891c-0.546,0.384-1.137,0.655-1.746,0.818
		c-0.378,0.505-0.849,0.954-1.41,1.316c-0.427,0.278-0.857,0.552-1.29,0.822c-0.565,0.354-1.171,0.593-1.787,0.723
		c-0.404,0.483-0.899,0.904-1.476,1.237c-0.443,0.255-0.888,0.506-1.334,0.754c-0.583,0.323-1.2,0.529-1.824,0.625
		c-0.43,0.462-0.948,0.858-1.544,1.159c-0.454,0.229-0.91,0.455-1.369,0.678c-0.601,0.292-1.229,0.465-1.857,0.527
		c-0.455,0.439-0.994,0.806-1.606,1.074c-0.465,0.204-0.932,0.405-1.4,0.602c-0.617,0.26-1.255,0.399-1.887,0.427
		c-0.478,0.413-1.036,0.751-1.662,0.985c-0.477,0.18-0.956,0.356-1.436,0.528c-0.63,0.226-1.275,0.326-1.903,0.323
		c-0.499,0.387-1.075,0.694-1.713,0.895c-0.486,0.153-0.974,0.303-1.463,0.448c-0.641,0.192-1.289,0.261-1.921,0.219
		c-0.52,0.359-1.112,0.634-1.76,0.8c-0.493,0.126-0.988,0.25-1.484,0.368c-0.651,0.156-1.303,0.189-1.93,0.114
		c-0.538,0.331-1.145,0.573-1.8,0.704c-0.499,0.1-0.999,0.195-1.501,0.287c-0.657,0.121-1.31,0.119-1.933,0.011
		c-0.555,0.3-1.171,0.508-1.831,0.603c-0.504,0.072-1.009,0.142-1.516,0.206c-0.661,0.084-1.309,0.046-1.923-0.094
		c-0.571,0.27-1.199,0.445-1.864,0.504c-0.504,0.045-1.01,0.085-1.517,0.122c-0.666,0.052-1.314-0.022-1.921-0.197
		c-0.585,0.239-1.221,0.381-1.89,0.403c-0.506,0.017-1.012,0.031-1.52,0.041c-0.67,0.007-1.308-0.093-1.904-0.299
		C119.869,307.761,119.262,307.867,118.631,307.867z"/>
	<path d="M208.201,246.861c-0.64,0-1.29-0.112-1.925-0.35c-2.223-0.831-3.59-2.95-3.571-5.193c-2.239-0.76-3.813-2.918-3.724-5.402
		c0.109-3.033,2.654-5.394,5.689-5.293c1.354,0.048,2.678,0.073,3.934,0.073c0.102-0.001,0.204-0.013,0.308-0.02
		c0.334-0.025,0.668-0.047,1.01-0.051c0.023-0.001,0.045-0.001,0.067-0.001c1.732,0,3.363,0.816,4.402,2.205
		c1.051,1.407,1.367,3.231,0.849,4.909c-0.577,1.872-1.213,3.739-1.892,5.552C212.522,245.498,210.427,246.861,208.201,246.861z"/>
	<path d="M182.962,238.834c-0.402,0-0.811-0.044-1.22-0.137c-0.346-0.079-0.691-0.158-1.036-0.239
		c-0.447-0.105-0.869-0.262-1.259-0.464c-0.441-0.005-0.887-0.061-1.332-0.176c-0.343-0.089-0.687-0.179-1.029-0.271
		c-0.443-0.119-0.86-0.289-1.244-0.502c-0.44-0.017-0.883-0.089-1.324-0.217c-0.345-0.101-0.689-0.202-1.032-0.307
		c-0.436-0.133-0.844-0.314-1.219-0.538c-0.439-0.031-0.879-0.116-1.316-0.258c-0.338-0.111-0.677-0.222-1.013-0.336
		c-0.434-0.146-0.838-0.341-1.208-0.577c-0.439-0.045-0.879-0.143-1.313-0.301c-0.331-0.12-0.661-0.24-0.99-0.362
		c-0.433-0.16-0.835-0.369-1.199-0.618c-0.435-0.059-0.87-0.171-1.297-0.339c-0.329-0.131-0.658-0.262-0.986-0.395
		c-0.427-0.173-0.822-0.394-1.178-0.654c-0.432-0.072-0.862-0.197-1.282-0.378c-0.326-0.14-0.65-0.283-0.975-0.426
		c-0.422-0.186-0.809-0.419-1.158-0.69c-0.432-0.085-0.86-0.224-1.276-0.42c-0.319-0.15-0.637-0.302-0.955-0.454
		c-0.416-0.199-0.796-0.444-1.136-0.725c-0.427-0.098-0.848-0.25-1.255-0.456c-0.316-0.16-0.632-0.323-0.946-0.485
		c-0.411-0.212-0.783-0.469-1.115-0.762c-0.424-0.111-0.842-0.276-1.243-0.496c-0.312-0.171-0.623-0.343-0.933-0.516
		c-0.401-0.224-0.762-0.491-1.083-0.791c-0.422-0.125-0.837-0.303-1.233-0.537c-0.306-0.18-0.612-0.362-0.917-0.545
		c-0.392-0.235-0.744-0.513-1.054-0.822c-0.418-0.138-0.826-0.328-1.214-0.573c-0.299-0.189-0.597-0.379-0.895-0.57
		c-0.387-0.249-0.733-0.537-1.035-0.858c-0.412-0.149-0.812-0.352-1.192-0.607c-0.297-0.2-0.593-0.401-0.889-0.605
		c-0.376-0.259-0.71-0.556-0.999-0.883c-0.409-0.164-0.804-0.378-1.177-0.647c-0.289-0.208-0.578-0.418-0.864-0.629
		c-0.368-0.27-0.693-0.578-0.973-0.913c-0.405-0.176-0.796-0.405-1.162-0.687c-2.384-1.797-2.9-5.179-1.143-7.608
		c1.778-2.459,5.214-3.011,7.673-1.231c0.056,0.041,0.155,0.116,0.21,0.158c0.314,0.246,0.593,0.518,0.838,0.812
		c0.368,0.161,0.725,0.364,1.062,0.612c0.26,0.191,0.52,0.38,0.782,0.568c0.337,0.243,0.64,0.518,0.904,0.817
		c0.374,0.149,0.736,0.341,1.082,0.579c0.264,0.182,0.529,0.362,0.795,0.54c0.346,0.233,0.658,0.499,0.933,0.791
		c0.375,0.136,0.74,0.316,1.09,0.54c0.273,0.175,0.548,0.35,0.823,0.524c0.352,0.222,0.67,0.477,0.953,0.76
		c0.381,0.125,0.754,0.295,1.113,0.511c0.277,0.167,0.555,0.332,0.834,0.496c0.357,0.211,0.683,0.456,0.974,0.729
		c0.383,0.114,0.76,0.271,1.124,0.474c0.282,0.158,0.565,0.314,0.849,0.469c0.367,0.201,0.701,0.437,1.001,0.702
		c0.384,0.101,0.763,0.246,1.131,0.436c0.288,0.149,0.576,0.297,0.865,0.444c0.374,0.189,0.716,0.416,1.025,0.671
		c0.388,0.09,0.771,0.222,1.145,0.401c0.294,0.141,0.59,0.281,0.885,0.42c0.376,0.177,0.723,0.391,1.038,0.636
		c0.39,0.078,0.778,0.198,1.157,0.366c0.296,0.131,0.593,0.261,0.891,0.39c0.384,0.165,0.74,0.37,1.064,0.606
		c0.392,0.066,0.784,0.175,1.168,0.33c0.301,0.122,0.603,0.243,0.905,0.363c0.388,0.154,0.748,0.347,1.079,0.572
		c0.394,0.053,0.788,0.149,1.177,0.293l0.923,0.337c0.39,0.141,0.754,0.321,1.09,0.535c0.398,0.041,0.798,0.126,1.195,0.259
		c0.306,0.103,0.613,0.204,0.921,0.305c0.396,0.129,0.768,0.299,1.111,0.504c0.401,0.028,0.807,0.102,1.208,0.224
		c0.306,0.093,0.613,0.184,0.921,0.274c0.4,0.117,0.776,0.275,1.126,0.469c0.399,0.016,0.803,0.076,1.205,0.184
		c0.313,0.084,0.627,0.167,0.941,0.248c0.403,0.105,0.784,0.251,1.14,0.434c0.4,0.004,0.806,0.052,1.212,0.147
		c0.315,0.074,0.632,0.148,0.949,0.219c2.96,0.671,4.815,3.614,4.145,6.574C187.738,237.103,185.472,238.834,182.962,238.834z"/>
	<path d="M129.822,210.771c-1.336,0-2.676-0.484-3.733-1.464c-0.263-0.244-0.525-0.488-0.785-0.734
		c-0.332-0.314-0.616-0.66-0.851-1.027c-0.377-0.224-0.733-0.496-1.06-0.818c-0.255-0.251-0.507-0.502-0.76-0.756
		c-0.323-0.324-0.596-0.679-0.822-1.054c-0.371-0.235-0.72-0.52-1.037-0.853c-0.244-0.256-0.487-0.513-0.729-0.771
		c-0.314-0.336-0.578-0.699-0.793-1.083c-0.363-0.246-0.703-0.541-1.01-0.883c-0.238-0.264-0.474-0.53-0.71-0.798
		c-0.302-0.343-0.553-0.713-0.754-1.101c-0.357-0.258-0.688-0.564-0.984-0.915c-0.229-0.272-0.456-0.544-0.683-0.818
		c-0.292-0.352-0.531-0.73-0.721-1.124c-0.348-0.268-0.668-0.582-0.953-0.942c-0.22-0.279-0.44-0.557-0.657-0.837
		c-0.282-0.363-0.511-0.749-0.689-1.15c-0.339-0.279-0.65-0.603-0.924-0.97c-0.213-0.286-0.423-0.573-0.634-0.86
		c-0.27-0.37-0.487-0.763-0.652-1.168c-0.33-0.288-0.63-0.621-0.891-0.996c-0.203-0.291-0.404-0.582-0.605-0.875
		c-0.26-0.379-0.466-0.78-0.619-1.193c-0.321-0.299-0.612-0.641-0.862-1.025c-0.195-0.298-0.387-0.597-0.579-0.896
		c-0.246-0.386-0.439-0.791-0.579-1.205c-0.312-0.308-0.591-0.658-0.829-1.049c-0.186-0.305-0.37-0.611-0.553-0.918
		c-0.234-0.392-0.414-0.802-0.54-1.221c-0.303-0.318-0.573-0.679-0.799-1.078c-0.175-0.308-0.348-0.617-0.52-0.926
		c-0.223-0.401-0.39-0.818-0.505-1.241c-0.292-0.326-0.549-0.693-0.763-1.098c-0.166-0.314-0.331-0.63-0.494-0.946
		c-0.211-0.408-0.365-0.829-0.467-1.256c-0.283-0.337-0.529-0.713-0.731-1.125c-0.155-0.317-0.308-0.634-0.46-0.952
		c-0.199-0.415-0.341-0.842-0.429-1.273c-0.272-0.345-0.507-0.729-0.696-1.147c-0.144-0.32-0.287-0.641-0.429-0.961
		c-0.187-0.422-0.317-0.857-0.392-1.292c-0.261-0.352-0.482-0.741-0.658-1.165c-0.136-0.33-0.272-0.66-0.405-0.991
		c-0.17-0.423-0.284-0.853-0.346-1.285c-0.25-0.361-0.461-0.758-0.624-1.188c-0.125-0.332-0.25-0.664-0.373-0.997
		c-0.158-0.43-0.26-0.867-0.308-1.303c-0.239-0.368-0.436-0.77-0.585-1.204c-0.116-0.336-0.229-0.672-0.342-1.008
		c-0.145-0.435-0.233-0.875-0.268-1.313c-0.227-0.376-0.412-0.784-0.548-1.222c-0.105-0.339-0.209-0.678-0.31-1.018
		c-0.132-0.439-0.206-0.881-0.227-1.319c-0.215-0.383-0.388-0.797-0.51-1.239c-0.094-0.339-0.186-0.68-0.277-1.02
		c-0.119-0.445-0.18-0.891-0.187-1.331c-0.203-0.389-0.363-0.808-0.471-1.253c-0.083-0.345-0.166-0.688-0.246-1.034
		c-0.104-0.446-0.151-0.892-0.145-1.33c-0.191-0.394-0.337-0.818-0.432-1.266c-0.073-0.346-0.145-0.694-0.215-1.041
		c-0.091-0.449-0.123-0.897-0.104-1.334c-0.179-0.401-0.313-0.83-0.394-1.281c-0.061-0.347-0.122-0.694-0.182-1.042
		c-0.077-0.453-0.096-0.902-0.063-1.341c-0.166-0.405-0.286-0.837-0.353-1.291c-0.052-0.352-0.102-0.705-0.151-1.058
		c-0.412-3.007,1.691-5.778,4.697-6.191c3.008-0.412,5.778,1.69,6.191,4.697c0.044,0.319,0.089,0.637,0.136,0.954
		c0.061,0.412,0.074,0.819,0.043,1.217c0.151,0.368,0.264,0.759,0.334,1.168c0.054,0.319,0.11,0.638,0.167,0.957
		c0.073,0.409,0.098,0.815,0.081,1.213c0.163,0.365,0.288,0.752,0.37,1.16c0.064,0.316,0.129,0.632,0.195,0.946
		c0.086,0.407,0.124,0.814,0.119,1.213c0.174,0.359,0.311,0.743,0.406,1.149c0.074,0.314,0.148,0.627,0.224,0.94
		c0.098,0.404,0.149,0.809,0.156,1.208c0.184,0.352,0.333,0.73,0.44,1.13c0.084,0.313,0.169,0.626,0.255,0.939
		c0.111,0.401,0.174,0.804,0.193,1.202c0.196,0.348,0.357,0.723,0.476,1.122c0.093,0.309,0.187,0.617,0.282,0.925
		c0.123,0.397,0.198,0.798,0.23,1.195c0.207,0.341,0.379,0.711,0.511,1.105c0.102,0.306,0.206,0.611,0.31,0.916
		c0.136,0.394,0.224,0.793,0.268,1.19c0.217,0.336,0.401,0.7,0.545,1.091c0.111,0.303,0.224,0.604,0.339,0.906
		c0.147,0.389,0.248,0.783,0.303,1.178c0.229,0.33,0.425,0.692,0.582,1.08c0.12,0.297,0.241,0.593,0.364,0.889
		c0.16,0.385,0.272,0.778,0.341,1.173c0.235,0.319,0.44,0.667,0.606,1.045c0.132,0.298,0.265,0.596,0.399,0.893
		c0.171,0.379,0.295,0.767,0.376,1.157c0.246,0.312,0.463,0.657,0.642,1.032c0.14,0.293,0.282,0.586,0.425,0.877
		c0.182,0.374,0.319,0.758,0.411,1.146c0.257,0.306,0.484,0.645,0.676,1.015c0.148,0.286,0.297,0.572,0.447,0.856
		c0.195,0.368,0.344,0.75,0.448,1.136c0.266,0.298,0.504,0.63,0.706,0.993c0.158,0.283,0.316,0.565,0.476,0.847
		c0.205,0.362,0.365,0.736,0.481,1.118c0.277,0.29,0.526,0.616,0.74,0.976c0.164,0.275,0.33,0.55,0.497,0.823
		c0.217,0.356,0.39,0.727,0.518,1.107c0.284,0.282,0.543,0.599,0.768,0.951c0.174,0.272,0.349,0.542,0.525,0.813
		c0.228,0.349,0.41,0.714,0.55,1.089c0.292,0.272,0.559,0.579,0.793,0.922c0.183,0.266,0.367,0.533,0.551,0.797
		c0.239,0.343,0.434,0.703,0.585,1.075c0.301,0.263,0.579,0.564,0.824,0.902c0.189,0.261,0.381,0.52,0.573,0.778
		c0.249,0.335,0.454,0.688,0.616,1.054c0.309,0.254,0.595,0.546,0.851,0.875c0.198,0.255,0.398,0.509,0.599,0.763
		c0.259,0.326,0.474,0.674,0.647,1.034c0.318,0.245,0.614,0.529,0.88,0.851c0.206,0.25,0.414,0.497,0.622,0.744
		c0.268,0.317,0.493,0.657,0.676,1.01c0.325,0.235,0.63,0.51,0.906,0.824c0.213,0.242,0.428,0.483,0.643,0.723
		c0.278,0.31,0.514,0.643,0.709,0.992c0.331,0.224,0.642,0.489,0.927,0.793c0.222,0.237,0.445,0.473,0.669,0.708
		c0.287,0.301,0.533,0.626,0.738,0.969c0.339,0.215,0.659,0.471,0.954,0.768c0.226,0.228,0.454,0.454,0.683,0.679
		c0.297,0.293,0.554,0.612,0.771,0.949c0.346,0.205,0.674,0.451,0.979,0.74c0.232,0.22,0.466,0.439,0.7,0.656
		c2.226,2.062,2.359,5.539,0.297,7.765C132.771,210.179,131.298,210.771,129.822,210.771z"/>
</g>
<g>
</g>
<g>
</g>
<g>
</g>
<g>
</g>
<g>
</g>
<g>
</g>
<g>
</g>
<g>
</g>
<g>
</g>
<g>
</g>
<g>
</g>
<g>
</g>
<g>
</g>
<g>
</g>
<g>
</g>
</svg>
