<?xml version="1.0" encoding="iso-8859-1"?>
<!-- Generator: Adobe Illustrator 21.0.0, SVG Export Plug-In . SVG Version: 6.00 Build 0)  -->
<svg xmlns="http://www.w3.org/2000/svg" xmlns:xlink="http://www.w3.org/1999/xlink" version="1.1" id="Capa_1" x="0px" y="0px" viewBox="0 0 512.002 512.002" style="enable-background:new 0 0 512.002 512.002;" xml:space="preserve" width="512" height="512">
<g>
	<g>
		<path style="fill-rule:evenodd;clip-rule:evenodd;fill:#666666;" d="M276.68,338.017h225.322v-20.001    c0-11.001-9-20.001-20.001-20.001l-6.667,0H276.68V338.017z"/>
		<path style="fill-rule:evenodd;clip-rule:evenodd;fill:#999999;" d="M276.68,298.015l198.653,0V130.006    C475.334,64.002,421.331,10,355.328,10c-66.003,0-120.006,54.003-120.006,120.006v73.529    C260.624,225.579,276.68,258,276.68,293.99V298.015z"/>
		<path style="fill-rule:evenodd;clip-rule:evenodd;fill:#999999;" d="M276.68,461.999H36.668l-6.667,0    C19.001,461.999,10,471,10,482v20.001h293.348V482c0-11.001-9-20.001-20.001-20.001L276.68,461.999z"/>
		<path style="fill-rule:evenodd;clip-rule:evenodd;fill:#D5D5D5;" d="M235.322,203.535c-21.101-18.384-48.633-29.551-78.647-29.551    c-66.003,0-120.006,54.003-120.006,120.006v168.01l240.012,0V293.99C276.68,258.001,260.625,225.58,235.322,203.535z"/>
	</g>
	<g>
		<path d="M485.334,288.205V130.006C485.334,58.32,427.014,0,355.328,0c-19.564,0-38.408,4.292-56.008,12.758    c-4.977,2.394-7.07,8.37-4.677,13.347c2.394,4.978,8.371,7.071,13.347,4.677C322.863,23.627,338.79,20,355.328,20    c60.657,0,110.006,49.349,110.006,110.006v158.01H286.538c-1.594-35.066-17.146-66.551-41.217-89.027v-68.983    c0-16.537,3.627-32.461,10.779-47.331c2.394-4.977,0.3-10.953-4.677-13.347c-4.974-2.394-10.952-0.3-13.347,4.677    c-8.464,17.597-12.756,36.438-12.756,56v53.63c-19.936-12.446-43.464-19.651-68.647-19.651    c-71.686,0-130.006,58.32-130.006,130.006V452.19C11.688,453.854,0,466.585,0,482.001v20.001c0,5.523,4.478,10,10,10h293.349    c5.522,0,10-4.477,10-10v-20.001c0-15.416-11.688-28.147-26.668-29.811V348.018h215.321c5.522,0,10-4.477,10-10v-20.001    C512.002,302.601,500.313,289.869,485.334,288.205z M156.675,183.984c27.151,0,52.032,9.893,71.24,26.256    c0.549,0.607,1.165,1.152,1.847,1.609c22.636,20.163,36.92,49.513,36.92,82.14v4.025v40.002V452H46.668V293.99    C46.668,233.333,96.017,183.984,156.675,183.984z M293.349,482.001v10.001H20v-10.001C20,476.486,24.486,472,30.001,472h253.347    C288.862,472,293.349,476.486,293.349,482.001z M492.002,328.018H286.681v-20.002h195.32c5.515,0,10.001,4.486,10.001,10.001    V328.018z"/>
		<path d="M116.674,308.015h30v56.667c0,5.523,4.478,10,10,10s10-4.477,10-10v-56.667h30c5.522,0,10-4.477,10-10s-4.478-10-10-10    h-30v-30c0-5.523-4.478-10-10-10s-10,4.477-10,10v30h-30c-5.522,0-10,4.477-10,10S111.151,308.015,116.674,308.015z"/>
		<path d="M355.327,84.031c-5.522,0-10,4.477-10,10v30h-30c-5.522,0-10,4.477-10,10s4.478,10,10,10h30v56.667    c0,5.523,4.478,10,10,10s10-4.477,10-10v-56.667h30c5.522,0,10-4.477,10-10s-4.478-10-10-10h-30v-30    C365.327,88.508,360.85,84.031,355.327,84.031z"/>
		<path d="M146.678,411.998c-5.522,0-10,4.477-10,10s4.478,10,10,10h59.996c5.522,0,10-4.477,10-10s-4.478-10-10-10H146.678z"/>
		<path d="M106.682,431.998c5.522,0,10-4.477,10-10s-4.478-10-10-10h-0.008c-5.522,0-9.996,4.477-9.996,10    S101.159,431.998,106.682,431.998z"/>
		<path d="M325.329,248.014c-5.522,0-10,4.477-10,10s4.478,10,10,10h59.997c5.522,0,10-4.477,10-10s-4.478-10-10-10H325.329z"/>
		<path d="M270.467,55.149c2.561,0,5.122-0.977,7.075-2.93c3.905-3.905,3.905-10.237,0-14.142c-3.906-3.905-10.236-3.905-14.143,0    l-0.005,0.005c-3.905,3.905-3.902,10.234,0.003,14.139C265.35,54.174,267.908,55.149,270.467,55.149z"/>
	</g>
</g>















</svg>
