<?xml version="1.0" encoding="iso-8859-1"?>
<!-- Generator: Adobe Illustrator 19.0.0, SVG Export Plug-In . SVG Version: 6.00 Build 0)  -->
<svg version="1.1" id="Capa_1" xmlns="http://www.w3.org/2000/svg" xmlns:xlink="http://www.w3.org/1999/xlink" x="0px" y="0px" height="512" width="512"
	 viewBox="0 0 511.998 511.998" style="enable-background:new 0 0 511.998 511.998;" xml:space="preserve">
<path style="fill:#A4E869;" d="M483.123,151.609v232.459L33.85,389.386V170.568c0-11.224,7.216-21.146,17.871-24.673
	c22.418-7.428,62.679-13.825,101.812,15.019c57.236,42.197,182.825-139.308,319.907-29.538
	C479.577,136.291,483.123,143.748,483.123,151.609z"/>
<path style="fill:#009900;" d="M483.123,207.448v176.621L33.85,389.386V218.768c18.603-17.351,49.586-33.237,88.113-4.037
	c64.143,48.623,127.208-72.756,203.336-22.187C379.355,228.469,425.637,167.62,483.123,207.448z"/>
<path style="fill:#8B5016;" d="M496.572,416.458H241.8l1.676-3.584l24.528-52.313l13.43-28.652l24.711-52.708l14.865-31.696
	l0.761-1.628l7.804-16.648l26.166-55.8c7.813-16.686,31.532-16.686,39.355,0l45.588,97.256l9.904,21.127l13.883,29.605l29.22,62.322
	l10.048,21.436C506.206,410.427,502.372,416.458,496.572,416.458z"/>
<g>
	<path style="fill:#754210;" d="M493.691,383.74c-7.264,12.341-20.694,20.646-36.022,20.646c-15.52,0-29.066-8.507-36.272-21.089
		c-7.206,12.582-20.752,21.089-36.263,21.089c-16.619,0-30.993-9.75-37.717-23.825c-6.725,14.075-21.098,23.825-37.707,23.825
		c-23.035,0-41.764-18.728-41.764-41.764c0-0.693,0.019-1.377,0.058-2.061l13.43-28.652c7.437-6.86,17.37-11.05,28.276-11.05
		c16.609,0,30.983,9.76,37.707,23.835c6.725-14.075,21.098-23.835,37.717-23.835c15.511,0,29.056,8.507,36.263,21.099
		c7.206-12.592,20.752-21.099,36.272-21.099c2.312,0,4.586,0.193,6.802,0.559L493.691,383.74z"/>
	<polygon style="fill:#754210;" points="370.491,416.458 241.8,416.458 243.477,412.874 306.146,279.202 367.611,410.311 	"/>
	<path style="fill:#754210;" d="M448.167,322.915c-2.876,8.059-9.826,18.239-26.543,21.026c-1.836,0.304-3.671,0.461-5.448,0.461
		c-9.266,0-21.949-4.005-29.753-23.078c-4.025-9.816-6.135-21.88-8.187-33.542c-1.639-9.365-4.633-26.445-8.226-30.656
		c-0.108,0.02-0.236,0.049-0.373,0.088c-7.284,1.963-13.978,2.955-19.917,2.955h-0.039c-13.841,0-21.969-5.409-26.356-9.954
		c-0.854-0.883-1.63-1.796-2.317-2.709l0.766-1.63l7.804-16.648l26.16-55.795c7.814-16.688,31.539-16.688,39.363,0l45.587,97.249
		l9.905,21.134c0.01,1.865,0.059,3.75,0.108,5.507C450.915,305.816,451.141,314.591,448.167,322.915z"/>
</g>
<path style="fill:#60DC4D;" d="M419.209,329.414c-36.644,6.086-16.364-96.405-53.41-86.412
	c-37.047,9.983-36.222-13.772-36.222-13.772l26.16-55.795c7.814-16.688,31.539-16.688,39.363,0l45.587,97.249
	C427.71,288.117,448.55,324.535,419.209,329.414z"/>
<path style="fill:#B4732D;" d="M354.528,416.458H33.619c-5.8,0-9.634-6.031-7.168-11.281l19.971-42.601l66.552-141.947l8.988-19.191
	l41.34-88.171c9.75-20.809,39.345-20.809,49.095,0l34.085,72.708l7.688,16.387l25.366,54.115l30.183,64.384l32.091,68.459
	l10.395,22.178L354.528,416.458z"/>
<g>
	<path style="fill:#8B5016;" d="M341.811,389.319c-7.678,9.201-19.22,15.068-32.1,15.068c-23.035,0-41.764-18.728-41.764-41.764
		c0-23.025,18.728-41.764,41.764-41.764h0.01L341.811,389.319z"/>
	<path style="fill:#8B5016;" d="M279.672,416.458H33.619c-5.8,0-9.634-6.031-7.168-11.281l19.971-42.601
		c0.173-0.01,0.337-0.01,0.511-0.01h0.491c12.601-23.266,37.12-38.237,64.201-38.237c27.948,0,52.814,15.742,65.049,39.798
		c4.191-1.031,8.507-1.561,12.881-1.561c15.135,0,29.23,6.272,39.268,16.966c3.844-1.253,7.9-1.908,12.014-1.908
		C262.253,377.623,279.672,395.041,279.672,416.458z"/>
	<path style="fill:#8B5016;" d="M254.169,202.362c-1.63,5.389-1.826,11.946-2.012,18.347c-0.226,7.578-0.432,14.744-2.945,21.282
		c-3.956,10.317-12.84,16.236-24.364,16.236c-6.204,0-17.709-2.091-25.071-16.059c-3.475-6.606-5.261-14.273-6.989-21.694
		c-1.139-4.898-3.21-13.802-5.222-16.364c-3.828,0.02-8.697,0.54-10.768,2.817c-1.757,1.934-2.857,5.831-4.025,9.963
		c-2.484,8.786-7.647,27.063-29.724,27.063c-9.492,0-21.576-4.447-30.077-23.323l8.992-19.191L163.3,113.27
		c9.747-20.81,39.343-20.81,49.101,0l34.082,72.699L254.169,202.362z"/>
</g>
<g>
	<path style="fill:#60DC4D;" d="M246.483,185.969c-17.816,21.007,0.717,57.533-21.635,57.533c-23.559,0-11.779-54.117-37.007-54.117
		c-40.345,0-19.927,39.844-44.792,39.844c-11.21,0-17.532-13.566-21.085-27.79L163.3,113.27c9.747-20.81,39.343-20.81,49.101,0
		L246.483,185.969z"/>
	<path style="fill:#60DC4D;" d="M265.223,416.454c0-13.466-10.917-24.383-24.383-24.383c-6.26,0-11.95,2.38-16.268,6.257
		c-6.565-12.656-19.778-21.31-35.021-21.31c-7.769,0-15.007,2.256-21.113,6.135c-6.341-25.487-29.369-44.376-56.818-44.376
		c-25.617,0-47.377,16.456-55.324,39.369c-3.002-0.731-6.134-1.127-9.361-1.127c-21.78,0-39.436,17.656-39.436,39.436
		L265.223,416.454L265.223,416.454z"/>
</g>
<rect x="302.43" y="378.4" style="fill:#DB9E67;" width="17.08" height="38.05"/>
<circle style="fill:#60DC4D;" cx="309.71" cy="362.63" r="27.314"/>
<rect x="377.86" y="378.4" style="fill:#DB9E67;" width="17.08" height="38.05"/>
<circle style="fill:#60DC4D;" cx="385.13" cy="362.63" r="27.314"/>
<rect x="450.39" y="378.4" style="fill:#DB9E67;" width="17.08" height="38.05"/>
<circle style="fill:#60DC4D;" cx="457.67" cy="362.63" r="27.314"/>
<path d="M510.53,401.992l-18.073-38.54c0.006-0.275,0.021-0.549,0.021-0.826c0-4.013-0.691-7.866-1.946-11.457
	c0.054-0.362,0.091-0.73,0.091-1.107v-69.097c0-4.143-3.357-7.5-7.5-7.5s-7.5,3.357-7.5,7.5v46.568L417.32,203.158
	c19.658-3.7,38.225-4.273,58.3,8.323v38.236c0,4.143,3.357,7.5,7.5,7.5s7.5-3.357,7.5-7.5v-98.11
	c0-10.228-4.555-19.736-12.491-26.084c-39.099-31.31-80.683-42.83-127.131-35.211c-39.447,6.468-75.442,25.531-107.199,42.352
	c-3.867,2.048-7.592,4.018-11.248,5.928l-13.361-28.499c-5.764-12.289-17.774-19.923-31.345-19.923c-0.002,0-0.005,0-0.007,0
	c-13.568,0.003-25.573,7.638-31.33,19.924l-15.968,34.058c-8.418-4.239-17.232-7.4-26.308-9.397
	c-4.045-0.894-8.047,1.667-8.937,5.712c-0.891,4.045,1.666,8.046,5.712,8.937c7.984,1.759,15.745,4.566,23.161,8.339l-20.108,42.888
	c-24.564-13.552-49.745-12.589-72.711,2.646v-32.706c0-7.979,5.115-15.032,12.729-17.554c9.159-3.034,18.529-4.922,27.85-5.612
	c4.131-0.306,7.231-3.902,6.926-8.033c-0.306-4.13-3.896-7.23-8.033-6.926c-10.548,0.781-21.132,2.911-31.458,6.332
	c-13.765,4.557-23.014,17.334-23.014,31.793v203.716C10.761,381.926,0,397.954,0,416.454c0,4.143,3.357,7.5,7.5,7.5h26.052
	c0.02,0,463.018,0.003,463.018,0.003c5.302,0,10.166-2.671,13.011-7.146C512.427,412.336,512.782,406.797,510.53,401.992z
	 M457.665,382.439c-10.925,0-19.813-8.889-19.813-19.813s8.889-19.813,19.813-19.813s19.813,8.889,19.813,19.813
	c0,0.621-0.037,1.233-0.093,1.839c-0.002,0.028-0.003,0.055-0.004,0.083C476.411,374.574,467.941,382.439,457.665,382.439z
	 M359.297,408.957l-16.567-35.334c1.155-3.459,1.79-7.154,1.79-10.997c0-14.725-9.194-27.335-22.14-32.415l-15.927-33.985
	l23.359-49.825c0.297,0.262,0.581,0.528,0.901,0.782c8.137,6.461,20.597,7.491,37.039,3.06c3.256-0.88,4.842-0.212,5.749,0.365
	c6.253,3.98,9.359,21.697,11.855,35.934c2.107,12.021,4.287,24.451,8.503,33.799c2.687,5.956,5.919,9.942,9.336,12.536
	c-5.27-3.212-11.455-5.064-18.065-5.064c-19.196,0-34.813,15.617-34.813,34.813c0,13.917,8.212,25.948,20.043,31.515v14.816H359.297
	z M309.707,382.439c-10.925,0-19.813-8.889-19.813-19.813s8.889-19.813,19.813-19.813s19.813,8.889,19.813,19.813
	S320.632,382.439,309.707,382.439z M399.615,200.729c0.032,0.075,0.068,0.146,0.103,0.219l32.487,69.303
	c-4.211,8.444-3.962,18.564-3.726,27.647c0.456,17.527-0.8,22.503-10.498,24.116c-3.256,0.54-6.739,0.379-10.447-7.842
	c-3.44-7.629-5.455-19.114-7.402-30.223c-3.469-19.781-6.745-38.466-18.574-45.996c-5.105-3.25-11.064-3.986-17.709-2.194
	c-15.033,4.05-21.29,1.596-23.682-0.228c-1.982-1.51-2.69-3.611-2.945-4.935l25.31-53.988c2.405-5.131,7.224-8.193,12.889-8.193
	s10.483,3.063,12.889,8.193L399.615,200.729z M298.17,278.557l-40.203-85.754c24.641-8.749,43.871-6.837,63.182,5.99
	c3.717,2.469,7.541,4.593,11.43,6.368L298.17,278.557z M333.09,388.396l9.64,20.561h-15.72v-16.141
	C329.194,391.558,331.236,390.08,333.09,388.396z M385.131,382.439c-10.925,0-19.813-8.889-19.813-19.813
	s8.889-19.813,19.813-19.813s19.813,8.889,19.813,19.813S396.056,382.439,385.131,382.439z M419.944,362.626
	c0-11.637-5.745-21.951-14.542-28.276c3.596,2.092,7.309,2.826,10.743,2.826c1.495,0,2.938-0.139,4.294-0.364
	c10.645-1.771,17.686-7.264,20.927-16.328c2.521-7.053,2.312-15.146,2.107-22.975c-0.029-1.127-0.058-2.258-0.078-3.386
	l15.81,33.728c-0.511-0.022-1.024-0.039-1.541-0.039c-19.196,0-34.813,15.617-34.813,34.813c0,13.916,8.21,25.945,20.038,31.513
	v14.818H402.44v-16.145C412.889,386.797,419.944,375.523,419.944,362.626z M250.819,145.918
	c61.351-32.491,137.705-72.934,217.937-8.684c4.362,3.488,6.864,8.727,6.864,14.372v42.685c-22.669-11.302-43.747-9.439-64.861-5.13
	l-8.868-18.918c-4.865-10.379-15.009-16.826-26.471-16.826s-21.605,6.447-26.471,16.826l-10.004,21.34
	c-3.216-1.458-6.393-3.222-9.496-5.283c-29.526-19.615-56.575-15.078-77.885-7.155l-12.639-26.96
	C242.796,150.164,246.731,148.083,250.819,145.918z M170.092,116.458c3.311-7.066,9.946-11.287,17.75-11.289
	c0.002,0,0.003,0,0.005,0c7.806,0,14.447,4.222,17.763,11.291l32.196,68.678c-7.145,11.083-7.548,24.166-7.865,34.916
	c-0.469,15.948-1.728,15.948-5.093,15.948c-4.812,0-7.101-6.344-10.411-20.564c-3.297-14.159-7.812-33.552-26.596-33.552
	c-28.276,0-33.2,17.431-36.458,28.964c-2.7,9.558-3.713,10.88-8.334,10.88c-4.94,0-9.674-7.092-13.139-19.57l20.793-44.348
	c0.03-0.062,0.059-0.124,0.087-0.187L170.092,116.458z M107.682,214.232l-13.823,29.481c-1.758,3.75-0.144,8.216,3.607,9.975
	c3.748,1.757,8.215,0.144,9.975-3.607l13.658-29.13c5.508,10.484,12.853,15.779,21.95,15.779c16.61,0,20.316-13.12,22.769-21.802
	c3.069-10.864,5.097-18.042,22.023-18.042c5.92,0,8.382,6.472,11.986,21.953c1.623,6.97,3.301,14.178,6.345,19.96
	c5.31,10.086,13.087,12.203,18.676,12.203c8.613,0,14.706-4.012,17.62-11.603c2.069-5.391,2.262-11.955,2.466-18.905
	c0.169-5.744,0.351-11.588,1.486-16.981l58.433,124.645c-16.905,2.371-29.958,16.92-29.958,34.468
	c0,13.915,8.209,25.943,20.036,31.512v14.819h-23.105c-3.382-13.974-15.986-24.387-30.985-24.387c-4.918,0-9.721,1.14-14.065,3.287
	c-8.792-11.477-22.433-18.34-37.223-18.34c-5.735,0-11.375,1.044-16.67,3.059c-9.61-23.896-32.395-40.19-58.562-41.243l14.89-56.144
	c1.063-4.004-1.322-8.11-5.326-9.172c-4.002-1.062-8.11,1.322-9.172,5.326l-16.25,61.267c-20.496,4.17-38.028,17.902-46.865,37.141
	c-0.084-0.008-0.168-0.011-0.251-0.019l41.636-88.798c1.774-2.913,1.365-6.79-1.167-9.286c-1.732-1.711-4.19-2.475-6.586-2.043
	c-2.396,0.429-4.437,1.994-5.471,4.199L41.35,355.719V222.104C62.418,203.731,84.695,201.098,107.682,214.232z M46.937,384.517
	c2.542,0,5.095,0.308,7.588,0.914c3.757,0.912,7.593-1.178,8.859-4.83c7.12-20.531,26.506-34.325,48.237-34.325
	c23.502,0,43.873,15.908,49.54,38.687c0.582,2.34,2.254,4.258,4.493,5.153c2.238,0.896,4.771,0.66,6.807-0.634
	c5.113-3.248,11.023-4.965,17.091-4.965c11.972,0,22.84,6.614,28.362,17.263c1.068,2.06,3.03,3.509,5.313,3.925
	c2.279,0.419,4.629-0.248,6.355-1.798c3.115-2.797,7.112-4.337,11.257-4.337c6.617,0,12.358,3.827,15.125,9.384H15.89
	C19.271,394.95,31.908,384.517,46.937,384.517z M309.93,408.957v-11.523c0.699-0.004,1.392-0.034,2.08-0.079v11.602L309.93,408.957
	L309.93,408.957z M385.36,408.957v-11.523c0.699-0.004,1.392-0.034,2.08-0.079v11.603L385.36,408.957L385.36,408.957z
	 M457.89,408.957v-11.523c0.699-0.004,1.391-0.034,2.08-0.079v11.603L457.89,408.957L457.89,408.957z M496.923,408.764
	c-0.123,0.193-0.256,0.193-0.353,0.193h-21.6v-16.143c4.048-2.329,7.587-5.444,10.403-9.142l11.577,24.687
	C496.987,408.442,497.047,408.568,496.923,408.764z"/>
<path d="M225.227,311.799c0.783,3.488,3.879,5.859,7.312,5.859c0.544,0,1.097-0.06,1.649-0.184c4.041-0.907,6.582-4.919,5.676-8.961
	l-6.716-29.922c-0.907-4.04-4.919-6.584-8.961-5.676c-4.041,0.907-6.582,4.919-5.676,8.961L225.227,311.799z"/>
<path d="M204.836,318.106c4.143,0,7.5-3.357,7.5-7.5v-0.9c0-4.143-3.357-7.5-7.5-7.5s-7.5,3.357-7.5,7.5v0.9
	C197.336,314.749,200.693,318.106,204.836,318.106z"/>
<path d="M344.726,136.132c4.143,0,7.5-3.357,7.5-7.5v-0.9c0-4.143-3.357-7.5-7.5-7.5s-7.5,3.357-7.5,7.5v0.9
	C337.226,132.774,340.583,136.132,344.726,136.132z"/>
<path d="M440.687,155.337c4.143,0,7.5-3.357,7.5-7.5v-0.9c0-4.143-3.357-7.5-7.5-7.5s-7.5,3.357-7.5,7.5v0.9
	C433.187,151.979,436.544,155.337,440.687,155.337z"/>
<path d="M325.296,147.63c4.143,0,7.5-3.357,7.5-7.5v-0.9c0-4.143-3.357-7.5-7.5-7.5s-7.5,3.357-7.5,7.5v0.9
	C317.796,144.272,321.153,147.63,325.296,147.63z"/>
<path d="M76.652,237.18c4.143,0,7.5-3.357,7.5-7.5v-0.9c0-4.143-3.357-7.5-7.5-7.5s-7.5,3.357-7.5,7.5v0.9
	C69.152,233.822,72.51,237.18,76.652,237.18z"/>
<path d="M204.836,168.868c4.143,0,7.5-3.357,7.5-7.5v-0.9c0-4.143-3.357-7.5-7.5-7.5s-7.5,3.357-7.5,7.5v0.9
	C197.336,165.511,200.693,168.868,204.836,168.868z"/>
<g>
</g>
<g>
</g>
<g>
</g>
<g>
</g>
<g>
</g>
<g>
</g>
<g>
</g>
<g>
</g>
<g>
</g>
<g>
</g>
<g>
</g>
<g>
</g>
<g>
</g>
<g>
</g>
<g>
</g>
</svg>
