<?xml version="1.0" encoding="iso-8859-1"?>
<!-- Generator: Adobe Illustrator 19.0.0, SVG Export Plug-In . SVG Version: 6.00 Build 0)  -->
<svg version="1.1" id="Capa_1" xmlns="http://www.w3.org/2000/svg" xmlns:xlink="http://www.w3.org/1999/xlink" height="512" width="512"
	 viewBox="0 0 512 512" style="enable-background:new 0 0 512 512;" xml:space="preserve">
<path style="fill:#799EE5;" d="M376.385,408.246h-240.77c-6.584,0-12.569,3.821-15.341,9.794l-28.967,62.432
	c-5.201,11.209,2.984,24.029,15.34,24.029h298.704c12.356,0,20.541-12.82,15.341-24.029l-28.967-62.432
	C388.955,412.067,382.969,408.246,376.385,408.246z"/>
<path style="fill:#D1E9FA;" d="M99.111,463.653h213.486L271.749,504.5h20.593l93.412-93.411c-2.723-1.814-5.964-2.843-9.37-2.843
	h-8.381l-40.847,40.847H105.867L99.111,463.653z"/>
<path style="fill:#F8E8B9;" d="M256,7.5c87.935,0,159.221,71.286,159.221,159.221c0,98.115-91.048,223.137-135.444,278.266
	c-12.225,15.181-35.33,15.181-47.555,0c-44.395-55.129-135.443-180.15-135.443-278.266C96.779,78.786,168.064,7.5,256,7.5z"/>
<path style="fill:#F0DBA5;" d="M199.848,17.696C139.623,40.4,96.779,98.553,96.779,166.721c0,98.115,91.048,223.137,135.444,278.266
	c12.225,15.181,35.33,15.181,47.555,0c8.878-11.024,19.624-24.849,31.132-40.69C188.398,330.206,151.309,110.824,199.848,17.696z"/>
<circle style="fill:#EFA8B8;" cx="256" cy="143.44" r="84.5"/>
<path style="fill:#EB8EA3;" d="M327.068,189.115C256,199.541,207.877,128.766,230.523,62.859
	c-34.213,10.807-59.018,42.792-59.018,80.578c0,46.665,37.83,84.495,84.495,84.495C285.831,227.932,312.032,212.459,327.068,189.115
	z"/>
<path style="fill:#9D7D75;" d="M256,361.287L256,361.287c19.878,0,37.264-13.387,42.344-32.605l28.708-108.6H184.947l28.708,108.6
	C218.736,347.9,236.122,361.287,256,361.287z"/>
<path style="fill:#8A6C68;" d="M327.052,220.082l-3.239,12.253c-85.057,4.276-125.288,11.981-73.457,128.55
	c-17.453-2.263-32.108-14.833-36.7-32.204l-28.708-108.6L327.052,220.082z"/>
<path style="fill:#B18E82;" d="M178.465,179h155.069c7.583,0,13.731,6.148,13.731,13.731v13.621c0,7.583-6.148,13.731-13.731,13.731
	H178.465c-7.583,0-13.731-6.148-13.731-13.731v-13.621C164.734,185.148,170.882,179,178.465,179z"/>
<path style="fill:#EB8EA3;" d="M226.237,188.644c0-5.326,4.318-9.644,9.644-9.644v-8.514h-46.924V179
	c5.326,0,9.644,4.318,9.644,9.644v2.699c0,7.632,6.187,13.818,13.818,13.818l0,0c7.632,0,13.818-6.187,13.818-13.818
	L226.237,188.644L226.237,188.644z"/>
<circle style="fill:#EFA8B8;" cx="203.85" cy="152.32" r="7.281"/>
<g>
	<circle style="fill:#EB8EA3;" cx="254.63" cy="90.94" r="7.281"/>
	<circle style="fill:#EB8EA3;" cx="306.9" cy="137.4" r="7.281"/>
</g>
<path d="M427.496,477.315l-28.967-62.433c-3.985-8.587-12.678-14.136-22.145-14.136h-53.676
	c15.904-22.344,32.724-47.938,47.979-75.1c34.527-61.479,52.034-114.948,52.034-158.925C422.722,74.791,347.931,0,256,0
	c-40.05,0-78.767,14.411-109.019,40.58c-3.133,2.709-3.475,7.445-0.767,10.578c2.711,3.134,7.447,3.476,10.579,0.766
	C184.321,28.113,219.554,15,256,15c83.659,0,151.722,68.063,151.722,151.722c0,96.963-93.561,223.611-133.786,273.562
	c-4.395,5.459-10.933,8.59-17.935,8.59s-13.54-3.131-17.936-8.59c-40.226-49.95-133.786-176.599-133.786-273.562
	c0-32.47,10.107-63.435,29.229-89.546c2.447-3.342,1.723-8.035-1.619-10.482c-3.342-2.449-8.035-1.723-10.482,1.619
	c-21.019,28.701-32.128,62.73-32.128,98.409c0,43.977,17.507,97.446,52.034,158.925c15.255,27.162,32.074,52.755,47.979,75.1
	h-53.677c-9.468,0-18.16,5.549-22.144,14.137l-28.967,62.432c-3.525,7.599-2.938,16.35,1.569,23.41
	C90.58,507.785,98.272,512,106.648,512H354.44c4.142,0,7.5-3.357,7.5-7.5s-3.358-7.5-7.5-7.5H106.648
	c-3.277,0-6.169-1.584-7.933-4.347c-1.764-2.763-1.984-6.053-0.604-9.026l28.967-62.432c1.535-3.311,4.886-5.449,8.536-5.449h64.563
	c9.503,12.846,18.436,24.3,26.204,33.945c7.258,9.013,18.054,14.182,29.619,14.182s22.361-5.169,29.619-14.182
	c7.768-9.646,16.701-21.1,26.204-33.945h64.562c3.65,0,7.001,2.14,8.537,5.449l28.967,62.432c1.38,2.974,1.159,6.264-0.604,9.026
	S408.629,497,405.352,497h-16.51c-4.143,0-7.5,3.357-7.5,7.5s3.357,7.5,7.5,7.5h16.51c8.376,0,16.068-4.215,20.575-11.275
	C430.435,493.665,431.022,484.913,427.496,477.315z M157.234,192.73v13.621c0,11.706,9.524,21.23,21.231,21.23h0.706l27.233,103.017
	c5.943,22.484,26.338,38.189,49.595,38.189s43.651-15.704,49.595-38.189l27.233-103.017h0.706c11.707,0,21.231-9.524,21.231-21.23
	V192.73c0-8.35-4.858-15.569-11.886-19.034c3.393-9.699,5.115-19.84,5.115-30.259c0-50.727-41.268-91.995-91.995-91.995
	s-91.995,41.268-91.995,91.995c0,10.419,1.723,20.56,5.116,30.259C162.093,177.162,157.234,184.38,157.234,192.73z M291.093,326.765
	c-4.205,15.91-18.636,27.023-35.093,27.023s-30.888-11.112-35.093-27.023l-26.219-99.183h122.625L291.093,326.765z M339.766,192.73
	v13.621c0,3.436-2.796,6.23-6.231,6.23H214.264c10.895-0.938,19.473-10.105,19.473-21.239v-2.698c0-1.183,0.962-2.145,2.145-2.145
	h96.724c0.012,0,0.024,0.002,0.036,0.002c0.009,0,0.018-0.002,0.028-0.002h0.865C336.97,186.5,339.766,189.295,339.766,192.73z
	 M256,66.442c42.455,0,76.995,34.54,76.995,76.995c0,9.708-1.79,19.124-5.304,28.063H235.88c-9.453,0-17.145,7.691-17.145,17.145
	v2.698c0,3.484-2.834,6.318-6.317,6.318c-3.484,0-6.318-2.834-6.318-6.318v-2.698c0-9.453-7.691-17.145-17.145-17.145h-4.648
	c-3.514-8.938-5.304-18.355-5.304-28.063C179.005,100.982,213.545,66.442,256,66.442z M172.234,192.73
	c0-3.436,2.796-6.23,6.231-6.23h10.49c1.183,0,2.145,0.962,2.145,2.145v2.698c0,11.134,8.578,20.301,19.474,21.239h-32.108
	c-3.436,0-6.231-2.795-6.231-6.23V192.73H172.234z"/>
<g>
</g>
<g>
</g>
<g>
</g>
<g>
</g>
<g>
</g>
<g>
</g>
<g>
</g>
<g>
</g>
<g>
</g>
<g>
</g>
<g>
</g>
<g>
</g>
<g>
</g>
<g>
</g>
<g>
</g>
</svg>
