<svg id="Layer_5" enable-background="new 0 0 64 64" height="512" viewBox="0 0 64 64" width="512" xmlns="http://www.w3.org/2000/svg"><g><g><g><path d="m62 38v24h-58c-.55 0-1.05-.22-1.41-.59-.37-.36-.59-.86-.59-1.41 0-1.1.9-2 2-2h9c.55 0 1.05-.22 1.41-.59.37-.36.59-.86.59-1.41 0-1.1-.9-2-2-2h-4c-.55 0-1.05-.22-1.41-.59-.37-.36-.59-.86-.59-1.41 0-1.1.9-2 2-2h21c.55 0 1.05-.22 1.41-.59.37-.36.59-.86.59-1.41 0-1.1-.9-2-2-2h-11v-8h13z" fill="#69d6f4"/></g><g><circle cx="20" cy="7" fill="#fcd770" r="5"/></g><g><path d="m55.52 13.11 2.48 14.89c-1.59 0-2.94.93-3.59 2.27-.44-.17-.91-.27-1.41-.27s-.97.1-1.41.27c-.44-.91-1.2-1.63-2.14-2l-2.94-9.13 1.74-6.4c.44-1.62 1.92-2.74 3.59-2.74.92 0 1.76.33 2.41.88.66.56 1.12 1.34 1.27 2.23z" fill="#dfb28b"/></g><g><path d="m31.8 11.61c.57 1.11 1.06 2.39 2.2 2.39 1.99 0 1.99-4 3.99-4s2 4 4.01 4c1.08 0 1.58-1.18 2.13-2.26l2.38 7.4 2.94 9.13c-.45-.17-.93-.27-1.45-.27-1.75 0-3.22 1.13-3.76 2.69-.64-.44-1.41-.69-2.24-.69-.5 0-.97.1-1.41.27-.65-1.34-2-2.27-3.59-2.27s-2.94.93-3.59 2.27c-.44-.17-.91-.27-1.41-.27-2.21 0-4 1.79-4 4s1.79 4 4 4h-13c3.31 0 6-3.58 6-8 0-3.58-1.77-6.61-4.19-7.63l1.49-2.96c.44-.88 1.28-1.49 2.26-1.63l3.6-.52c1.13-.16 2.07-.94 2.43-2.02z" fill="#cf9e76"/></g><g><path d="m34 14c-1.14 0-1.63-1.28-2.2-2.39l2.26-6.78c.56-1.69 2.14-2.83 3.92-2.83.9 0 1.75.29 2.44.79.69.51 1.22 1.23 1.5 2.08l2.21 6.87c-.55 1.08-1.05 2.26-2.13 2.26-2.01 0-2.01-4-4.01-4s-2 4-3.99 4z" fill="#b4dd7f"/></g><g><path d="m62 32v6h-30c-2.21 0-4-1.79-4-4s1.79-4 4-4c.5 0 .97.1 1.41.27.65-1.34 2-2.27 3.59-2.27s2.94.93 3.59 2.27c.44-.17.91-.27 1.41-.27.83 0 1.6.25 2.24.69.54-1.56 2.01-2.69 3.76-2.69.52 0 1 .1 1.45.27.94.37 1.7 1.09 2.14 2 .44-.17.91-.27 1.41-.27s.97.1 1.41.27c.65-1.34 2-2.27 3.59-2.27 2.21 0 4 1.79 4 4z" fill="#b4dd7f"/></g><g><path d="m19 38c-3.22 0-5.84-3.38-5.99-7.62 1.8-1.62 2.97-4.29 2.99-7.31.88-.68 1.91-1.07 3-1.07.63 0 1.24.13 1.81.37 2.42 1.02 4.19 4.05 4.19 7.63 0 4.42-2.69 8-6 8z" fill="#b4dd7f"/></g><g><path d="m9 32c-3.87 0-7-4.03-7-9s3.13-9 7-9 7 4.03 7 9v.07c-.02 3.02-1.19 5.69-2.99 7.31-1.13 1.02-2.51 1.62-4.01 1.62z" fill="#a0d468"/></g></g><g><path d="m20 13c3.309 0 6-2.691 6-6s-2.691-6-6-6-6 2.691-6 6 2.691 6 6 6zm0-10c2.206 0 4 1.794 4 4s-1.794 4-4 4-4-1.794-4-4 1.794-4 4-4z"/><path d="m58.862 27.087-2.357-14.139c-.381-2.288-2.341-3.948-4.66-3.948-2.125 0-3.999 1.432-4.558 3.481l-.857 3.142-3.555-11.058c-.686-2.132-2.652-3.565-4.892-3.565-2.215 0-4.174 1.412-4.875 3.514l-3.47 10.411c-.241.724-.86 1.24-1.614 1.348l-3.609.515c-1.299.187-2.425.998-3.012 2.172l-1.101 2.203c-.423-.104-.857-.163-1.302-.163-.722 0-1.43.156-2.109.429-.606-4.768-3.908-8.429-7.891-8.429-4.411 0-8 4.486-8 10 0 5.089 3.06 9.295 7 9.913v8.087h-7v2h8.687c1.87 0 3.627.729 4.95 2.05l1.071 1.071c.565.567 1.319.879 2.121.879h12.171c.551 0 1 .448 1 1s-.449 1-1 1h-21c-1.654 0-3 1.346-3 3s1.346 3 3 3h4c.551 0 1 .448 1 1s-.449 1-1 1h-9c-1.654 0-3 1.346-3 3s1.346 3 3 3h59v-24-1-6c0-2.462-1.792-4.502-4.138-4.913zm2.138 4.913v5h-29c-1.654 0-3-1.346-3-3s1.346-3 3-3c.347 0 .692.066 1.056.204l.855.323.398-.823c.509-1.051 1.54-1.704 2.691-1.704s2.182.653 2.69 1.704l.398.823.855-.323c.997-.376 1.953-.22 2.735.31l1.075.728.429-1.226c.423-1.205 1.555-2.016 2.818-2.016 1.151 0 2.182.653 2.69 1.704l.398.823.855-.323c.729-.275 1.384-.275 2.112 0l.855.323.398-.823c.51-1.051 1.541-1.704 2.692-1.704 1.654 0 3 1.346 3 3zm-11.784-18.993c.323-1.182 1.404-2.007 2.629-2.007 1.337 0 2.468.957 2.688 2.276l2.31 13.86c-1.168.277-2.195.967-2.899 1.959-.631-.127-1.257-.127-1.888 0-.472-.665-1.089-1.193-1.796-1.554l-2.709-8.429zm-14.211-7.861c.428-1.284 1.625-2.146 2.978-2.146 1.369 0 2.569.875 2.988 2.178l2.081 6.475c-.398.79-.715 1.347-1.055 1.347-.356 0-.684-.6-1.108-1.447-.539-1.077-1.277-2.553-2.896-2.553-1.618 0-2.355 1.476-2.893 2.553-.423.847-.75 1.447-1.104 1.447s-.68-.6-1.104-1.447l-.014-.027zm-11.814 14.708c.293-.587.856-.993 1.506-1.086l3.609-.515c1.51-.217 2.747-1.249 3.229-2.695l.516-1.548c.467.56 1.076.99 1.945.99 1.618 0 2.355-1.476 2.893-2.553.424-.847.751-1.447 1.104-1.447.355 0 .683.6 1.107 1.447.54 1.077 1.278 2.553 2.897 2.553.809 0 1.398-.368 1.852-.871l4.137 12.872c-1.722.005-3.296.906-4.195 2.329-.854-.328-1.796-.424-2.734-.234-.93-1.31-2.419-2.096-4.057-2.096s-3.127.786-4.056 2.096c-.316-.064-.631-.096-.944-.096-2.757 0-5 2.243-5 5 0 1.13.391 2.162 1.026 3h-4.636c1.59-1.651 2.61-4.174 2.61-7 0-3.512-1.576-6.553-3.864-8.035zm.809 10.146c0 3.38-1.721 6.208-4 6.859v-7.445l1.707-1.707-1.414-1.414-2.293 2.293v3l-1.293-1.293-1.414 1.414 2.707 2.707v2.437c-2.076-.613-3.725-3.085-3.964-6.091 1.685-1.712 2.796-4.263 2.939-7.138.637-.401 1.327-.622 2.025-.622 2.757 0 5 3.141 5 7zm-21-7c0-4.411 2.691-8 6-8s6 3.589 6 8c0 3.956-2.167 7.242-5 7.88v-8.466l1.707-1.707-1.414-1.414-2.293 2.293v4l-2.293-2.293-1.414 1.414 3.707 3.707v2.466c-2.833-.638-5-3.924-5-7.88zm14.121 21.707-1.071-1.071c-1.626-1.626-3.765-2.542-6.05-2.62v-8.102c.773-.121 1.512-.377 2.201-.755.672 3.541 2.965 6.221 5.799 6.74v6.101h-.171c-.267 0-.519-.104-.708-.293zm43.879 16.293h-57c-.551 0-1-.448-1-1s.449-1 1-1h9c1.654 0 3-1.346 3-3s-1.346-3-3-3h-4c-.551 0-1-.448-1-1s.449-1 1-1h21c1.654 0 3-1.346 3-3s-1.346-3-3-3h-10v-6h12 29z"/><path d="m46 56.5c0 1.379 1.122 2.5 2.5 2.5h3.5v-2h-3.5c-.276 0-.5-.225-.5-.5 0-1.379-1.122-2.5-2.5-2.5h-5.5v2h5.5c.276 0 .5.225.5.5z"/><path d="m28 55.5c0-1.379-1.122-2.5-2.5-2.5h-5.5v2h5.5c.276 0 .5.225.5.5 0 1.379 1.122 2.5 2.5 2.5h3.5v-2h-3.5c-.276 0-.5-.225-.5-.5z"/><path d="m53 45.5c0 1.379 1.122 2.5 2.5 2.5h3.5v-2h-3.5c-.276 0-.5-.225-.5-.5 0-1.379-1.122-2.5-2.5-2.5h-5.5v2h5.5c.276 0 .5.225.5.5z"/><path d="m43.765 24.552h2v1.486h-2z" transform="matrix(.949 -.316 .316 .949 -5.703 15.462)"/><path d="m41.316 16.949h2v2h-2z" transform="matrix(.949 -.316 .316 .949 -3.504 14.299)"/><path d="m42.581 20.744h2v2h-2z" transform="matrix(.949 -.316 .316 .949 -4.641 14.905)"/></g></g></svg>