<svg id="Capa_1" enable-background="new 0 0 512 512" height="512" viewBox="0 0 512 512" width="512" xmlns="http://www.w3.org/2000/svg"><g><g><path d="m70 202h372v300h-372z" fill="#c1b0b5"/><path d="m502 162.38v17.66c0 22.87-24.57 37.33-44.57 26.22 0 0-137.399-74.057-201.43-108.57-8.757 4.72-201.43 108.57-201.43 108.57-20 11.11-44.57-3.35-44.57-26.22v-17.66l246-133.33c191.03 103.541 245.848 133.247 246 133.33z" fill="#c1b0b5"/><circle cx="442" cy="232" fill="#ffda8f" r="30"/><circle cx="442" cy="292" fill="#ffda8f" r="30"/><circle cx="442" cy="352" fill="#ffda8f" r="30"/><circle cx="442" cy="412" fill="#ffda8f" r="30"/><circle cx="442" cy="472" fill="#ffda8f" r="30"/><g><path d="m382 10v87.345l60 33.103v-120.448z" fill="#ffda8f"/></g><g fill="#ffda8f"><path d="m316 442c0-27.439 0-152.456 0-180h-120v180h-36v60h192v-60z"/><path d="m256 97.69c-3.048 1.643-189.563 102.176-199.31 107.43 4.01-2 8.53-3.12 13.31-3.12h372c4.78 0 9.3 1.12 13.31 3.12-.105-.057-198.959-107.241-199.31-107.43z"/><circle cx="70" cy="232" r="30"/><circle cx="70" cy="292" r="30"/><circle cx="70" cy="352" r="30"/><circle cx="70" cy="412" r="30"/><circle cx="70" cy="472" r="30"/></g></g><g><circle cx="140" cy="91" r="10"/><path d="m512 180.04v-17.66c0-3.669-2.01-7.044-5.235-8.792l-54.765-29.682v-113.906c0-5.523-4.478-10-10-10h-60c-5.522 0-10 4.477-10 10v70.547l-111.235-60.289c-2.973-1.61-6.559-1.611-9.529 0l-76.063 41.226c-4.855 2.631-6.659 8.701-4.027 13.557 2.633 4.856 8.703 6.658 13.557 4.026l71.297-38.643 236 127.91v11.706c0 6.999-4.114 23.916-30.125 17.256-.155-.089-200.988-108.332-201.131-108.409-2.961-1.597-6.527-1.597-9.488 0-.101.054-201.44 108.574-201.542 108.631-13.321 7.401-29.714-2.213-29.714-17.478v-11.706l85.602-46.395c4.855-2.632 6.659-8.702 4.027-13.557-2.632-4.856-8.704-6.657-13.557-4.027l-90.837 49.233c-3.226 1.748-5.235 5.123-5.235 8.792v17.66c0 19.788 13.996 35.536 32.093 39.249-1.362 4.046-2.093 8.331-2.093 12.711 0 11.938 5.264 22.665 13.585 30-8.321 7.335-13.585 18.062-13.585 30s5.264 22.665 13.585 30c-8.321 7.335-13.585 18.062-13.585 30s5.264 22.665 13.585 30c-8.321 7.335-13.585 18.062-13.585 30s5.264 22.665 13.585 30c-8.321 7.335-13.585 18.062-13.585 30 0 22.056 17.944 40 40 40h372c22.056 0 40-17.944 40-40 0-11.938-5.264-22.665-13.585-30 8.321-7.335 13.585-18.062 13.585-30s-5.264-22.665-13.585-30c8.321-7.335 13.585-18.062 13.585-30s-5.264-22.665-13.585-30c8.321-7.335 13.585-18.062 13.585-30s-5.264-22.665-13.585-30c8.321-7.335 13.585-18.062 13.585-30 0-4.382-.731-8.669-2.095-12.716 18.077-3.703 32.095-19.43 32.095-39.244zm-120-160.04h40v93.066l-40-21.68zm-86 252v70h-20c-5.522 0-10 4.477-10 10s4.478 10 10 10h20v70h-100v-160zm-120 40h-81.381c3.415-5.888 5.381-12.717 5.381-20s-1.966-14.112-5.381-20h81.381zm0 20v40h-81.381c3.415-5.888 5.381-12.717 5.381-20s-1.966-14.112-5.381-20zm0 60v40h-81.381c3.415-5.888 5.381-12.717 5.381-20s-1.966-14.112-5.381-20zm-36 60v40h-45.381c3.415-5.888 5.381-12.717 5.381-20s-1.966-14.112-5.381-20zm20 0h172v40h-172zm192-.01h45.381c-3.415 5.898-5.381 12.727-5.381 20.01s1.966 14.112 5.381 20h-45.381zm-36-19.99v-40.01h81.381c-3.415 5.898-5.381 12.727-5.381 20.01s1.966 14.112 5.381 20zm0-60v-40.01h81.381c-3.415 5.898-5.381 12.727-5.381 20.01s1.966 14.112 5.381 20zm0-60v-40.01h81.381c-3.415 5.898-5.381 12.727-5.381 20.01s1.966 14.112 5.381 20zm-221.381-60c3.415-5.888 5.381-12.717 5.381-20s-1.966-14.122-5.381-20.01h302.763c-3.416 5.888-5.382 12.727-5.382 20.01s1.966 14.112 5.381 20zm81.795-105.444 45.444 45.444h-129.756zm223.478 45.444h-129.75l45.442-45.443zm-153.892-82.95 51.206 27.601-51.206 51.207-51.207-51.208zm-206 122.95c0-10.903 8.885-20 20-20 11.028 0 20 8.972 20 20s-8.972 20-20 20-20-8.972-20-20zm0 60c0-11.028 8.972-20 20-20s20 8.972 20 20-8.972 20-20 20-20-8.972-20-20zm0 60c0-11.028 8.972-20 20-20s20 8.972 20 20-8.972 20-20 20-20-8.972-20-20zm0 60c0-11.028 8.972-20 20-20s20 8.972 20 20-8.972 20-20 20-20-8.972-20-20zm0 60c0-11.028 8.972-20 20-20s20 8.972 20 20-8.972 20-20 20-20-8.972-20-20zm412 0c0 11.028-8.972 20-20 20s-20-8.972-20-20 8.972-20 20-20 20 8.972 20 20zm0-60c0 11.028-8.972 20-20 20s-20-8.972-20-20 8.972-20 20-20 20 8.972 20 20zm0-60c0 11.028-8.972 20-20 20s-20-8.972-20-20 8.972-20 20-20 20 8.972 20 20zm0-60c0 11.028-8.972 20-20 20s-20-8.972-20-20 8.972-20 20-20 20 8.972 20 20zm-40-60c0-11.028 8.972-20 20-20 11.06 0 20 9.035 20 20 0 11.028-8.972 20-20 20s-20-8.972-20-20z"/></g></g></svg>