<svg height="512" viewBox="0 0 512 512" width="512" xmlns="http://www.w3.org/2000/svg"><path d="m192 272h128v176h-128z" fill="#d7e6e6"/><path d="m256 272h64v176h-64z" fill="#aac3d7"/><rect fill="#aac3d7" height="160" rx="8" width="16" x="192" y="280"/><rect fill="#aac3d7" height="160" rx="8" width="16" x="224" y="280"/><path d="m256 412a127.043 127.043 0 0 1 -90.426-37.456l-62.059-62.059a12 12 0 0 1 16.97-16.97l62.059 62.058a103.881 103.881 0 0 0 146.912 0l62.059-62.058a12 12 0 0 1 16.97 16.97l-62.058 62.059a127.049 127.049 0 0 1 -90.427 37.456z" fill="#d7322d"/><path d="m408.485 295.515a12 12 0 0 0 -16.97 0l-62.059 62.058a103.881 103.881 0 0 1 -146.912 0l-62.059-62.058a12 12 0 0 0 -16.97 0l8.485 8.485 62.059 62.059a115.882 115.882 0 0 0 81.941 33.941 115.882 115.882 0 0 0 81.941-33.941l62.059-62.059z" fill="#f04b37"/><circle cx="96" cy="240" fill="#f5871e" r="40"/><path d="m96 200 5.95 11.9a19.418 19.418 0 0 1 2.05 8.684 19.416 19.416 0 0 1 -19.416 19.416h-28.584a40 40 0 0 1 40-40z" fill="#fabe19"/><rect fill="#fabe19" height="48" rx="16" width="64" x="64" y="272"/><path d="m80 320h32v144h-32z" fill="#f5871e"/><path d="m96 464h-16v-128a16 16 0 0 1 16 16z" fill="#fabe19"/><path d="m80 464h32a16 16 0 0 1 16 16v8a8 8 0 0 1 -8 8h-48a8 8 0 0 1 -8-8v-8a16 16 0 0 1 16-16z" fill="#fabe19"/><path d="m64 480h64a0 0 0 0 1 0 0v8a8 8 0 0 1 -8 8h-48a8 8 0 0 1 -8-8v-8a0 0 0 0 1 0 0z" fill="#f5871e"/><path d="m96 304h-32a16 16 0 0 0 16 16h32a16 16 0 0 0 16-16v-16h-16a16 16 0 0 0 -16 16z" fill="#f5871e"/><circle cx="80" cy="224" fill="#ffdc37" r="8"/><circle cx="416" cy="240" fill="#f5871e" r="40"/><path d="m416 200 5.95 11.9a19.418 19.418 0 0 1 2.05 8.684 19.416 19.416 0 0 1 -19.416 19.416h-28.584a40 40 0 0 1 40-40z" fill="#fabe19"/><rect fill="#fabe19" height="48" rx="16" width="64" x="384" y="272"/><path d="m400 320h32v144h-32z" fill="#f5871e"/><path d="m416 464h-16v-128a16 16 0 0 1 16 16z" fill="#fabe19"/><path d="m400 464h32a16 16 0 0 1 16 16v8a8 8 0 0 1 -8 8h-48a8 8 0 0 1 -8-8v-8a16 16 0 0 1 16-16z" fill="#fabe19"/><path d="m384 480h64a0 0 0 0 1 0 0v8a8 8 0 0 1 -8 8h-48a8 8 0 0 1 -8-8v-8a0 0 0 0 1 0 0z" fill="#f5871e"/><path d="m416 304h-32a16 16 0 0 0 16 16h32a16 16 0 0 0 16-16v-16h-16a16 16 0 0 0 -16 16z" fill="#f5871e"/><circle cx="400" cy="224" fill="#ffdc37" r="8"/><path d="m192 448h128a16 16 0 0 1 16 16 0 0 0 0 1 0 0h-160a0 0 0 0 1 0 0 16 16 0 0 1 16-16z" fill="#d7e6e6"/><path d="m176 464h160a16 16 0 0 1 16 16v16a0 0 0 0 1 0 0h-192a0 0 0 0 1 0 0v-16a16 16 0 0 1 16-16z" fill="#d7e6e6"/><path d="m256 480h96v16h-96z" fill="#aac3d7"/><path d="m176 256h160a0 0 0 0 1 0 0 16 16 0 0 1 -16 16h-128a16 16 0 0 1 -16-16 0 0 0 0 1 0 0z" fill="#aac3d7"/><path d="m164 224h184a4 4 0 0 1 4 4v12a16 16 0 0 1 -16 16h-160a16 16 0 0 1 -16-16v-12a4 4 0 0 1 4-4z" fill="#aac3d7"/><path d="m164 224h92a0 0 0 0 1 0 0v16a0 0 0 0 1 0 0h-96a0 0 0 0 1 0 0v-12a4 4 0 0 1 4-4z" fill="#d7e6e6"/><rect fill="#f04b37" height="16" rx="8" width="80" x="216" y="16"/><path d="m280 69.4v-37.4h-48v37.4a15.873 15.873 0 0 1 -7.878 13.78 63.953 63.953 0 0 0 -32.122 55.487v8.078a109.256 109.256 0 0 0 32 77.255h64a109.256 109.256 0 0 0 32-77.255v-8.078a63.953 63.953 0 0 0 -32.122-55.49 15.873 15.873 0 0 1 -7.878-13.777z" fill="#d7322d"/><path d="m232 40v29.4a15.873 15.873 0 0 1 -7.878 13.78 63.951 63.951 0 0 0 -32.122 55.487v8.078a109.256 109.256 0 0 0 32 77.255h32v-160a24 24 0 0 0 -24-24z" fill="#f04b37"/><path d="m208 150.745a4 4 0 0 1 -4-4v-8.078a52.179 52.179 0 0 1 26.107-45.09 4 4 0 0 1 3.991 6.934 44.154 44.154 0 0 0 -22.098 38.156v8.078a4 4 0 0 1 -4 4z" fill="#f5826e"/><g fill="#fabe19"><path d="m360 16a8 8 0 0 1 8 8v16a0 0 0 0 1 0 0h-16a0 0 0 0 1 0 0v-16a8 8 0 0 1 8-8z"/><path d="m372 36h16a0 0 0 0 1 0 0v16a8 8 0 0 1 -8 8 8 8 0 0 1 -8-8v-16a0 0 0 0 1 0 0z" transform="matrix(0 -1 1 0 332 428)"/><path d="m360 56a8 8 0 0 1 8 8v16a0 0 0 0 1 0 0h-16a0 0 0 0 1 0 0v-16a8 8 0 0 1 8-8z" transform="matrix(-1 0 0 -1 720 136)"/><path d="m332 36h16a0 0 0 0 1 0 0v16a8 8 0 0 1 -8 8 8 8 0 0 1 -8-8v-16a0 0 0 0 1 0 0z" transform="matrix(0 1 -1 0 388 -292)"/><path d="m136 64a8 8 0 0 1 8 8v16a0 0 0 0 1 0 0h-16a0 0 0 0 1 0 0v-16a8 8 0 0 1 8-8z"/><path d="m148 84h16a0 0 0 0 1 0 0v16a8 8 0 0 1 -8 8 8 8 0 0 1 -8-8v-16a0 0 0 0 1 0 0z" transform="matrix(0 -1 1 0 60 252)"/><path d="m136 104a8 8 0 0 1 8 8v16a0 0 0 0 1 0 0h-16a0 0 0 0 1 0 0v-16a8 8 0 0 1 8-8z" transform="matrix(-1 0 0 -1 272 232)"/><path d="m108 84h16a0 0 0 0 1 0 0v16a8 8 0 0 1 -8 8 8 8 0 0 1 -8-8v-16a0 0 0 0 1 0 0z" transform="matrix(0 1 -1 0 212 -20)"/><path d="m328 120a8 8 0 0 1 8 8v16a0 0 0 0 1 0 0h-16a0 0 0 0 1 0 0v-16a8 8 0 0 1 8-8z"/><path d="m340 140h16a0 0 0 0 1 0 0v16a8 8 0 0 1 -8 8 8 8 0 0 1 -8-8v-16a0 0 0 0 1 0 0z" transform="matrix(0 -1 1 0 196 500)"/><path d="m328 160a8 8 0 0 1 8 8v16a0 0 0 0 1 0 0h-16a0 0 0 0 1 0 0v-16a8 8 0 0 1 8-8z" transform="matrix(-1 0 0 -1 656 344)"/><path d="m300 140h16a0 0 0 0 1 0 0v16a8 8 0 0 1 -8 8 8 8 0 0 1 -8-8v-16a0 0 0 0 1 0 0z" transform="matrix(0 1 -1 0 460 -156)"/></g></svg>