<?xml version="1.0" encoding="iso-8859-1"?>
<!-- Generator: Adobe Illustrator 19.0.0, SVG Export Plug-In . SVG Version: 6.00 Build 0)  -->
<svg version="1.1" id="Capa_1" xmlns="http://www.w3.org/2000/svg" xmlns:xlink="http://www.w3.org/1999/xlink" height="512" width="512"
	 viewBox="0 0 512 512" style="enable-background:new 0 0 512 512;" xml:space="preserve">
<path style="fill:#00C37A;" d="M504.5,104.22v325.79c0,12.79-10.37,23.16-23.16,23.16H30.65c-12.78,0-23.15-10.37-23.15-23.16
	V104.22c0-11.98,9.12-21.84,20.81-23.03c0.77-0.07,1.55-0.11,2.34-0.11h450.69C494.13,81.08,504.5,91.45,504.5,104.22z"/>
<g>
	<path style="fill:#009655;" d="M149.55,195.97v2.12c0,7.64-6.53,13.65-14.14,13.01l-2.11-0.18c-0.3-0.02-30.03-2.5-49.67-2.5
		c-19.2,0-49.39,2.48-49.7,2.5l-2.1,0.18c-7.61,0.63-14.13-5.38-14.13-13.02v-2.11c0-10.11,2.99-20.22,8.91-30.24
		c-0.75-0.18-1.38-0.6-1.83-1.16c-0.45-0.57-0.71-1.28-0.71-2.05v-9.25c0-10.47,3.21-20.92,9.59-31.26v-10.66
		c0-11.12,3.47-21.35,8.4-30.27h83.14c4.93,8.92,8.39,19.15,8.39,30.27V122c6.38,10.34,9.6,20.8,9.6,31.27v9.25
		c0,1.53-1.06,2.86-2.55,3.21c2.96,5.01,5.19,10.04,6.68,15.09C148.8,185.86,149.55,190.91,149.55,195.97z"/>
	<path style="fill:#009655;" d="M481.84,289.715c-0.298-0.025-30.039-2.499-49.699-2.499c-19.233,0-49.414,2.475-49.716,2.5
		l-7.054,0.583c-4.764,0.394-8.847-3.366-8.847-8.146v-7.078c0-10.176,3.044-20.358,9.082-30.443l0,0
		c-1.592-0.377-2.716-1.799-2.716-3.435v-8.826c0-10.434,3.217-20.862,9.597-31.177v-10.742c0-36.285,37.059-63.028,41.284-65.957
		l0,0c5.035-3.491,11.707-3.491,16.742,0l0,0c4.226,2.93,41.284,29.673,41.284,65.957v10.744c6.38,10.315,9.596,20.742,9.596,31.175
		v8.827c0,1.636-1.124,3.057-2.715,3.434l0,0c6.037,10.086,9.082,20.267,9.082,30.443v7.089c0,4.783-4.089,8.543-8.855,8.144
		L481.84,289.715z"/>
</g>
<path style="fill:#2CD7FF;" d="M504.5,360.79v69.22c0,12.79-10.37,23.16-23.16,23.16H30.65c-12.78,0-23.15-10.37-23.15-23.16v-36.44
	c14.17-18.61,28.91-36.97,35.36-44.16c55.05-81.65,183.6-94.61,126.36-157.45c-31.06-34.1-27.74-75.18-13.9-110.88h125.86
	c16.89,22.14,55.35,40.95,111.04,57.39c4.14,1.23,8.01,2.51,11.64,3.85c85.71,31.76,32.09,96.69-10.22,146.57
	c-5.72,6.73-11.22,13.2-16.16,19.27c-29.64,36.5,48.28,47.93,99.41,51.52C485.27,360,494.79,360.36,504.5,360.79z"/>
<path style="fill:#7DF6FF;" d="M504.5,374.81v55.2c0,12.79-10.37,23.16-23.16,23.16H30.65c-12.78,0-23.15-10.37-23.15-23.16v-17.98
	l15-13.38c12.54-16.35,25.69-32.72,31.53-39.22l0.69-0.78l0.58-0.85c20.68-30.68,53.26-51.23,82-69.37
	c30.82-19.44,57.45-36.24,60.93-61.92c1.98-14.64-3.88-29.24-17.92-44.65c-20.46-22.47-25.28-51.29-14.38-85.78l5.69-15h91.03
	l11.59,15c19.92,21.48,57.26,40.11,113.73,56.78c3.79,1.12,7.39,2.31,10.69,3.53c20.25,7.5,32.02,17.05,34.99,28.36
	c6.76,25.82-28.27,67.11-51.45,94.44c-5.81,6.83-11.31,13.3-16.35,19.5c-12.48,15.36-10.94,28.15-7.46,36.18
	c6.05,13.96,24.82,33.27,117.45,39.77c0,0,13.4,0.28,17.52,0.44L504.5,374.81z"/>
<path style="fill:#2CD7FF;" d="M393.643,288.885c-6.601,0.451-11.116,0.823-11.224,0.832l-7.052,0.578
	c-4.76,0.402-8.844-3.359-8.844-8.139v-7.081c0-10.176,3.046-20.352,9.079-30.441c-0.793-0.196-1.469-0.646-1.949-1.254
	s-0.764-1.371-0.764-2.184v-8.825c0-10.431,3.213-20.862,9.598-31.175v-10.744c0-19.569,10.774-36.356,21.371-48.129
	C489.569,174.076,435.945,239.012,393.643,288.885z"/>
<path style="fill:#A5B1B2;" d="M312.782,313.184v50.509h-77.434v-50.509c0-0.695,0.02-1.381,0.049-2.057
	c1.077-20.431,17.982-36.66,38.668-36.66c10.695,0,20.372,4.339,27.375,11.342S312.782,302.489,312.782,313.184z"/>
<rect x="235.35" y="348.64" style="fill:#728080;" width="77.43" height="15.05"/>
<path style="fill:#009655;" d="M312.779,313.184v16.425c-4.868-0.118-9.902-3.183-14.907-10.529
	c-26.924-39.451-27.923-13.438-52.233-8.119c-4.133,0.901-7.502,0.862-10.245,0.166c1.077-20.431,17.982-36.66,38.668-36.66
	c10.695,0,20.372,4.339,27.375,11.342C308.44,292.812,312.779,302.488,312.779,313.184z"/>
<path style="fill:#A5B1B2;" d="M356.865,210.195v30.685h-47.042v-30.685c0-0.422,0.012-0.839,0.03-1.25
	c0.655-12.412,10.925-22.272,23.491-22.272c6.498,0,12.376,2.636,16.631,6.89C354.229,197.819,356.865,203.697,356.865,210.195z"/>
<rect x="309.82" y="226.54" style="fill:#728080;" width="47.04" height="14.332"/>
<path style="fill:#A5B1B2;" d="M288.59,232.47v8.413h-47.042v-8.413c0-0.421,0.01-0.832,0.029-1.244
	c0.196-3.81,1.312-7.385,3.124-10.509c4.065-7.032,11.665-11.763,20.372-11.763c6.494,0,12.37,2.635,16.631,6.885
	c1.45,1.45,2.703,3.085,3.732,4.878C287.444,224.174,288.59,228.19,288.59,232.47z"/>
<path style="fill:#728080;" d="M242.312,226.541c-0.395,1.51-0.651,3.075-0.734,4.685c-0.02,0.411-0.029,0.823-0.029,1.244v8.413
	h47.042v-8.413c0-2.048-0.269-4.034-0.763-5.929H242.312z"/>
<rect x="418.53" y="245.59" style="fill:#B4732D;" width="27.22" height="67.68"/>
<path style="fill:#8B5016;" d="M445.751,245.592v39.489c-4.729-0.156-9.379-0.249-13.611-0.249c-4.189,0-8.856,0.101-13.611,0.257
	v-39.497L445.751,245.592L445.751,245.592z"/>
<path style="fill:#60DC4D;" d="M461.799,234.576c3.439-0.274,6.553-0.691,9.034-1.09c3.501-0.562,5.927-3.869,5.316-7.362
	c-2.264-12.954-11.17-24.672-20.384-33.707c2.06-0.209,3.969-0.487,5.61-0.767c3.418-0.585,5.787-3.807,5.255-7.234
	c-3.226-20.741-22.08-38.012-30.468-44.78c-2.346-1.893-5.697-1.893-8.043,0c-8.388,6.768-27.243,24.039-30.468,44.78
	c-0.533,3.427,1.836,6.648,5.255,7.234c1.641,0.281,3.549,0.559,5.61,0.767c-9.214,9.034-18.12,20.753-20.384,33.707
	c-0.611,3.493,1.815,6.8,5.316,7.362c2.481,0.398,5.595,0.816,9.034,1.09c-9.09,8.906-17.446,19.91-20.262,31.979
	c-0.99,4.243,2.358,8.247,6.704,7.934c10.452-0.753,29.398-1.963,43.217-1.963c14.094,0,32.844,1.202,43.211,1.956
	c4.348,0.316,7.7-3.688,6.708-7.933C479.242,254.482,470.887,243.48,461.799,234.576z"/>
<path style="fill:#26BA02;" d="M475.354,274.486c-2.381-0.172-5.204-0.368-8.311-0.566c-0.415-12.709-7.593-24.519-16.438-34.338
	c-1.863-2.068-0.615-5.388,2.141-5.78c4.785-0.68,7.948-1.429,7.948-1.429c0-13.146-7.454-25.306-16.267-35.092
	c-1.84-2.044-0.764-5.313,1.941-5.809c2.891-0.531,4.729-1.021,4.729-1.021c0-20.447-16.642-38.334-26.961-47.451
	c1.481-1.309,2.832-2.438,3.985-3.368c2.345-1.893,5.696-1.891,8.041,0.002c8.389,6.77,27.242,24.041,30.467,44.782
	c0.533,3.426-1.835,6.647-5.253,7.233c-1.641,0.282-3.551,0.56-5.611,0.771c9.216,9.036,18.12,20.751,20.384,33.707
	c0.61,3.493-1.816,6.8-5.317,7.362c-2.48,0.398-5.593,0.815-9.032,1.089c9.089,8.906,17.444,19.908,20.26,31.977
	C483.051,270.797,479.7,274.8,475.354,274.486z"/>
<rect x="70.02" y="166.49" style="fill:#B4732D;" width="27.22" height="67.68"/>
<path style="fill:#8B5016;" d="M97.238,166.491v39.489c-4.729-0.156-9.379-0.249-13.611-0.249c-4.189,0-8.856,0.101-13.611,0.257
	v-39.497H97.238z"/>
<path style="fill:#60DC4D;" d="M113.286,155.474c3.916-0.312,7.41-0.81,10.028-1.254c2.955-0.501,4.917-3.289,4.475-6.253
	c-1.985-13.329-11.1-25.398-20.537-34.652c2.483-0.252,4.746-0.604,6.585-0.94c2.879-0.527,4.795-3.24,4.411-6.141
	c-2.872-21.692-23.09-39.737-31.234-46.207c-1.984-1.577-4.791-1.577-6.776,0c-8.145,6.47-28.363,24.515-31.234,46.207
	c-0.384,2.901,1.533,5.614,4.411,6.141c1.839,0.337,4.102,0.689,6.585,0.94c-9.437,9.254-18.552,21.323-20.537,34.652
	c-0.442,2.964,1.52,5.752,4.475,6.253c2.619,0.444,6.113,0.942,10.028,1.254c-9.464,9.272-18.132,20.819-20.581,33.474
	c-0.687,3.55,2.15,6.795,5.756,6.531c10.124-0.742,30.087-2.055,44.484-2.055c14.69,0,34.438,1.306,44.479,2.049
	c3.608,0.267,6.447-2.979,5.759-6.531C131.415,176.29,122.748,164.745,113.286,155.474z"/>
<path style="fill:#26BA02;" d="M128.104,195.477c-2.619-0.193-5.898-0.423-9.574-0.658c-0.415-12.709-7.593-24.519-16.438-34.338
	c-1.863-2.068-0.615-5.388,2.141-5.78c4.785-0.68,7.948-1.429,7.948-1.429c0-13.146-7.454-25.306-16.267-35.092
	c-1.84-2.044-0.764-5.313,1.941-5.809c2.891-0.531,4.729-1.021,4.729-1.021c0-20.447-16.642-38.334-26.961-47.451
	c1.762-1.557,3.339-2.859,4.619-3.876c1.983-1.576,4.79-1.573,6.773,0.002c8.145,6.471,28.362,24.517,31.233,46.209
	c0.384,2.901-1.532,5.614-4.411,6.141c-1.84,0.337-4.103,0.69-6.586,0.944c9.439,9.255,18.552,21.321,20.537,34.652
	c0.441,2.964-1.521,5.752-4.476,6.253c-2.618,0.443-6.111,0.941-10.026,1.252c9.463,9.272,18.13,20.817,20.579,33.472
	C134.553,192.497,131.71,195.742,128.104,195.477z"/>
<path d="M481.341,73.575h-64.716c-4.143,0-7.5,3.358-7.5,7.5s3.357,7.5,7.5,7.5h64.716c8.635,0,15.659,7.02,15.659,15.648V352.96
	c-6.415-0.265-12.633-0.503-18.308-0.72l-1.396-0.053c-83.136-5.852-96.234-21.592-98.268-26.279
	c-0.543-1.251-2.194-5.059,4.269-13.018c4.865-5.979,10.262-12.329,15.976-19.052l0.162-0.19c3.566-4.209,7.234-8.544,10.898-12.967
	c0.232-0.012,0.464-0.023,0.697-0.034v32.62c0,4.142,3.357,7.5,7.5,7.5h27.22c4.143,0,7.5-3.358,7.5-7.5v-32.629
	c8.319,0.407,16.213,0.936,21.558,1.324c4.462,0.324,8.674-1.438,11.574-4.832c2.877-3.368,3.991-7.961,2.981-12.288
	c-1.968-8.426-6.338-16.926-13.036-25.381c1.903-1.002,3.56-2.444,4.847-4.25c2.164-3.037,3.003-6.724,2.363-10.378
	c-1.674-9.582-6.479-19.248-14.322-28.843c3.601-3.027,5.593-7.8,4.826-12.727c-3.513-22.585-22.289-40.686-33.169-49.465
	c-5.061-4.083-12.405-4.083-17.462,0c-1.998,1.612-4.264,3.541-6.651,5.752c-3.251-1.497-6.685-2.93-10.302-4.27
	c-3.763-1.389-7.834-2.736-12.114-4.007c-44.494-13.135-76.383-27.453-95.194-42.697h86.231c4.143,0,7.5-3.358,7.5-7.5
	s-3.357-7.5-7.5-7.5H111.106c-7.006-8.954-14.805-15.752-19.425-19.421c-4.74-3.767-11.363-3.768-16.107,0
	c-4.62,3.67-12.419,10.468-19.426,19.422H30.65c-1.044,0-2.093,0.054-3.094,0.158C11.847,75.321,0,88.43,0,104.227v325.78
	c0,16.906,13.75,30.66,30.65,30.66h105.73c4.143,0,7.5-3.358,7.5-7.5s-3.357-7.5-7.5-7.5H30.65c-8.63,0-15.65-7.025-15.65-15.66
	v-33.901c6.747-8.812,15.516-19.971,22.852-29.073c2.599-3.225,2.092-7.947-1.134-10.546c-3.224-2.6-7.946-2.092-10.546,1.133
	c-3.521,4.368-7.37,9.208-11.172,14.041V104.227c0-8.066,6.046-14.759,14.085-15.57c0.511-0.053,1.037-0.08,1.565-0.08h16.051
	c-2.494,5.21-4.354,10.8-5.131,16.672c-0.623,4.693,1.318,9.146,4.769,11.901c-8.027,9.889-12.823,19.848-14.293,29.714
	c-0.857,5.753,2.252,11.27,7.252,13.674c-7.09,8.993-11.542,18.033-13.274,26.986c-0.777,4.017,0.333,8.071,3.045,11.124
	c2.481,2.793,5.957,4.347,9.651,4.347c0.322,0,0.646-0.012,0.971-0.036c5.672-0.415,14.075-0.983,22.819-1.414v32.622
	c0,4.142,3.357,7.5,7.5,7.5h27.23c4.143,0,7.5-3.358,7.5-7.5v-32.633c8.793,0.43,17.179,1.002,22.813,1.418
	c4.058,0.305,7.931-1.271,10.63-4.31c2.714-3.053,3.823-7.11,3.045-11.127c-1.733-8.951-6.185-17.987-13.273-26.978
	c5-2.404,8.109-7.921,7.252-13.675c-1.47-9.867-6.265-19.824-14.293-29.714c3.449-2.755,5.391-7.207,4.771-11.899
	c-0.778-5.872-2.638-11.463-5.132-16.674h24.154c-0.003,0.009-0.006,0.018-0.009,0.026c-7.407,23.081-12.577,57.229,4.862,88.834
	c3.537,6.41,7.995,11.779,12.306,16.971c3.673,4.423,7.142,8.601,9.877,13.191c3.235,5.429,4.676,10.489,4.282,15.038
	c-0.918,10.576-10.866,19.389-21.479,27.336c-10.094,7.558-21.112,14.452-31.768,21.12c-6.325,3.958-12.866,8.051-19.215,12.279
	c-24.708,16.455-41.829,30.919-55.515,46.901c-2.694,3.146-2.328,7.881,0.818,10.575c1.414,1.211,3.148,1.803,4.874,1.803
	c2.115,0,4.218-0.89,5.701-2.622c12.751-14.892,28.923-28.515,52.436-44.173c6.172-4.11,12.621-8.146,18.857-12.048
	c10.917-6.831,22.205-13.895,32.801-21.828c13.404-10.038,26.005-21.594,27.433-38.048c0.672-7.749-1.462-15.828-6.341-24.013
	c-3.333-5.594-7.344-10.423-11.222-15.094c-4.043-4.869-7.861-9.468-10.713-14.635c-14.854-26.92-10.218-56.733-3.712-77.004
	c0.487-1.518,1.008-3.058,1.558-4.609h117.075c18.248,21.443,55.106,40.145,112.471,57.08c3.958,1.176,7.719,2.419,11.172,3.694
	c1.564,0.579,3.077,1.181,4.563,1.792c-7.226,8.858-13.667,19.821-15.58,32.121c-0.767,4.927,1.227,9.701,4.826,12.728
	c-7.842,9.594-12.647,19.26-14.322,28.843c-0.64,3.657,0.2,7.344,2.365,10.38c1.286,1.805,2.942,3.246,4.845,4.248
	c-6.7,8.458-11.071,16.96-13.037,25.389c-1.01,4.325,0.104,8.917,2.979,12.285c2.673,3.129,6.466,4.871,10.532,4.871
	c0.343,0,0.688-0.013,1.034-0.038c0.07-0.005,0.151-0.011,0.222-0.016c-0.564,0.667-1.132,1.338-1.692,1.999l-0.147,0.173
	c-5.767,6.786-11.214,13.195-16.186,19.304c-10.091,12.426-9.044,22.33-6.39,28.449c5.006,11.539,20.022,20.148,45.906,26.319
	c17.299,4.124,39.232,7.139,65.189,8.961c0.08,0.006,0.159,0.01,0.239,0.013l1.517,0.058c5.846,0.224,12.267,0.469,18.88,0.744
	v62.039c0,8.634-7.024,15.659-15.659,15.659H167.625c-4.143,0-7.5,3.358-7.5,7.5s3.357,7.5,7.5,7.5h313.716
	c16.905,0,30.659-13.753,30.659-30.659V104.223C512,87.324,498.246,73.575,481.341,73.575z M89.74,226.667H77.51v-25.672
	c2.116-0.044,4.172-0.071,6.117-0.071c1.956,0,4.009,0.025,6.113,0.068V226.667z M125.896,187.793
	c-10.905-0.777-28.653-1.869-42.27-1.869c-13.344,0-31.243,1.097-42.272,1.876c2.376-8.612,8.373-17.671,17.862-26.969
	c2.1-2.057,2.804-5.151,1.802-7.914s-3.526-4.686-6.456-4.919c-2.408-0.191-4.866-0.475-7.33-0.845
	c1.934-8.979,8.126-18.78,18.02-28.481c2.077-2.037,2.789-5.092,1.826-7.837c-0.963-2.746-3.427-4.687-6.321-4.98
	c-1.316-0.133-2.659-0.307-4.013-0.52c3.313-17.418,19.978-32.713,26.882-38.401c6.906,5.689,23.571,20.982,26.884,38.401
	c-1.354,0.212-2.697,0.386-4.014,0.52c-2.895,0.293-5.358,2.234-6.321,4.98s-0.251,5.8,1.826,7.837
	c9.894,9.701,16.086,19.502,18.02,28.481c-2.463,0.37-4.921,0.654-7.33,0.845c-2.93,0.233-5.454,2.156-6.456,4.919
	s-0.298,5.857,1.802,7.915C117.523,170.126,123.52,179.182,125.896,187.793z M438.25,305.767h-12.22v-25.671
	c2.114-0.044,4.169-0.071,6.11-0.071c1.952,0,4.005,0.026,6.109,0.069v25.673H438.25z M407.73,239.933
	c2.1-2.057,2.804-5.151,1.802-7.915s-3.526-4.687-6.456-4.919c-2.399-0.19-4.86-0.475-7.331-0.846
	c1.928-8.968,8.134-18.787,18.021-28.481c2.077-2.037,2.789-5.092,1.826-7.837s-3.427-4.687-6.322-4.979
	c-1.312-0.133-2.657-0.307-4.013-0.52c2.274-12.007,10.743-22.894,18.237-30.502c0.092-0.09,0.185-0.179,0.272-0.275
	c3.164-3.189,6.138-5.789,8.375-7.626c7.58,6.225,23.618,21.164,26.883,38.402c-1.354,0.213-2.7,0.387-4.013,0.52
	c-2.895,0.293-5.359,2.234-6.322,4.979s-0.251,5.8,1.826,7.837c9.887,9.694,16.094,19.513,18.021,28.481
	c-2.47,0.371-4.931,0.655-7.331,0.846c-2.93,0.233-5.454,2.156-6.456,4.919s-0.298,5.857,1.802,7.914
	c9.476,9.284,15.478,18.347,17.859,26.962c-10.456-0.745-28.529-1.869-42.269-1.869c-13.475,0-31.697,1.129-42.271,1.876
	C392.25,258.284,398.252,249.219,407.73,239.933z"/>
<path d="M379.813,177.429c0.474,0.09,0.944,0.133,1.409,0.133c3.53,0,6.676-2.505,7.359-6.102c0.773-4.069-1.898-7.995-5.968-8.768
	c-57.125-10.854-99.255-42.366-99.674-42.683c-3.298-2.502-8-1.855-10.504,1.442c-2.505,3.299-1.86,8.004,1.438,10.509
	C275.693,133.34,319.095,165.892,379.813,177.429z"/>
<path d="M199.309,285.387c-1.759-3.75-6.226-5.364-9.975-3.606c-2.454,1.151-60.55,28.764-100.002,79.203
	c-2.553,3.263-1.977,7.976,1.286,10.528c1.372,1.073,3,1.593,4.616,1.593c2.228,0,4.434-0.989,5.912-2.88
	c37.146-47.49,93.858-74.535,94.558-74.864C199.454,293.602,201.067,289.137,199.309,285.387z"/>
<path d="M205.312,363.69c0,4.142,3.357,7.5,7.5,7.5h117c4.143,0,7.5-3.358,7.5-7.5s-3.357-7.5-7.5-7.5h-9.533v-43.004
	c0-25.483-20.731-46.215-46.215-46.215s-46.215,20.732-46.215,46.215v43.004h-15.037C208.669,356.19,205.312,359.548,205.312,363.69
	z M274.063,281.971c17.212,0,31.215,14.003,31.215,31.215v3.332c-0.404-0.526-0.809-1.074-1.212-1.666
	c-9.992-14.642-17.415-21.818-24.817-23.994c-8.551-2.512-14.987,1.843-20.668,5.687c-4.113,2.783-8.373,5.65-14.202,7
	C248.452,291.038,260.216,281.971,274.063,281.971z M242.849,318.98c1.425-0.139,2.888-0.364,4.393-0.693
	c8.828-1.931,14.882-6.028,19.746-9.319c4.449-3.011,6.421-4.191,8.032-3.718c2.473,0.727,7.37,4.45,16.654,18.054
	c4.112,6.033,8.677,10.118,13.604,12.199v20.687h-62.43L242.849,318.98L242.849,318.98z"/>
<path d="M234.052,232.475v0.903h-8.181c-4.143,0-7.5,3.358-7.5,7.5s3.357,7.5,7.5,7.5h141.342c4.143,0,7.5-3.358,7.5-7.5
	s-3.357-7.5-7.5-7.5h-2.847v-23.181c0-8.288-3.226-16.078-9.082-21.934c-5.863-5.863-13.657-9.092-21.944-9.092
	c-17.103,0-31.016,13.918-31.016,31.026v23.181h-6.232v-0.903c0-17.104-13.916-31.02-31.021-31.02S234.052,215.371,234.052,232.475z
	 M317.324,210.198c0-8.837,7.185-16.026,16.016-16.026c4.281,0,8.308,1.669,11.338,4.699c3.023,3.023,4.688,7.046,4.688,11.327
	v23.176h-32.042V210.198z M281.092,232.475v0.903h-32.04v-0.903c0-8.833,7.187-16.02,16.02-16.02
	C273.905,216.455,281.092,223.642,281.092,232.475z"/>
<g>
</g>
<g>
</g>
<g>
</g>
<g>
</g>
<g>
</g>
<g>
</g>
<g>
</g>
<g>
</g>
<g>
</g>
<g>
</g>
<g>
</g>
<g>
</g>
<g>
</g>
<g>
</g>
<g>
</g>
</svg>
