<?xml version="1.0" encoding="iso-8859-1"?>
<!-- Generator: Adobe Illustrator 19.0.0, SVG Export Plug-In . SVG Version: 6.00 Build 0)  -->
<svg version="1.1" id="Capa_1" xmlns="http://www.w3.org/2000/svg" xmlns:xlink="http://www.w3.org/1999/xlink" x="0px" y="0px"
	 viewBox="0 0 512 512" style="enable-background:new 0 0 512 512;" xml:space="preserve">
<path style="fill:#E25465;" d="M392.751,9.847L290.188,30.359L9.846,310.701l191.452,191.452l280.341-280.341l20.513-102.564
	L392.751,9.847z M420.33,146.37c-15.105,15.105-39.595,15.105-54.701,0c-15.105-15.105-15.105-39.595,0-54.7
	c15.105-15.105,39.595-15.105,54.701,0C435.435,106.775,435.435,131.265,420.33,146.37z"/>
<rect x="-4.886" y="348.649" transform="matrix(-0.7071 -0.7071 0.7071 -0.7071 -47.701 745.2316)" style="fill:#E89F53;" width="270.756" height="67.692"/>
<path d="M509.116,112.286L399.714,2.884c-2.328-2.327-5.661-3.341-8.893-2.692L288.257,20.704c-1.907,0.381-3.657,1.318-5.031,2.692
	L50.747,255.875L2.884,303.738c-3.845,3.845-3.845,10.079,0,13.925l191.452,191.452c1.923,1.922,4.443,2.884,6.962,2.884
	c2.52,0,5.039-0.962,6.962-2.884l47.863-47.863l232.48-232.478c1.375-1.375,2.312-3.125,2.692-5.031l20.512-102.563
	C512.454,117.951,511.444,114.614,509.116,112.286z M23.771,310.701l33.939-33.939L235.238,454.29l-33.939,33.939L23.771,310.701z
	 M472.571,216.958L249.162,440.365L71.634,262.837l13.425-13.425l34.064,34.063c1.923,1.922,4.443,2.884,6.962,2.884
	c2.521,0,5.039-0.962,6.962-2.884c3.845-3.845,3.845-10.079,0-13.925l-34.064-34.063L295.042,39.429l94.473-18.894l101.95,101.95
	L472.571,216.958z"/>
<path d="M344.454,119.021c0,12.961,5.047,25.147,14.213,34.313c9.166,9.166,21.351,14.213,34.313,14.213s25.148-5.047,34.314-14.213
	c18.919-18.92,18.919-49.704,0-68.626c-18.921-18.919-49.706-18.919-68.626,0C349.501,93.873,344.454,106.059,344.454,119.021z
	 M372.592,98.632c5.621-5.622,13.003-8.431,20.387-8.431c7.383,0,14.768,2.811,20.388,8.431c11.242,11.242,11.242,29.534,0,40.776
	c-5.446,5.446-12.687,8.445-20.388,8.445c-7.701,0-14.942-2.999-20.387-8.445c-5.446-5.445-8.445-12.687-8.445-20.387
	C364.146,111.319,367.146,104.078,372.592,98.632z"/>
<path d="M155.688,293.258c-0.246-0.591-0.552-1.162-0.906-1.703c-0.354-0.532-0.768-1.034-1.221-1.487
	c-2.284-2.294-5.691-3.338-8.891-2.698c-0.62,0.129-1.241,0.315-1.841,0.561c-0.591,0.246-1.162,0.552-1.694,0.906
	c-0.542,0.364-1.044,0.778-1.498,1.231c-0.453,0.453-0.866,0.955-1.231,1.487c-0.353,0.543-0.66,1.114-0.906,1.703
	s-0.432,1.21-0.56,1.841c-0.128,0.639-0.187,1.29-0.187,1.93c0,2.59,1.054,5.13,2.885,6.961c0.454,0.453,0.956,0.866,1.498,1.22
	c0.532,0.354,1.103,0.66,1.694,0.906c0.601,0.246,1.221,0.433,1.841,0.561c0.64,0.128,1.291,0.197,1.93,0.197
	c0.64,0,1.291-0.069,1.92-0.197c0.629-0.128,1.25-0.315,1.841-0.561c0.6-0.246,1.171-0.551,1.702-0.906
	c0.543-0.353,1.045-0.767,1.498-1.22c0.453-0.454,0.866-0.956,1.221-1.498c0.353-0.532,0.66-1.103,0.906-1.702
	c0.246-0.592,0.432-1.211,0.56-1.841c0.128-0.631,0.197-1.281,0.197-1.92c0-0.64-0.069-1.291-0.197-1.93
	C156.12,294.468,155.934,293.848,155.688,293.258z"/>
<g>
</g>
<g>
</g>
<g>
</g>
<g>
</g>
<g>
</g>
<g>
</g>
<g>
</g>
<g>
</g>
<g>
</g>
<g>
</g>
<g>
</g>
<g>
</g>
<g>
</g>
<g>
</g>
<g>
</g>
</svg>
