<svg id="Capa_1" enable-background="new 0 0 512 512" height="512" viewBox="0 0 512 512" width="512" xmlns="http://www.w3.org/2000/svg"><g><g clip-rule="evenodd" fill-rule="evenodd"><path d="m143.393 504.516c-4.309 0-5.641-1.899-5.273-5.811l28.573-298.659 16.016-3.884 14.088 3.884-28.573 298.659c-.369 3.714-2.636 5.811-6.378 5.811z" fill="#3f6d8e"/><path d="m315.202 200.046 28.573 298.659c.369 3.742 2.665 5.811 6.378 5.811h18.454c3.827 0 5.612-2.041 5.272-5.811l-28.573-298.659-15.789-5.103z" fill="#3f6d8e"/><path d="m161.847 59.333h188.307v108.653h-188.307z" fill="#c4deff"/><path d="m321.041 62.196h29.112v102.898h-29.112z" fill="#a5cdff"/><path d="m152.124 165.094h207.752c3.203 0 5.811 2.636 5.811 5.839v23.273c0 3.203-2.608 5.839-5.811 5.839h-207.752c-3.203 0-5.811-2.636-5.811-5.839v-23.273c0-3.203 2.608-5.839 5.811-5.839z" fill="#365e7d"/><path d="m330.736 165.094h29.14c3.203 0 5.811 2.636 5.811 5.839v23.273c0 3.203-2.608 5.839-5.811 5.839h-29.14c3.203 0 5.839-2.636 5.839-5.839v-23.273c0-3.203-2.636-5.839-5.839-5.839z" fill="#294b64"/><path d="m261.202 10.095 99.27 49.521c1.502.737 1.248 2.58-.595 2.58h-207.753c-1.672 0-2.353-1.729-.595-2.58l99.27-49.521c3.543-1.757 7.086-1.644 10.403 0z" fill="#365e7d"/><path d="m261.202 10.095 99.27 49.521c1.502.737 1.248 2.58-.595 2.58h-29.14c1.871 0 2.126-1.843.624-2.58l-89.915-44.844 9.354-4.677c3.542-1.757 7.085-1.644 10.402 0z" fill="#294b64"/><path d="m161.847 91.337h188.307v44.646h-188.307z" fill="#a5cdff"/><path d="m321.041 91.337h29.112v44.646h-29.112z" fill="#80b4fb"/></g><path d="m146.313 157.611h8.022c0-29.312 0-58.621 0-87.903h-8.022c-4.139 0-7.512-3.373-7.512-7.512 0-3.062 1.842-5.67 4.45-6.832l109.418-54.566c2.183-1.105 4.649-1.021 6.661 0l26.306 13.124c3.713 1.843 5.216 6.321 3.373 10.035-1.842 3.713-6.35 5.216-10.035 3.373l-22.96-11.452-77.868 38.835h155.708l-24.492-12.218c-3.685-1.842-5.188-6.35-3.345-10.062 1.842-3.685 6.321-5.188 10.034-3.345l52.98 26.419c3.714 1.842 5.216 6.32 3.374 10.034-1.276 2.552-3.855 4.167-6.718 4.167h-8.022v87.903h8.022c4.139 0 7.512 3.345 7.512 7.483v34.951c0 4.139-3.373 7.512-7.512 7.512h-12.161l2.863 29.962c.397 4.111-2.608 7.768-6.718 8.164-4.11.369-7.767-2.636-8.164-6.746l-3.004-31.38h-15.052c9.213 96.463 18.454 192.955 27.666 289.447h15.08l-21.458-224.25c-.369-4.11 2.636-7.739 6.746-8.136 4.11-.396 7.767 2.637 8.164 6.746l22.167 231.79c.822 4.593-2.693 8.845-7.398 8.845h-30.076c-3.827 0-7.087-2.92-7.455-6.804l-1.672-17.433-79.201-52.072-79.229 52.072-1.672 17.433c-.368 3.855-3.6 6.804-7.455 6.804h-30.076c-4.706 0-8.22-4.252-7.398-8.845l3.94-41.045c.397-4.11 4.025-7.144 8.135-6.747s7.143 4.025 6.747 8.136l-3.203 33.506h15.08c9.213-96.492 18.454-192.984 27.666-289.447h-15.052l-21.26 222.124c-.397 4.11-4.025 7.144-8.135 6.747s-7.144-4.055-6.747-8.136l21.118-220.735h-12.161c-4.139 0-7.512-3.373-7.512-7.512v-34.951c.001-4.138 3.374-7.483 7.513-7.483zm187.087 311.075-7.54-78.917-56.268 36.964zm-15.222-91.729-62.164-38.212-62.192 38.212 62.192 40.848zm-132.039 12.812-7.54 78.917 63.808-41.953zm137.113-27.299-5.896-61.426-47.027 28.913zm-13.266-74.494-53.972-37.587-54 37.587 54 33.166zm-115.343 13.069-5.896 61.426 52.923-32.513zm120.048-28.036-5.698-59.499-39.883 27.751zm-23.357-65.452h-70.668l35.348 24.577zm-88.328 5.953-5.698 59.499 45.581-31.748zm36-85.041c4.139 0 7.512 3.374 7.512 7.513s-3.373 7.484-7.512 7.484h-69.676v14.145h173.34v-14.145h-69.676c-4.139 0-7.512-3.346-7.512-7.484 0-4.139 3.373-7.513 7.512-7.513h69.676v-29.65h-173.34v29.65zm-69.676-44.644h173.34v-14.117h-173.34zm188.873 88.781c-68.146 0-136.262 0-204.379 0v19.928h204.379z"/></g></svg>