<svg id="Capa_1" enable-background="new 0 0 512 512" height="512" viewBox="0 0 512 512" width="512" xmlns="http://www.w3.org/2000/svg"><g><g><g><path d="m457.006 256c0 60.78 25.664 116.46-10.566 159.65-45.59 54.32-113.98 88.85-190.44 88.85-63.36 0-121.18-23.72-165.08-62.75-51.18-45.52-46.93-111.87-46.93-185.75 0-72.32-5.59-137.43 43.72-182.84 44.27-40.76 103.37-65.66 168.29-65.66 87.37 0 164.22 45.09 208.52 113.28 25.29 38.92-7.514 85.35-7.514 135.22z" fill="#9dc6fb"/><path d="m210.59 441.75c29.6 26.32 65.54 45.68 105.24 55.5-19.16 4.74-39.2 7.25-59.83 7.25-63.36 0-121.18-23.72-165.08-62.75-51.18-45.52-46.93-111.87-46.93-185.75 0-72.32-5.59-137.43 43.72-182.84 44.27-40.76 103.37-65.66 168.29-65.66 20.63 0 40.67 2.51 59.84 7.26-41.15 10.16-78.26 30.59-108.46 58.4-49.31 45.41-80.21 110.52-80.21 182.84 0 73.88 32.24 140.23 83.42 185.75z" fill="#80b4fb"/><path d="m256 331.17c0 20.36-16.5 36.86-36.86 36.86h-38.55c10.18 0 19.39 4.13 26.07 10.79 6.66 6.68 10.79 15.89 10.79 26.07 0 12.07-5.8 22.78-14.76 29.51-6.16 4.61-13.81 7.35-22.1 7.35h-89.67c-51.18-45.52-83.42-111.87-83.42-185.75 0-72.32 30.9-137.43 80.21-182.84h105.96c4.08 0 8.01.66 11.68 1.89 5.48 1.83 10.39 4.91 14.39 8.91 6.66 6.66 10.79 15.88 10.79 26.06 0 20.35-16.5 36.86-36.86 36.86h-40.16c10.18 0 19.39 4.12 26.07 10.79 6.66 6.67 10.79 15.89 10.79 26.06 0 20.36-16.5 36.86-36.86 36.86h-59.94c10.18 0 19.39 4.13 26.07 10.8 3.31 3.31 6.01 7.27 7.86 11.66 1.89 4.42 2.93 9.29 2.93 14.4 0 4.98-.99 9.73-2.78 14.06-5.52 13.38-18.7 22.8-34.08 22.8h125.57c10.18 0 19.4 4.13 26.06 10.79 6.68 6.68 10.8 15.89 10.8 26.07z" fill="#f9f6f9"/><path d="m202.69 434.4c-6.16 4.61-13.81 7.35-22.1 7.35h-89.67c-51.18-45.52-83.42-111.87-83.42-185.75 0-72.32 30.9-137.43 80.21-182.84h105.96c4.08 0 8.01.66 11.68 1.89-40.01 37.68-67.53 88.49-75.67 145.54h-36.11c10.18 0 19.39 4.13 26.07 10.8 3.31 3.31 6.01 7.27 7.86 11.66-.22 4.29-.33 8.61-.33 12.95 0 5.21.16 10.38.48 15.51-5.52 13.38-18.7 22.8-34.08 22.8h36.54c8.44 54.6 34.67 103.34 72.58 140.09z" fill="#dddaec"/><path d="m504.5 256c0 60.78-21.83 116.46-58.06 159.65h-17.37c-10.17 0-19.39-4.13-26.06-10.79-6.67-6.68-10.8-15.89-10.8-26.07 0-20.35 16.51-36.86 36.86-36.86h-56.7c-10.18 0-19.39-4.13-26.07-10.79-6.66-6.68-10.79-15.89-10.79-26.07 0-20.35 16.5-36.86 36.86-36.86h48.28c-10.18 0-19.39-4.13-26.07-10.79-6.66-6.67-10.79-15.88-10.79-26.06 0-20.36 16.5-36.86 36.86-36.86h-64.28c-10.17 0-19.39-4.13-26.06-10.8s-10.8-15.88-10.8-26.06c0-20.36 16.51-36.86 36.86-36.86h108.15c25.29 38.92 39.98 85.35 39.98 135.22z" fill="#f9f6f9"/></g></g><g><path d="m470.809 116.694c-47.47-73.07-127.773-116.694-214.809-116.694-64.423 0-125.994 24.022-173.371 67.643-25.779 23.74-46.086 51.927-60.36 83.779-14.776 32.975-22.269 68.161-22.269 104.578 0 73.034 31.322 142.78 85.937 191.355 46.888 41.687 107.285 64.645 170.063 64.645 75.858 0 147.365-33.361 196.187-91.53 6.188-7.375 11.996-15.146 17.266-23.096 2.288-3.453 1.345-8.106-2.108-10.395-3.454-2.289-8.107-1.345-10.395 2.108-4.33 6.532-9.066 12.921-14.071 19.063h-13.809c-7.836 0-15.209-3.053-20.753-8.589-5.551-5.559-8.607-12.935-8.607-20.771 0-16.189 13.171-29.36 29.36-29.36 4.143 0 7.5-3.358 7.5-7.5s-3.357-7.5-7.5-7.5h-56.7c-7.833 0-15.211-3.055-20.759-8.585-5.547-5.563-8.602-12.941-8.602-20.775 0-16.189 13.171-29.36 29.36-29.36h48.28c4.143 0 7.5-3.358 7.5-7.5s-3.357-7.5-7.5-7.5c-7.834 0-15.212-3.055-20.763-8.589-5.545-5.552-8.598-12.925-8.598-20.761 0-16.189 13.171-29.36 29.36-29.36 4.143 0 7.5-3.358 7.5-7.5s-3.357-7.5-7.5-7.5h-64.28c-7.837 0-15.209-3.056-20.757-8.603-5.548-5.548-8.604-12.92-8.604-20.757 0-16.189 13.171-29.36 29.36-29.36h104.035c23.956 38.252 36.598 82.321 36.598 127.72 0 37.963-8.577 74.295-25.492 107.985-1.859 3.702-.365 8.209 3.337 10.068 3.701 1.857 8.209.366 10.067-3.337 17.975-35.798 27.088-74.394 27.088-114.716 0-49.664-14.244-97.835-41.191-139.306zm-269.919 22.686h-7.222-40.16c-4.142 0-7.5 3.358-7.5 7.5s3.358 7.5 7.5 7.5c7.842 0 15.218 3.053 20.763 8.589 5.544 5.552 8.597 12.925 8.597 20.761 0 16.189-13.171 29.36-29.36 29.36h-59.938c-4.142 0-7.5 3.358-7.5 7.5s3.358 7.5 7.5 7.5c7.835 0 15.212 3.057 20.763 8.6 5.544 5.553 8.598 12.926 8.598 20.761 0 16.189-13.171 29.36-29.36 29.36-4.142 0-7.5 3.358-7.5 7.5s3.358 7.5 7.5 7.5h125.57c7.844 0 15.215 3.052 20.757 8.593 5.548 5.548 8.603 12.923 8.603 20.767 0 16.189-13.171 29.36-29.36 29.36h-38.55c-4.142 0-7.5 3.358-7.5 7.5s3.358 7.5 7.5 7.5c7.833 0 15.211 3.055 20.759 8.585 5.547 5.564 8.602 12.942 8.602 20.775 0 16.189-13.171 29.36-29.36 29.36h-86.763c-50.124-45.64-78.829-110.433-78.829-178.251 0-34.289 7.051-67.411 20.958-98.444 13.044-29.11 31.461-54.958 54.732-76.896h102.98c7.844 0 15.219 3.055 20.767 8.603 5.542 5.542 8.593 12.913 8.593 20.757 0 5.659-1.611 11.144-4.659 15.859-2.249 3.479-1.251 8.122 2.228 10.37 1.259.813 2.669 1.202 4.064 1.202 2.46 0 4.871-1.21 6.306-3.43 4.62-7.147 7.061-15.447 7.061-24.001 0-11.85-4.612-22.988-12.986-31.363-8.381-8.381-19.523-12.997-31.374-12.997h-85.483c42.159-32.79 93.921-50.66 147.813-50.66 77.226 0 148.817 36.488 194.213 98.28h-93.843c-24.46 0-44.36 19.9-44.36 44.36 0 11.843 4.615 22.982 12.997 31.364 8.382 8.381 19.52 12.996 31.363 12.996h31.053c-6.924 7.828-11.133 18.112-11.133 29.36 0 10.912 3.917 21.227 11.096 29.35h-15.016c-24.46 0-44.36 19.9-44.36 44.36 0 11.832 4.609 22.971 12.995 31.382 8.396 8.369 19.534 12.979 31.365 12.979h23.473c-6.924 7.828-11.133 18.112-11.133 29.36 0 11.838 4.614 22.979 13 31.377 8.385 8.372 19.521 12.983 31.36 12.983h.517c-45.355 47.115-107.722 73.849-173.587 73.849-52.146 0-102.54-16.835-143.998-47.75h68.587c24.46 0 44.36-19.9 44.36-44.36 0-10.906-3.917-21.225-11.098-29.36h5.288c24.46 0 44.36-19.9 44.36-44.36 0-11.85-4.615-22.992-12.997-31.373-8.375-8.375-19.513-12.987-31.363-12.987h-92.343c6.924-7.828 11.133-18.112 11.133-29.36 0-10.917-3.921-21.238-11.104-29.36h26.684c24.46 0 44.36-19.9 44.36-44.36 0-10.913-3.918-21.23-11.095-29.35h6.895l7.368.047c4.886-.33 8.228-4.698 7.573-8.78-.542-3.383-3.764-6.176-7.72-6.267z"/></g></g></svg>